<svg width="40" height="4" preserveAspectRatio="none" viewBox="0 0 40 4" fill="none" xmlns="http://www.w3.org/2000/svg">
<path d="M39.3746 1.94218C38.7912 2.45397 38.276 1.94242 37.6887 2.26739C37.6245 2.2888 37.7643 1.98779 37.6102 2.05861C37.0236 2.45209 36.2779 2.22245 35.7297 1.921L35.7831 1.84627C35.677 1.79138 35.4806 2.04882 35.3621 2.01788C35.373 1.96406 35.4182 1.94433 35.4036 1.8699C35.3381 2.02716 35.1653 1.94389 35.0867 2.0566C35.0508 1.99262 35.0827 1.86978 35.033 1.7999L34.925 1.97806C34.6391 2.40205 34.4533 1.95273 34.1379 2.16929C34.1604 2.13015 34.194 2.09573 34.1809 2.05118C33.6936 2.31155 33.1641 2.27135 32.6605 2.36886C32.6926 2.30458 32.7356 2.18647 32.7215 2.12199C32.6575 2.30912 32.4996 2.35885 32.3601 2.39693C32.3422 2.2042 32.1 2.57858 31.972 2.46563L31.9945 2.42649C31.839 2.63316 31.8525 2.30763 31.7125 2.55008L31.6749 2.39767C31.5664 2.67304 31.5426 2.25366 31.4192 2.39605L31.4111 2.45107C31.311 2.51567 31.2934 2.38149 31.2006 2.42972L31.1991 2.39985C30.996 2.4693 30.9177 2.31907 30.8742 2.53439C30.8439 2.36562 31.074 2.45381 31.0236 2.20824C30.3522 2.42922 29.7168 2.39268 29.0889 2.39834C29.0359 2.31732 28.9937 2.28962 28.9976 2.20355C28.9238 2.2501 28.7522 2.24531 28.6708 2.35683C28.6925 2.35633 28.6519 2.25136 28.6213 2.23835C28.5249 2.15832 28.4456 2.47538 28.3403 2.38185C28.4025 2.32061 28.4346 2.25632 28.4334 2.17785C28.2921 2.34183 28.1524 2.32136 28.0162 2.37058C28.0442 2.33381 28.0784 2.30934 28.0887 2.24556C27.9105 2.43281 27.8449 2.21002 27.6984 2.32303L27.7709 2.19801C27.6058 2.04977 27.6586 2.45229 27.5076 2.36853C27.5574 2.33125 27.5521 2.28029 27.5713 2.23C27.365 2.45404 27.1276 2.38222 26.9545 2.45472C26.9674 2.44072 26.9709 2.40326 26.9709 2.40326C26.793 2.43474 26.6291 2.36497 26.4219 2.46193C26.3648 2.40841 26.5099 2.15837 26.3169 2.21263C26.272 2.45664 25.9876 2.31612 26.0368 2.59037C25.8905 2.54762 25.6659 2.4618 25.5423 2.54562C25.6326 2.44761 25.5301 2.2481 25.6622 2.22639L25.5951 2.08088C25.6308 1.97913 25.6891 2.11113 25.6831 1.99165C25.6156 2.00192 25.4084 2.09886 25.3601 2.05885C25.21 2.20932 25.0368 2.49615 24.8372 2.52814C24.9491 2.42963 24.8426 2.25762 24.9136 2.20989L24.5433 2.68564C24.4758 2.69591 24.5689 2.49192 24.4632 2.55416C24.4556 2.61913 24.4058 2.65639 24.3654 2.71713C24.3477 2.69012 24.0831 2.78217 24.109 2.53984C24.0989 2.44786 24.2235 2.49111 24.1727 2.40131C24.0535 2.40903 24.0302 2.48681 23.9109 2.49453L23.9173 2.45825C23.8473 2.41874 23.6643 2.56498 23.7198 2.69579C23.7744 2.69952 23.729 2.55353 23.7949 2.62055C23.7095 2.75958 23.5621 2.80407 23.4452 2.80301C23.4949 2.76573 23.5026 2.70076 23.5342 2.62652C23.3342 2.81427 23.15 2.88204 22.958 2.95622C22.9311 3.07147 23.0672 2.74937 23.0836 2.80507C22.8906 2.64501 22.5648 3.03251 22.4201 2.80531C22.457 2.78203 22.4014 2.97271 22.4077 2.93643C22.3008 2.92018 22.3413 2.75229 22.2574 2.81402C22.2714 2.71277 22.1609 2.84115 22.081 2.87538C22.0277 2.95012 22.0707 2.832 22.1404 2.81296C22.0196 2.89797 21.5759 3.05019 21.3678 2.9129C21.3574 2.97669 21.1703 3.15043 21.1185 3.14788L21.1734 2.99586C21.1416 2.90438 20.9867 3.01384 21.007 2.87631C20.8505 3.06306 21.4909 2.71195 21.3024 2.85583C21.288 2.73279 21.0291 3.10009 21.1083 2.89019C20.9969 2.89149 20.8561 3.06542 20.7811 2.92633C20.8066 2.94693 20.9148 2.72016 20.8229 2.72974C20.6612 2.75837 20.764 2.80213 20.6278 2.85135L20.5355 2.90954C20.4996 3.05989 20.4014 2.89143 20.4233 3.05665C20.4306 2.93312 20.1822 3.12946 20.2488 2.88495L20.3123 2.68787C20.2397 2.70573 20.1568 2.89453 20.085 2.98091C20.0812 2.95981 20.0714 2.9264 20.0805 2.8913C20.0058 3.19082 19.9241 2.86373 19.7969 3.09218C19.6777 2.99273 19.4376 3.08546 19.412 2.89914C19.2833 2.99056 19.1635 3.09548 19.0491 3.03705C19.0804 3.01141 19.115 2.99691 19.1365 2.93785C19.0752 2.85328 19.0408 2.92633 18.9592 2.97929C18.9839 2.93137 18.8392 2.81133 18.7741 2.70566C18.6454 2.79708 18.6507 2.95521 18.6201 3.04936C18.5838 2.76111 18.2736 3.24295 18.2083 2.97156C18.2525 2.93192 18.3968 2.82769 18.3226 2.75712C18.2863 2.46887 18.0779 2.97455 17.9483 2.83173L17.9359 3.07001C17.8983 2.91761 17.671 3.21067 17.7403 2.96734C17.6686 3.05372 17.5703 2.88526 17.5361 3.12404C17.3167 2.92347 16.8736 3.25136 16.8031 2.82183C16.756 2.86029 16.6727 2.82481 16.6676 2.93957C16.7014 3.07088 16.7745 2.84866 16.779 2.93827C16.7439 2.94282 16.7229 3.01183 16.711 3.04575C16.6405 2.99627 16.5822 2.97144 16.7002 2.77808C16.549 2.63576 16.4295 3.17929 16.2183 3.08942C16.2489 2.99527 16.2413 2.95307 16.1688 2.97093L16.0058 3.13541C15.8651 3.09502 15.9675 2.91449 15.9974 2.75182C15.912 2.78368 15.8162 2.77216 15.752 2.90073L15.7008 2.69382C15.7383 2.84623 15.6133 2.79302 15.5691 2.83266L15.6161 2.7942C15.6154 2.72568 15.5143 2.77036 15.4635 2.78773C15.4523 2.89016 15.5385 2.92681 15.5811 2.96446C15.525 3.03801 15.4644 3.02197 15.3926 3.10834C15.4442 2.94517 15.2863 2.9949 15.2256 2.97884C15.1612 2.94169 15.1134 3.12595 15.094 3.11768C15.1089 3.03634 14.9765 3.10665 15.0602 2.98636C15.0915 2.96072 15.0998 3.07143 15.1559 2.99787C15.1228 2.93508 15.1588 2.78474 15.0367 2.89844C14.9455 2.97654 14.9875 3.21854 14.8683 3.1191C14.9126 3.07946 14.9363 3.01162 14.9768 2.95089L14.8636 2.86377L14.8249 3.01293C14.8151 2.97952 14.828 2.96552 14.8242 2.94442C14.7531 3.09932 14.6117 2.9904 14.5444 3.1664C14.4719 3.18426 14.4252 3.06695 14.3646 3.0509L14.3802 3.03807C14.3189 2.9535 14.2049 3.01219 14.1174 3.11138L14.1293 3.07746C14.0881 3.06968 13.9833 3.09328 13.9115 3.17965C13.8269 3.06571 13.9949 2.62075 13.8356 2.80632C13.727 2.80881 13.6073 3.07946 13.6285 3.17616C13.4525 3.08176 13.1787 3.31606 13.0424 3.0924C13.0019 3.15313 13.0118 3.18656 12.9458 3.2267C12.6682 3.16702 12.2969 3.40853 12.1298 3.1133C12.2271 3.04752 12.1685 2.96414 12.1835 2.8828C12.0869 3.01709 12.1302 2.74321 12.0548 2.97421C12.0318 3.11056 12.013 3.1708 12.0812 3.22905C11.8919 3.30441 11.6307 3.30043 11.5595 3.18244C11.5926 3.24523 11.5483 3.28487 11.5013 3.32333C11.5588 3.11392 11.4375 3.08181 11.3268 3.15163L11.2871 3.28089L11.2533 3.14957C11.2091 3.18922 11.1554 3.41973 11.0842 3.30174C11.09 3.2555 11.0954 3.19931 11.0855 3.16589C10.9629 3.26963 10.7847 3.45687 10.7001 3.34293L10.65 3.15592C10.5992 3.17328 10.4965 3.29525 10.567 3.34473C10.4089 3.22873 10.2914 3.21771 10.2667 3.05131C9.86279 3.45432 9.39865 3.47118 9.0356 3.44336L9.06621 3.34921C8.98818 3.25754 8.97947 3.51692 8.9219 3.45344C8.97424 3.35879 8.88737 3.25362 8.99051 3.14161C8.8713 3.04216 8.77062 3.31113 8.66953 3.35581C8.62703 3.48388 8.76078 3.2777 8.70866 3.43092C8.68388 3.47884 8.5326 3.33651 8.47137 3.52482C8.4512 3.44803 8.50937 3.30714 8.54605 3.22531L8.43913 3.31622C8.38138 3.08703 8.76676 2.90997 8.71484 2.63454L8.62943 2.6664C8.59491 2.46658 8.88977 2.43614 8.7041 2.36687C8.59491 2.46657 8.46188 2.74126 8.52324 2.82583C8.33019 2.8801 8.34238 3.2848 8.15137 3.27173C8.12136 3.16152 8.31309 3.2431 8.30786 3.08497C8.24855 2.93306 8.10569 3.17434 8.03472 3.11491C8.10897 3.18548 7.99367 3.38001 7.92493 3.41897C7.8469 3.3273 8.02733 3.23843 7.8904 3.21914C7.84184 3.33489 7.69653 3.41921 7.7925 3.48928C7.68804 3.73715 7.6614 3.42376 7.54333 3.61711C7.53431 3.43788 7.77293 3.20813 7.64032 3.11272C7.62989 3.28367 7.39943 3.35125 7.42812 3.59732C7.37938 3.54734 7.40244 3.411 7.46539 3.31111C7.40026 3.20545 7.19011 3.6227 7.23549 3.28149L7.1682 3.45748C7.1518 3.40178 7.12252 3.36009 7.09856 3.2622C7.02226 3.25896 6.8031 3.49699 6.86588 3.23139C6.83732 3.25821 6.66526 3.24346 6.69373 3.43096C6.77831 3.54491 6.84488 3.3004 6.85184 3.54697C6.81731 3.34714 6.69012 3.57559 6.61455 3.64087L6.62571 3.53843C6.58148 3.57808 6.5014 3.55375 6.45283 3.6695C6.49329 3.60876 6.49256 3.54024 6.46705 3.51964L6.39599 3.67454C6.22844 3.7494 6.41759 3.40116 6.25965 3.45088L6.39513 3.33313C6.36379 3.35877 6.34566 3.21465 6.26631 3.25884C6.20813 3.39973 6.1214 3.56743 6.07283 3.68318C5.97553 3.74896 6.07038 3.52624 5.95535 3.67217L6.09894 3.49942C6.12372 3.4515 6.07631 3.26568 5.96489 3.26699C5.88325 3.31995 5.73005 3.51784 5.82653 3.59787C5.76968 3.60291 5.71338 3.51074 5.77634 3.41086C5.64013 3.46009 5.76212 3.56071 5.63348 3.65213C5.60952 3.55424 5.49942 3.4197 5.4439 3.28889L5.60849 3.04711L5.53497 3.04506C5.67478 2.85121 5.51684 2.90093 5.61269 2.69812C5.56773 2.66924 5.49216 2.73452 5.43226 2.78698C5.51624 3.1053 5.16903 3.23039 5.15121 3.52487C4.9296 3.60595 5.17251 2.81287 4.86128 3.27481C4.88146 3.35161 4.73203 3.57061 4.88013 3.48746C4.75887 3.45535 4.72916 3.78375 4.60617 3.66321C4.74165 3.54547 4.55047 3.36667 4.74813 3.18769C4.71751 3.28185 4.82238 3.25827 4.85372 3.23263C4.8237 3.12241 4.92611 2.94188 4.79802 2.93609C4.7126 2.96796 4.60118 2.96926 4.58469 3.12788C4.55252 3.29933 4.709 3.11258 4.62226 3.28029C4.44866 3.34283 4.4791 3.08295 4.34985 3.37874C4.45472 3.35515 4.44428 3.52611 4.41744 3.64136L4.28502 3.71169L4.3313 3.60471C4.1613 3.52262 4.23267 3.80634 4.05734 3.78045L4.01904 3.55952C4.102 3.37071 4.26534 3.64485 4.29883 3.33755C4.18413 3.32772 4.11029 3.48142 4.01659 3.40257C4.04793 3.37693 4.08027 3.37121 4.11389 3.33679C4.07271 3.32901 4.11737 2.91928 3.8982 3.15732C3.79129 3.24824 3.85192 3.2643 3.82508 3.37956C3.62825 3.41272 3.54734 3.53419 3.42025 3.54832C3.49337 3.32609 3.2098 3.52697 3.39384 3.29348C3.42764 3.42479 3.70683 3.40718 3.81835 3.19155C3.80761 2.92389 3.95906 3.23194 4.05924 2.95301C3.90942 2.94772 3.9722 2.68212 3.98264 2.51117C3.94146 2.50339 3.88761 2.56817 3.85399 2.60258C3.80238 2.76575 3.85922 2.76072 3.82428 2.93098C3.66184 2.89109 3.4814 2.97996 3.35348 3.13989C3.31158 3.0636 3.36597 2.9016 3.43572 2.88256C3.22321 2.92855 3.01276 2.90721 2.83087 2.85904C2.89846 3.12166 2.60547 2.91903 2.64099 3.13877C2.73091 3.19652 2.7811 3.38353 2.69742 3.50382C2.63679 3.48777 2.72426 3.38856 2.70786 3.33287C2.59561 3.47998 2.62837 3.10417 2.50118 3.33263C2.70335 3.24326 2.6072 3.00746 2.68637 2.79755C2.52917 2.91579 2.7251 2.64839 2.59195 2.65019C2.43474 2.76843 2.25153 2.85611 2.09359 2.90583C1.95043 2.70849 1.62567 2.9016 1.4579 2.91791C1.39276 2.81224 1.50329 2.57668 1.41715 2.54003C1.30573 2.54133 1.44356 2.79488 1.3049 2.68715L1.32968 2.63922C1.26978 2.69169 1.06598 2.4783 0.944298 2.81628L1.04826 2.55845C1.02275 2.53786 0.982296 2.59859 0.950955 2.62423C0.965899 2.5429 0.948502 2.46728 1.00841 2.41482C0.945321 2.24182 0.792119 2.43972 0.681197 2.45098L0.718773 2.60339C0.504716 2.72667 0.412569 2.57052 0.219514 2.62478L0.255461 2.47443L0.126814 2.56586C0.182211 2.42378 0.104185 2.33211 0.0205007 2.4524L0.377419 2.08785C0.438776 2.17243 0.25328 2.26889 0.271405 2.41302C0.28575 2.53605 0.463132 2.4946 0.521308 2.35371C0.460678 2.33766 0.448791 2.37156 0.388887 2.42403C0.411215 2.21916 0.506965 2.23068 0.584091 2.08811C0.548969 2.09265 0.513621 2.03863 0.492118 2.09769C0.579583 1.9985 0.649328 1.97945 0.76075 1.97814C0.669505 2.05624 0.775095 2.10117 0.734642 2.16191C0.782479 1.97764 0.896953 1.92892 1.02427 1.97336C1.07824 2.18146 1.30857 1.84099 1.45534 1.8937C1.35293 2.07423 1.24069 2.22134 1.12771 2.29994C1.20574 2.39161 1.23913 2.29863 1.31716 2.3903C1.39201 2.2565 1.47119 2.0466 1.61928 1.96346L1.59623 2.0998C1.72866 2.02948 1.77043 1.8329 1.91342 1.86452C2.15594 1.92874 2.41947 1.92395 2.60819 1.94579L2.58514 2.08214C2.75556 1.79413 2.96846 1.97243 3.14412 1.84256C3.36286 1.97461 3.7114 1.71367 3.7881 1.94119C4.24773 1.83471 4.65329 1.73446 5.09593 1.77665L4.97785 1.97C5.0901 1.82289 5.00786 2.08022 5.091 2.05714C5.03397 1.89646 5.24648 1.85046 5.32738 1.72899C5.49811 1.87959 5.79152 1.71213 5.99952 1.57653L5.97646 1.71287C6.2113 1.46202 6.37997 1.67996 6.59698 1.72358C6.6106 1.7781 6.62495 1.90114 6.69519 1.89205C6.86356 1.67138 6.92419 1.68742 7.13219 1.55182C7.26256 1.54884 7.46391 1.60528 7.58211 1.68482C8.14037 1.37671 8.60163 1.57299 9.15479 1.37964L9.15724 1.53659C9.72739 1.19457 10.2727 1.49484 10.7344 1.32103L10.6365 1.59117C10.752 1.66952 10.9539 1.5216 10.9605 1.32956C11.076 1.40791 11.3211 1.20043 11.3567 1.42017C11.4817 1.47337 11.549 1.29738 11.6695 1.26098C11.9219 1.35862 12.0268 1.33503 12.2961 1.28401L12.2355 1.26794C12.195 1.32868 12.1682 1.44395 12.2288 1.46C12.3418 1.3814 12.5643 1.53456 12.5372 1.2112C12.7723 1.39895 13.2093 1.05873 13.423 1.30554C13.4184 1.21593 13.491 1.19807 13.5314 1.13733C13.7732 1.13304 13.9889 1.31251 14.2126 1.16409C14.2419 1.20578 14.1221 1.31071 14.215 1.32104C14.2787 1.28968 14.2419 1.20579 14.3235 1.15283C14.7501 0.983559 15.0768 1.31749 15.4419 1.27798C16.1103 1.10442 16.7505 1.18196 17.3607 1.14929L17.3397 1.21831C17.5962 0.966957 17.7628 1.46655 18.0022 1.09099C18.0353 1.15378 18.1803 1.11806 18.1161 1.24663C18.3165 1.06884 18.5347 1.40527 18.8145 1.18329C18.795 1.17501 18.7793 1.18782 18.7485 1.22342C18.9516 1.3683 19.2051 1.16436 19.4238 1.29642C19.3925 1.32206 19.3422 1.34938 19.3207 1.40844C19.3896 1.5352 19.6058 1.13026 19.5918 1.44584C19.6486 1.4408 19.6628 1.29095 19.6277 1.29549C20.1451 1.41821 20.7708 1.207 21.3517 1.13264C21.7172 1.31741 21.264 1.66049 21.633 1.42775C21.6443 1.49104 21.676 1.30963 21.6684 1.3746C21.8109 1.28909 21.7867 1.72702 21.9086 1.55476C21.9152 1.36271 21.99 1.44324 22.0168 1.32799C22.2378 1.45127 22.2519 1.6229 22.4783 1.47567L22.4427 1.57741C22.7329 1.29164 22.966 1.43958 23.2297 1.1133C24.5097 1.0441 25.7619 0.855915 27.0022 0.808812C28.2096 0.864639 29.4338 0.713245 30.6384 0.875054C30.872 1.1401 30.896 1.13083 31.2359 1.02211C31.2162 1.06243 31.1922 1.07171 31.2053 1.11627C31.2678 0.899265 31.4327 1.0961 31.5091 0.885006C31.9595 0.920791 32.3916 0.861055 32.8646 0.857696C32.7842 0.881967 32.7114 1.05559 32.8006 1.04483L32.9239 0.902446L32.927 0.962186C32.9934 0.932004 33.0832 0.824024 33.0362 0.75532C34.2584 0.564088 35.3322 0.991824 36.5013 0.933891C36.7587 1.02394 37.1676 0.934827 37.4753 0.890396C38.2999 1.17305 39.0511 1.40505 39.9949 1.19278C40.0136 1.23971 39.7758 1.81087 39.3746 1.94218Z" fill="#1D1D1D"/>
</svg>
