<svg width="50" height="30" viewBox="0 0 50 30" fill="none" xmlns="http://www.w3.org/2000/svg">
<path opacity="0.8" d="M46.6911 22.8565C45.1681 22.3339 43.3484 21.8783 42.444 21.4385C41.5643 20.9892 41.4764 20.5749 43.5893 19.9367C44.9362 19.5366 46.9133 18.9553 48.8656 18.3742C49.012 17.7708 49.1336 17.1485 49.2305 16.5264C49.3274 15.9043 49.313 15.292 49.3233 14.6607C48.2832 14.2967 48.5164 13.7495 49.2068 13.0783C48.9389 10.6014 47.8054 8.19329 46.1901 5.96578C44.5624 3.73831 42.2428 1.70155 39.6649 0.136709C39.3549 -0.116641 36.2013 0.00683024 33.3122 1.58031L30.8543 2.64361L29.6572 3.43895C29.9672 3.6923 29.8946 4.17302 31.0935 3.89585C31.3659 4.008 32.9839 3.30549 33.2689 3.45528C33.9008 3.79236 34.1622 4.30025 34.7817 4.61853C35.4013 4.96507 36.3544 5.17861 38.4563 4.9644C39.371 4.76353 38.5941 5.46327 37.8047 6.13479C37.0153 6.80631 36.2134 7.44019 37.1158 7.27704C38.6379 7.50755 38.2208 8.55469 37.7662 9.46063C37.3486 10.3665 36.7579 11.254 38.1071 11.5699C39.357 11.7824 40.8046 11.9096 41.9309 12.1508C43.0449 12.3921 43.8253 12.7475 43.432 13.4931C43.6059 13.7375 45.3749 13.7976 45.5489 14.0608C45.3666 15.0412 45.0112 16.041 44.5443 16.9847C43.9415 17.9665 43.2767 18.892 41.9934 19.8289C42.1184 20.2242 36.1467 20.9505 37.8049 21.1712C41.0217 21.462 42.6188 21.9278 44.2654 22.4217C44.2906 22.5535 39.7643 22.738 39.8269 22.964C39.3213 23.4178 40.1267 23.858 41.0682 24.3259C42.0345 24.7938 43.0628 25.2992 42.9901 25.7516C43.4353 25.7219 43.8557 25.7017 44.2514 25.6721C44.7695 25.2276 45.1885 24.7834 45.5828 24.3204C45.9398 23.8105 46.3588 23.3381 46.6911 22.8565Z" fill="#F8F0ED"/>
<path opacity="0.8" d="M21.3224 26.3507C19.1808 25.7831 18.1165 25.5982 18.9454 25.6802C19.7127 25.8002 21.2215 25.7481 22.5449 25.7437C23.8683 25.7205 25.006 25.6508 25.0301 25.4529C25.4499 25.2254 24.9293 24.8973 24.1738 24.5889C23.4183 24.2711 22.3783 23.9636 21.5611 23.7025C20.7563 23.4414 20.2608 23.2169 20.5569 22.9898C20.8282 22.7628 21.9406 22.5331 24.3762 22.1953C28.4681 21.5694 29.0717 20.8325 28.2784 20.2981C27.4973 19.7448 25.5543 19.3933 25.0332 18.9145C24.7728 18.7081 21.9411 18.9247 21.718 18.7747C21.0729 18.2021 20.3912 17.7616 19.6971 17.3305C19.5484 17.2556 19.8076 17.0852 20.2275 16.8765C20.6843 16.6489 21.1166 16.4402 21.9441 16.0889C23.4015 15.4623 24.661 14.808 23.5356 14.8589C23.4365 14.8215 26.1414 13.6632 26.0299 13.5976C22.2547 12.7527 20.717 11.5707 20.2652 9.59374C18.8336 10.5406 17.4267 11.478 16.0568 12.3869C14.7733 13.2485 13.5391 14.0816 12.342 14.8864C13.3805 14.7228 13.814 14.9287 13.9269 15.3899C13.9894 15.5876 13.9778 15.8326 13.9663 16.087C13.9547 16.332 13.9554 16.5298 14.0549 16.6991C13.9818 17.0385 14.1309 17.2358 14.3788 17.414C14.6145 17.6111 14.9736 17.7418 15.3205 17.9008C15.655 18.0787 16.0019 18.2471 16.1758 18.4727C16.325 18.7171 16.3383 18.9903 15.9931 19.3306C15.6973 19.6519 15.3891 19.9638 15.2786 20.2092C15.1311 20.4829 15.1689 20.6994 15.6271 20.8581C16.1092 20.7905 16.6903 20.7038 17.4073 20.5978C16.7522 20.7319 16.2702 20.8465 15.9118 20.9325L16.0604 20.9697C16.3571 20.9499 16.4932 20.9589 16.2337 21.0162C16.1594 21.0071 16.1223 20.9883 16.0604 20.9697C15.9491 20.9795 15.8007 20.9894 15.6399 20.9994C14.4165 21.3331 15.604 21.3481 16.8657 21.4004C18.1275 21.4434 19.4018 21.5428 18.2398 21.7445C14.2099 22.4267 14.6436 22.6608 15.7209 23.0529C16.7364 23.417 18.3337 23.9582 16.0832 24.1446C14.5626 24.3569 13.8581 24.5194 14.391 24.8285C14.5272 24.894 14.7256 25.0253 15.0226 25.0714C15.3071 25.0893 15.6783 25.1352 16.1362 25.1996C17.0519 25.3379 18.2896 25.5976 19.8742 26.0258C20.3323 26.1467 20.815 26.2488 21.3224 26.3507Z" fill="#EBD5CC"/>
<path opacity="0.8" d="M34.8143 29.2553C35.7177 29.3936 36.5096 29.5041 37.116 29.5774C35.2829 28.8204 33.9204 28.2313 32.9417 27.7446C31.9753 27.2579 31.2817 26.9587 30.9343 26.6301C30.5622 26.3205 30.487 26.0381 30.5604 25.774C30.5966 25.5101 30.7813 25.2457 31.0155 25C31.0152 24.9152 34.0207 24.8958 35.5292 24.7495C36.9994 24.2454 29.3663 23.743 30.8124 23.4273C36.5091 21.854 36.5386 19.5551 34.4433 18.0358C32.3724 16.4221 28.2139 15.6256 25.8118 14.8328C25.6134 14.7015 33.1633 12.472 34.3235 11.7239C34.6554 11.101 34.1968 10.801 34.1458 10.349C34.0825 9.89696 34.4269 9.3117 36.1051 8.1285C37.4015 7.43646 32.7312 8.96872 30.9639 9.39851C28.1951 9.91641 28.2304 9.39812 28.4258 8.61551C28.6335 7.84228 28.9277 7.03107 26.8636 7.49953C25.4921 7.90918 25.0344 7.89185 24.6753 7.77056C24.3162 7.65869 24.0558 7.47112 23.1044 7.7569C22.1664 8.37238 21.2284 8.98787 20.3028 9.59388C20.7546 11.5709 22.2922 12.7529 26.0674 13.5977C26.179 13.6633 23.474 14.8122 23.5731 14.859C24.4512 14.8184 23.1422 15.4445 21.7342 16.0616L21.2031 16.2989L20.8203 16.4886C20.5733 16.6118 20.3387 16.7351 20.1535 16.8393C19.7708 17.0573 19.5735 17.237 19.747 17.3306C20.4534 17.7616 21.1104 18.1929 21.7679 18.7748C21.9786 18.9154 24.8227 18.7082 25.0831 18.9146C25.6042 19.3934 27.5473 19.7544 28.3283 20.2982C29.1217 20.8326 28.5056 21.5695 24.4261 22.1954C21.9906 22.5426 20.8905 22.7723 20.6068 22.9899C20.3107 23.217 20.8062 23.4415 21.611 23.7026C22.4282 23.9637 23.4682 24.2712 24.2237 24.589C24.9669 24.9069 25.4874 25.2255 25.08 25.453C25.0559 25.6415 23.9182 25.7206 22.5949 25.7438C21.2714 25.7482 19.7626 25.8097 18.9954 25.6803C18.154 25.5983 19.2183 25.7832 21.3724 26.3508C24.9493 27.0739 29.9862 27.9523 34.9741 28.9344C34.9001 29.0195 34.8511 29.1421 34.8143 29.2553Z" fill="#EEDCD4"/>
<path opacity="0.8" d="M38.539 29.7424C38.7735 29.5815 39.008 29.43 39.2425 29.2691C38.6969 28.8563 38.3493 28.4618 38.138 28.1704C37.9022 27.9262 37.8396 27.7003 37.9627 27.5021C38.1963 27.1056 39.1477 26.7916 40.6805 26.5227C39.5289 26.1026 39.4538 25.839 41.5315 25.7662C42.0509 25.7456 42.5208 25.7252 42.9784 25.7049C43.0511 25.2524 42.0228 24.7471 41.0565 24.2792C40.1026 23.8113 39.3096 23.3711 39.8152 22.9172C39.7526 22.6913 44.2913 22.5162 44.2537 22.375C42.6071 21.8811 41.01 21.4153 37.7932 21.1244C36.135 20.9038 42.1067 20.1775 41.9817 19.7822C43.2774 18.8546 43.9298 17.9292 44.5326 16.938C44.9995 15.9943 45.3549 14.9945 45.5372 14.014C45.3632 13.7508 43.5943 13.6907 43.4203 13.4463C43.8137 12.7102 43.0332 12.3453 41.9193 12.1041C40.7929 11.8722 39.333 11.7357 38.0954 11.5231C36.7586 11.2072 37.337 10.3197 37.7545 9.4139C38.2091 8.50795 38.6262 7.46081 37.1041 7.23031C36.2017 7.39345 37.0036 6.75957 37.793 6.08806C38.5824 5.41654 39.3593 4.72622 38.4447 4.91766C36.3427 5.13188 35.3896 4.91833 34.77 4.57179C34.1505 4.25352 33.8891 3.74563 33.2572 3.40855C32.9722 3.25875 31.3543 3.96127 31.0818 3.84911C29.8706 4.12633 29.9556 3.64557 29.6455 3.39221L25.2025 6.34633L23.0797 7.71943C24.0311 7.43365 24.2915 7.62121 24.6505 7.73308C25.0096 7.85437 25.4549 7.87175 26.8389 7.46206C28.9029 6.98418 28.6087 7.8048 28.401 8.57803C28.2057 9.36064 28.1579 9.87897 30.9392 9.36104C32.7189 8.9312 37.3768 7.39899 36.0804 8.09102C34.4021 9.26481 34.0577 9.85949 34.1211 10.3115C34.172 10.7636 34.6307 11.0635 34.2988 11.6864C33.151 12.4345 25.6011 14.664 25.787 14.7953C28.1892 15.5882 32.3477 16.3847 34.4186 17.9983C36.5139 19.5176 36.4843 21.8071 30.7876 23.3898C29.3415 23.6961 36.9746 24.1985 35.5044 24.7121C33.9959 24.8584 30.9904 24.8777 30.9907 24.9625C30.7566 25.2177 30.5719 25.4726 30.5356 25.7366C30.4623 26.0006 30.5498 26.283 30.9095 26.5927C31.2569 26.9213 31.9506 27.2205 32.9169 27.7072C33.8957 28.1938 35.2581 28.7735 37.0912 29.54C38.0193 29.6876 38.539 29.7424 38.539 29.7424Z" fill="#F4E7E1"/>
<path opacity="0.8" d="M19.8877 26.0542C18.3031 25.6261 17.053 25.3664 16.1496 25.228C15.6917 25.1542 15.3206 25.1177 15.036 25.0998C14.7514 25.0537 14.5407 24.9225 14.4044 24.857C13.8715 24.5384 14.576 24.3853 16.0967 24.173C18.3471 23.9866 16.7374 23.4549 15.7344 23.0814C14.657 22.6798 14.2233 22.4457 18.2532 21.7729C19.4152 21.5712 18.1533 21.4718 16.8792 21.4289C15.6174 21.3765 14.43 21.3616 15.6534 21.0278C14.3673 21.1263 12.1666 21.3879 15.6405 20.8771C15.1823 20.7184 15.1445 20.5019 15.292 20.2282C15.4149 19.9734 15.7231 19.6709 16.0065 19.3496C16.3517 19.0093 16.3384 18.7362 16.1892 18.4917C16.0153 18.2662 15.6684 18.0977 15.3339 17.9198C14.987 17.7608 14.6155 17.6301 14.3923 17.433C14.1443 17.2548 14.0076 17.0574 14.0683 16.7181C13.9688 16.5394 13.9681 16.351 13.9797 16.106C13.9912 15.8516 14.0028 15.616 13.9403 15.4089C13.8275 14.9477 13.3938 14.7324 12.3554 14.9054C8.60385 17.471 5.82722 19.3833 6.04979 19.3637C5.74163 19.685 5.49515 19.9591 5.34742 20.1668C5.19962 20.3557 5.12587 20.4973 5.13855 20.5915C5.17622 20.7609 5.55967 20.7691 6.11622 20.7578C7.61141 20.3289 8.6129 20.2126 8.2305 20.5247C7.8348 20.5543 7.20435 20.66 6.40108 20.8699C6.89589 20.8871 7.52668 20.8851 7.98469 20.9966C8.02173 20.9776 8.0588 20.9681 8.09585 20.9491C8.17018 20.9866 8.23215 21.024 8.26941 21.071C9.13496 20.9928 8.54232 21.3151 8.073 21.5239C8.01134 21.5806 7.86323 21.6753 7.70278 21.7795C7.78933 21.7698 9.12539 21.8407 6.92498 22.206C6.8756 22.2344 6.83856 22.2534 6.85096 22.2628C6.25814 22.5285 4.89849 22.8063 3.53842 22.9521C4.23112 22.9686 4.52829 23.0618 2.66076 23.1057C-0.282854 23.1437 0.805501 23.1213 0.0756945 23.1048C0.224147 23.1138 0.360234 23.1227 0.521087 23.141C2.50058 23.2947 4.17103 23.4964 5.24768 23.6719C5.77981 23.7549 6.17588 23.8384 6.374 23.9037C6.47304 23.9316 6.53497 23.9597 6.54741 23.9785C6.55977 23.9784 6.53459 23.8466 6.46013 23.7715C7.3506 23.7497 8.35255 23.7747 9.45369 23.8747C11.458 24.0565 14.6145 24.8092 18.1177 25.6832C18.6251 25.7757 19.2193 25.9057 19.8877 26.0542Z" fill="#E6CABE"/>
</svg>
