<svg width="69" height="41" viewBox="0 0 69 41" fill="none" xmlns="http://www.w3.org/2000/svg">
<path opacity="0.8" d="M17.0325 7.10083C19.6979 8.93394 23.5396 11.2615 18.6557 9.92388C17.1319 9.51878 14.8494 8.82875 12.6068 8.15083C11.549 8.46965 10.5673 8.8254 9.67526 9.22212C10.3742 9.84989 9.73095 9.90534 8.58639 9.73982C5.30621 11.386 3.24798 13.5682 2.07393 16.2953C2.01059 16.4566 3.4629 18.0618 6.5299 19.5304L8.75777 20.787L10.2066 21.3916C10.4532 21.2024 11.165 21.2093 10.3955 20.5741C10.4589 20.4127 8.97038 19.6018 9.03372 19.4405C9.34069 18.7142 11.1859 18.7305 8.39896 16.6247C6.9374 15.7247 13.3745 17.9483 11.913 17.0484C10.7545 15.4348 17.3719 17.2548 16.1771 15.7135C14.9189 14.3336 12.0053 12.5504 13.8774 12.4777C13.9407 12.3164 12.4792 11.4164 12.5559 11.2591C14.568 10.8678 16.5802 10.4765 20.167 10.7556C20.2706 10.5093 26.6311 12.8902 25.1695 11.9902C22.1792 10.3643 20.754 9.39204 19.3194 8.40302C19.3597 8.31801 24.0916 10.2066 24.1549 10.0453C25.6302 9.93596 21.5177 7.54044 21.851 7.01644C21.3743 6.85845 20.9243 6.70853 20.5143 6.57072C19.2736 6.72321 18.1264 6.90395 17.0325 7.10083Z" fill="#F8F0ED"/>
<path opacity="0.8" d="M45.4197 13.5305C47.6955 14.6766 48.7435 15.3543 47.7609 15.2794C45.9924 15.1058 41.1166 13.5485 40.9535 13.9435C38.9049 14.407 50.8756 20.9274 39.436 17.4692C29.5847 14.5883 35.335 18.409 34.8247 19.6153C34.7211 19.8617 37.7114 21.4876 37.6116 21.7212C37.2682 22.5198 36.9613 23.2461 36.6409 23.9683C36.3973 24.5333 28.5351 21.3374 29.8335 22.6324C29.7933 22.7174 26.6034 21.5587 26.5632 21.6437C27.2712 24.1207 25.0451 25.4608 21.3703 26.0991C24.7922 27.5501 28.1284 28.9474 31.1997 30.209C30.9191 28.5832 36.4016 29.3381 38.2941 28.7163C42.1151 28.4137 39.6715 25.5092 43.4925 25.2066C45.1531 25.0144 46.8196 24.7546 46.5471 23.7282C45.9885 23.5038 45.3175 23.2177 44.5034 22.8744C45.3405 23.1414 45.9546 23.327 46.4295 23.4428C46.4009 23.3925 46.3724 23.3422 46.3439 23.292C46.0333 23.1148 45.9152 23.0235 46.2489 23.1244C46.2907 23.1787 46.3059 23.225 46.3439 23.292C46.4564 23.3537 46.605 23.4403 46.7842 23.5222C50.0991 24.2189 42.4314 20.235 45.3072 21.0349C55.2219 23.7545 44.9161 17.6542 50.0586 18.5701C53.7827 18.8769 53.6422 17.7515 47.0328 14.0736C46.4989 13.9122 45.9726 13.7254 45.4197 13.5305Z" fill="#EBD5CC"/>
<path opacity="0.8" d="M30.8001 7.48829C29.8315 7.12608 28.9964 6.80421 28.3406 6.56429C36.4943 10.8201 35.7022 11.7052 34.3138 12.2017C34.2736 12.2867 31.0837 11.1281 29.4419 10.6318C27.6964 10.3818 35.4225 13.8835 33.7268 13.5653C19.995 11.1356 28.1717 17.8696 28.5359 21.3394C28.4725 21.5007 20.7101 18.0712 19.0451 17.6512C17.1999 17.6348 18.5214 18.8534 13.5861 17.4448C11.9846 16.8634 16.5764 19.0707 18.0514 19.9747C22.3632 22.8192 14.194 20.3496 16.9407 22.5405C19.0536 23.9844 16.8733 23.6307 18.0425 24.6784C19.1521 25.1526 20.2616 25.6268 21.3711 26.1011C25.0497 25.45 27.272 24.1226 26.564 21.6457C26.6042 21.5607 29.7941 22.7193 29.8343 22.6343C28.8386 21.6391 36.3425 24.6711 36.6418 23.9703C36.9526 23.2312 37.2652 22.5344 37.6125 21.7231C37.7161 21.4768 34.7257 19.8509 34.8255 19.6172C35.3492 18.415 29.5989 14.5942 39.4369 17.4711C50.8764 20.9293 38.9057 14.409 40.9543 13.9454C41.1346 13.5418 45.9932 15.1077 47.7617 15.2814C48.7443 15.3563 47.6963 14.6785 45.4205 13.5324C41.4852 12.0928 36.0918 9.93483 30.7252 7.68777C30.7406 7.63689 30.7637 7.56058 30.8001 7.48829Z" fill="#EEDCD4"/>
<path opacity="0.8" d="M26.8227 5.99262C26.5994 6.00841 26.3761 6.02419 26.1528 6.03999C28.6334 7.76169 27.8558 8.16526 24.4839 7.36805C25.6081 8.08275 25.6133 8.30645 23.3843 7.53545C22.8314 7.34053 22.328 7.17446 21.8418 6.99972C21.5086 7.52372 25.6211 9.91924 24.1458 10.0286C24.0824 10.1899 19.3505 8.30129 19.3102 8.3863C20.7354 9.35856 22.1739 10.3349 25.1603 11.9735C26.6219 12.8734 20.2615 10.4925 20.1578 10.7389C16.5805 10.4765 14.5684 10.8678 12.5467 11.2424C12.4833 11.4037 13.9449 12.3037 13.8682 12.461C11.9961 12.5336 14.9097 14.3168 16.1679 15.6968C17.3494 17.234 10.7453 15.4181 11.9038 17.0316C13.3653 17.9316 6.92822 15.708 8.38978 16.608C11.1767 18.7138 9.32766 18.7102 9.02453 19.4237C8.96119 19.5851 10.4497 20.396 10.3863 20.5573C11.1425 21.1885 10.4441 21.1856 10.1975 21.3749L15.5373 23.6138C16.3608 23.9739 17.2016 24.3252 18.0384 24.6893C16.8692 23.6416 19.0361 23.9913 16.9366 22.5514C14.1765 20.3565 22.3591 22.8301 18.0473 19.9856C16.5857 19.0856 11.99 16.8911 13.5821 17.4557C18.5173 18.8643 17.1958 17.6457 19.041 17.6621C20.7098 18.0694 28.4685 21.5116 28.5318 21.3503C28.1809 17.8845 19.9909 11.1466 33.7227 13.5762C35.4279 13.9112 27.7057 10.3967 29.4378 10.6427C31.0663 11.135 34.2733 12.2849 34.3097 12.2126C35.702 11.7034 36.4902 10.831 28.3365 6.57518C27.3718 6.20025 26.8227 5.99262 26.8227 5.99262Z" fill="#F4E7E1"/>
<path opacity="0.8" d="M46.9998 14.0907C53.6092 17.7686 53.7497 18.894 50.0256 18.5872C44.8831 17.6713 55.1889 23.7716 45.2742 21.052C42.3945 20.2648 50.0661 24.236 46.7512 23.5393C48.1121 24.2423 50.5596 25.3987 46.5313 23.7367C46.8037 24.7631 45.1373 25.0228 43.4767 25.215C39.6557 25.5176 42.0993 28.4221 38.2783 28.7247C36.403 29.3379 30.9033 28.5916 31.1839 30.2174C40.1747 33.921 46.943 36.4947 47.1138 36.0743C52.6545 36.4442 53.11 34.9854 52.8717 33.2196C51.1497 31.88 50.3848 30.9407 51.4271 30.7699C51.7047 31.2009 52.3178 31.7749 53.1902 32.4552C53.0814 31.6587 52.8429 30.8091 52.8485 30.0195C52.7646 30.008 52.734 30.0127 52.6501 30.0012C52.7001 29.8358 52.7634 29.6745 52.8668 29.5252C52.153 28.7541 53.2579 28.7133 54.1531 28.5952C54.3556 28.5037 54.6975 28.3849 55.0565 28.2575C54.99 28.1402 54.0522 26.8571 56.7257 27.6514C56.8288 27.5993 56.911 27.5686 56.9187 27.5432C58.0702 27.1555 59.9709 27.1331 61.7876 27.0992C61.2262 26.4019 61.13 25.9008 63.3045 26.3221C66.6784 27.0644 65.8877 25.7286 66.6693 26.0343C66.7214 25.8141 66.6571 25.5447 66.4632 25.2223C62.5471 22.9001 59.954 21.1166 60.987 20.8319C60.1429 20.2991 59.1863 19.7045 58.1096 19.0736C56.1582 17.9145 52.7937 16.3698 48.9772 14.7301C48.4127 14.5734 47.753 14.3462 46.9998 14.0907Z" fill="#E6CABE"/>
</svg>
