<svg width="126" height="36" viewBox="0 0 126 36" fill="none" xmlns="http://www.w3.org/2000/svg">
<path opacity="0.8" d="M104.713 8.47022C98.5675 9.75478 89.9445 11.2186 99.7751 11.3165C102.844 11.3692 107.492 11.323 112.061 11.313C113.785 12.0738 115.319 12.8484 116.689 13.6349C114.975 14.1407 116.118 14.4397 118.321 14.6314C123.173 17.777 125.441 21.14 125.711 24.8614C125.726 25.0741 121.944 26.5082 115.345 27.1995L110.418 27.9378L107.37 28.1584C107.046 27.8459 105.742 27.6043 107.594 27.1039C107.579 26.8912 110.883 26.423 110.868 26.2104C110.796 25.2231 107.413 24.5976 113.976 23.0233C117.245 22.4508 103.976 22.8613 107.247 22.3039C110.473 20.7573 97.1375 20.623 100.372 19.1827C103.621 17.955 110.189 16.8232 106.796 16.0762C106.781 15.8636 110.078 15.2891 110.062 15.0764C106.639 13.9041 103.242 12.7146 96.4978 11.7827C96.4736 11.4485 83.194 12.0888 86.4907 11.5143C93.0735 10.5952 96.3626 9.91433 99.6528 9.2487C99.6451 9.14237 89.7018 9.75504 89.6853 9.5272C87.0661 8.87694 96.2368 7.4193 95.9913 6.67361C96.9745 6.64827 97.9033 6.62686 98.7494 6.59617C100.873 7.20594 102.862 7.84075 104.713 8.47022Z" fill="#F8F0ED"/>
<path opacity="0.8" d="M48.4014 6.22651C43.4365 6.81483 41.0608 7.2616 42.9132 7.52454C46.2814 7.93738 56.2567 7.7652 56.2962 8.31203C59.7282 9.60585 33.3414 13.2713 56.6436 13.1119C76.6443 13.0846 63.5064 15.6844 63.6251 17.3249C63.6493 17.659 57.0382 18.565 57.0624 18.8992C57.1415 19.9928 57.213 20.9801 57.2833 21.9523C57.3383 22.7118 73.9246 21.6336 70.6663 22.7398C70.674 22.8461 77.3324 22.5933 77.3401 22.6996C74.3377 25.4516 77.4939 27.8495 83.7738 29.9297C76.508 30.486 69.4578 30.9962 62.9498 31.4366C64.5938 29.577 54.0113 28.541 51.0094 27.1397C44.2364 25.4311 50.6928 22.7651 43.9209 21.0717C41.0163 20.2588 38.1595 19.3509 39.363 18.2103C40.5335 18.1256 41.9491 18.0231 43.6912 17.8971C41.9969 17.9281 40.7381 17.9275 39.7788 17.9053C39.8572 17.8539 39.9356 17.8024 40.0411 17.7489C40.7184 17.6541 40.9873 17.5888 40.3307 17.5906C40.1979 17.646 40.1467 17.6955 40.0411 17.7489C39.77 17.7838 39.4456 17.8378 39.0928 17.8786C32.556 17.5424 49.3147 15.444 43.5098 15.3908C23.4926 15.1903 46.5626 11.4442 36.4964 10.7373C29.4779 9.79467 30.5049 8.48355 45.1272 6.35656C46.1377 6.32925 47.2287 6.28083 48.4014 6.22651Z" fill="#EBD5CC"/>
<path opacity="0.8" d="M79.2755 4.08248C81.3204 3.98031 83.0658 3.89981 84.4018 3.83367C66.5619 6.11715 67.3969 7.44622 69.6114 8.5533C69.6191 8.65963 76.2775 8.40683 79.5866 8.38113C82.9471 8.68764 66.3938 10.2214 69.7455 10.4064C96.5357 12.3156 76.9403 17.5661 73.8963 21.6342C73.9117 21.8469 90.4738 20.4346 93.7918 20.5304C97.1754 21.1559 93.9105 22.1709 103.928 22.2094C107.257 22.0754 97.3183 23.1306 94.0204 23.6899C84.1716 25.6088 100.828 25.5028 94.2732 27.1835C89.4207 28.1912 93.6317 28.5278 90.7663 29.3917C88.3992 29.5783 86.0582 29.7477 83.7183 29.9323C77.4383 27.852 74.3094 25.4522 77.2846 22.7022C77.2769 22.5959 70.6185 22.8487 70.6108 22.7423C73.1212 21.8888 57.297 22.9118 57.2278 21.9549C57.1552 20.9523 57.0871 20.0106 57.0069 18.9018C56.9827 18.5676 63.5938 17.6616 63.5696 17.3275C63.4509 15.687 76.5888 13.0872 56.5881 13.1145C33.2848 13.2587 59.6716 9.59325 56.2407 8.31461C56.2011 7.76779 46.226 7.93996 42.8577 7.52713C41.0054 7.26418 43.381 6.81742 48.3459 6.2291C56.5298 5.88117 67.8886 5.16607 79.267 4.34267C79.2898 4.27995 79.2821 4.17362 79.2755 4.08248Z" fill="#EEDCD4"/>
<path opacity="0.8" d="M87.5937 3.67995C87.9836 3.77388 88.3735 3.86782 88.7634 3.96176C83.0497 5.16923 84.199 5.92586 90.9198 6.15716C88.3547 6.6329 88.21 6.90294 92.7963 6.75428C93.9429 6.71711 94.9806 6.68783 95.9911 6.66051C96.2366 7.4062 87.0648 8.84865 89.6851 9.5141C89.7005 9.72675 99.6449 9.12928 99.6526 9.2356C96.3635 9.91642 93.0744 10.5972 86.4905 11.5012C83.1938 12.0757 96.4734 11.4354 96.4976 11.7696C103.242 12.7015 106.639 13.891 110.062 15.0633C110.077 15.276 106.781 15.8505 106.796 16.0631C110.188 16.8101 103.594 17.9439 100.371 19.1696C97.1373 20.6099 110.473 20.7442 107.247 22.2908C103.95 22.8653 117.246 22.4529 113.975 23.0102C107.413 24.5845 110.796 25.21 110.868 26.1973C110.883 26.4099 107.579 26.8781 107.594 27.0908C105.769 27.5893 107.046 27.8328 107.369 28.1453L96.0726 28.9628C94.3044 29.106 92.535 29.2341 90.7668 29.3773C93.6321 28.5134 89.4211 28.1768 94.2736 27.1691C100.829 25.4885 84.172 25.5944 94.0208 23.6755C97.3176 23.101 107.23 22.063 103.929 22.195C93.9109 22.1565 97.1758 21.1415 93.7922 20.516C90.4743 20.4202 73.9133 21.8477 73.8968 21.6199C76.9407 17.5518 96.5361 12.3012 69.7459 10.392C66.3931 10.1919 82.9475 8.67325 79.587 8.36675C76.2507 8.39442 69.6195 8.64524 69.6118 8.53892C67.3974 7.43183 66.5896 6.10079 84.4023 3.81928C86.421 3.73427 87.5937 3.67995 87.5937 3.67995Z" fill="#F4E7E1"/>
<path opacity="0.8" d="M23.6238 21.9264C23.4252 21.4522 22.9814 20.9957 22.1824 20.5496C22.1802 20.5192 22.0658 20.4512 21.9219 20.3547C23.4607 20.8083 25.4637 21.2436 23.6238 21.9264Z" fill="#E6CABE"/>
<path opacity="0.8" d="M45.0993 6.35608C30.4769 8.48307 29.4499 9.79419 36.4684 10.7369C46.5063 11.4305 23.4646 15.1898 43.4819 15.3903C49.2868 15.4436 32.5291 17.5571 39.0648 17.8781C36.0815 18.2467 30.8117 18.7808 39.334 18.1946C38.1305 19.3353 40.9872 20.2432 43.8919 21.056C50.6648 22.7646 44.2084 25.4306 50.9803 27.124C53.9834 28.5405 64.5648 29.5613 62.9207 31.4209C43.915 32.7199 29.7937 33.4517 29.753 32.8897C19.3553 31.3823 19.5446 29.46 21.2026 27.4161C25.2886 26.4027 27.3329 25.5372 25.513 24.9665C24.7227 25.3901 23.1975 25.867 21.1279 26.3832C21.8819 25.4583 22.908 24.5137 23.4409 23.559C23.5793 23.5795 23.662 23.5888 23.8003 23.6093C23.8122 23.3947 23.8229 23.1649 23.7258 22.9581C25.5645 22.2754 23.5617 21.8248 22.0239 21.3712C21.7102 21.1954 21.1982 20.927 20.6035 20.6494C20.8136 20.5273 23.4065 19.3014 17.9631 19.3288C17.7921 19.2343 17.6766 19.1511 17.6744 19.1207C15.8325 18.2462 12.389 17.5487 9.08263 16.8566C10.5685 16.2146 11.1278 15.6245 6.86903 15.383C0.172162 15.1041 2.53741 13.7572 0.903056 13.8602C0.964932 13.5809 1.27178 13.2839 1.84976 12.9519C10.6122 11.5238 16.597 10.2815 14.8772 9.58141C16.7944 9.2289 18.9567 8.85866 21.364 8.47069C25.718 7.75861 32.9467 7.06755 41.0552 6.43496C42.1778 6.44534 43.5433 6.4076 45.0993 6.35608Z" fill="#E6CABE"/>
</svg>
