<svg width="51" height="32" viewBox="0 0 51 32" fill="none" xmlns="http://www.w3.org/2000/svg">
<path opacity="0.8" d="M23.1972 0.76048C23.1243 2.8067 22.3863 5.28409 25.5024 3.94674C26.5047 3.5448 27.8987 2.84324 29.2928 2.19283C30.8418 2.66785 32.3634 3.20133 33.8212 3.81519C33.9305 4.52406 34.6686 4.67753 35.6435 4.61907C41.2562 7.24261 46.0944 10.8893 50.067 15.4348C50.3221 15.6979 50.4223 17.7076 48.7823 18.9353L47.7709 20.1192L46.9144 20.565C46.5044 20.2142 45.8301 20.0169 45.985 19.308C45.7755 19.0522 46.4771 18.2922 46.2584 18.0364C45.247 16.8818 43.4794 16.436 44.0534 14.1194C44.5728 13.184 40.4726 14.799 40.9919 13.8928C40.7095 12.8916 39.3792 12.6724 38.0854 12.497C36.8007 12.307 35.5251 12.1901 35.2517 11.2839C34.9419 9.69808 35.7164 7.7834 33.7028 7.44724C33.4294 7.23531 33.7939 6.27797 33.5205 6.05873C30.9511 5.31332 28.3543 4.6483 25.0924 4.80907C24.6551 4.52406 21.4569 7.02338 21.7394 6.06604C22.5594 4.31944 22.6505 3.25979 22.7234 2.18553C22.5776 2.09052 20.4273 4.13674 20.1449 3.96866C18.5321 3.88097 19.2884 1.25011 18.1586 0.716631C18.4046 0.533933 18.6415 0.365853 18.8601 0.205078C20.3453 0.322005 21.7758 0.533934 23.1972 0.76048Z" fill="#F8F0ED"/>
<path opacity="0.8" d="M4.71003 8.93006C4.14512 10.209 4.05401 10.9178 4.81938 10.7132C6.14965 10.3113 8.5642 8.39658 9.24756 8.73275C10.4776 8.84968 10.3956 10.6694 10.6781 11.9263C10.9787 13.1833 11.6621 13.8702 14.9058 11.9555C17.7668 10.3478 19.0424 10.6182 19.7804 11.4001C20.5093 12.1967 20.7007 13.5048 21.5845 14.1698C21.949 14.4402 20.9011 16.0772 21.2291 16.3403C22.3681 17.2173 23.3612 18.0357 24.3362 18.8615C25.0651 19.5046 29.3019 16.618 29.3657 18.0138C29.475 18.1161 31.3702 17.1515 31.4796 17.2538C33.2381 20.1916 36.3907 22.2378 40.3086 24.0794C38.2858 25.161 36.2995 26.1841 34.4499 27.1049C33.9852 26.1256 32.6641 25.5629 31.1789 25.1829C29.7119 24.781 28.0719 24.5617 27.0058 24.0794C25.1835 23.6702 24.2268 22.7494 23.2246 21.8359C22.7143 21.3901 22.2041 20.937 21.5936 20.5716C20.9649 20.2135 20.2451 19.9285 19.334 19.8189C18.4957 19.6946 17.6574 19.5631 16.9376 19.3366C16.2087 19.1173 15.5891 18.8104 15.2156 18.2988C15.4798 18.065 15.7987 17.78 16.1905 17.4365C15.7258 17.7069 15.3522 17.8969 15.0516 18.0211L14.9787 17.875C15.0789 17.6996 15.088 17.6119 14.9058 17.7142C14.924 17.7727 14.9604 17.8165 14.9787 17.875C14.9422 17.9407 14.8876 18.0211 14.8238 18.1088C13.7031 18.4815 13.858 17.6703 14.0402 16.8519C14.2315 16.0334 14.4411 15.2295 13.5846 15.6607C10.6325 17.1588 9.87625 16.428 9.32956 15.3976C8.78287 14.3964 8.44574 13.1029 6.72367 13.7971C3.85356 14.4768 2.82395 13.6364 4.02667 9.63162C4.24534 9.41239 4.47313 9.17853 4.71003 8.93006Z" fill="#EBD5CC"/>
<path opacity="0.8" d="M10.0225 1.81979C10.4325 1.38131 10.7787 1.0013 11.0521 0.708984C10.2229 3.10599 10.2594 4.45795 10.7423 5.28375C11.2343 6.09493 12.2001 6.37263 13.1842 6.56994C13.3208 6.64302 14.8516 5.32029 15.7718 4.75027C17.1294 4.42872 14.3231 8.29462 15.5076 7.87807C20.4916 6.38725 23.3708 7.68075 25.1749 9.71966C27.0063 11.7805 27.7534 14.5941 29.3115 16.633C29.5393 16.8376 33.4208 13.644 34.6144 13.3736C36.4184 13.6659 36.3911 15.0033 39.7897 14.119C40.7646 13.6733 38.5414 15.7195 38.013 16.6037C37.3478 18.0507 38.3227 18.3723 39.4617 18.65C40.6006 18.9203 41.8216 19.1834 41.4935 20.3454C40.7646 21.7924 42.4958 21.8874 42.2771 23.0274C41.6211 23.3782 40.9651 23.7363 40.3182 24.0871C36.4002 22.2455 33.2476 20.2065 31.4891 17.2614C31.3798 17.1518 29.4846 18.1165 29.3753 18.0215C29.3297 16.9399 25.266 19.6804 24.3457 18.8692C23.3526 18.0288 22.3959 17.2395 21.2387 16.348C20.9107 16.0849 21.9585 14.4406 21.5941 14.1775C20.7102 13.5125 20.5189 12.2117 19.79 11.4078C19.052 10.6258 17.7763 10.3628 14.9153 11.9632C11.6716 13.8852 10.9883 13.1982 10.6876 11.934C10.4143 10.6697 10.4872 8.85733 9.25711 8.7404C8.57375 8.40423 6.15921 10.3189 4.82893 10.7208C4.06357 10.9255 4.14558 10.2166 4.7196 8.93771C6.37789 7.1765 8.44619 4.61142 10.3687 1.98787C10.2867 1.93672 10.15 1.87825 10.0225 1.81979Z" fill="#EEDCD4"/>
<path opacity="0.8" d="M11.6983 0.0219257C11.9352 0.0146178 12.1813 0.00730793 12.4182 0C12.5457 1.85621 13.8213 2.17776 16.0536 1.19119C15.9716 1.98045 16.2814 2.19969 17.393 1.32274C17.6755 1.1035 17.9215 0.906183 18.1675 0.716177C19.2973 1.24966 18.532 3.88051 20.1538 3.96821C20.4363 4.1436 22.5775 2.09738 22.7323 2.18507C22.6503 3.25934 22.5683 4.31899 21.7483 6.06558C21.4659 7.02292 24.664 4.52361 25.1013 4.80862C28.3633 4.64785 30.96 5.31287 33.5295 6.05828C33.8119 6.27751 33.4475 7.23485 33.7117 7.44678C35.7162 7.78295 34.9417 9.70493 35.2606 11.2834C35.534 12.1896 36.8187 12.3066 38.0943 12.4966C39.379 12.672 40.7184 12.8912 41.0009 13.8924C40.4815 14.7986 44.5817 13.1835 44.0623 14.1189C43.4883 16.4355 45.2559 16.8813 46.2673 18.036C46.4951 18.2917 45.7844 19.0518 45.994 19.3076C45.83 20.0164 46.5042 20.2137 46.9233 20.5645L43.7434 22.2088L42.2765 23.0127C42.4952 21.8726 40.764 21.7776 41.4929 20.3307C41.8118 19.1687 40.5909 18.9056 39.461 18.6352C38.3221 18.3575 37.3472 18.036 38.0123 16.589C38.5408 15.6974 40.764 13.6585 39.789 14.1043C36.3905 14.9886 36.4178 13.6512 34.6137 13.3589C33.4292 13.6293 29.5477 16.8155 29.3108 16.6182C27.7528 14.5793 27.0148 11.7658 25.1742 9.70493C23.3793 7.65871 20.4909 6.36521 15.507 7.86333C14.3316 8.27989 17.1379 4.41399 15.7712 4.73554C14.8509 5.31287 13.3202 6.62829 13.1835 6.55521C12.1904 6.3579 11.2337 6.0802 10.7416 5.26902C10.2587 4.44322 10.2223 3.09126 11.0514 0.694254C11.4615 0.277702 11.6983 0.0219257 11.6983 0.0219257Z" fill="#F4E7E1"/>
<path opacity="0.8" d="M4.02696 9.63086C2.82424 13.6356 3.85385 14.476 6.72396 13.7964C8.44603 13.1021 8.78316 14.4029 9.32985 15.3968C9.87654 16.4272 10.6237 17.158 13.5849 15.6599C14.4414 15.2287 14.2318 16.0326 14.0405 16.8511C13.8583 17.6696 13.7034 18.4808 14.8241 18.1081C14.3229 18.8169 13.2933 19.9789 15.2159 18.2981C15.5894 18.8096 16.1999 19.1166 16.9379 19.3358C17.6577 19.5623 18.496 19.6939 19.3343 19.8181C20.2454 19.935 20.9743 20.2127 21.5939 20.5708C22.2044 20.9362 22.7146 21.3893 23.2249 21.8351C24.2271 22.7486 25.1838 23.6621 27.0061 24.0786C28.0722 24.561 29.7122 24.7802 31.1792 25.1821C32.6643 25.5621 33.9855 26.1176 34.4502 27.1041C29.038 29.7861 24.874 31.6058 24.4822 31.1308C20.0632 30.78 18.824 29.3623 17.7671 27.5938C18.25 26.3441 18.1862 25.4087 17.1566 25.2187C17.2568 25.6352 17.1839 26.176 16.9379 26.8191C16.4368 26.0445 15.9994 25.1968 15.3434 24.444C15.3981 24.4367 15.4437 24.444 15.4983 24.4367C15.3161 24.276 15.1339 24.1152 14.9243 23.969C14.897 23.209 13.8947 23.1871 13.0564 23.0921C12.8195 23.0117 12.4277 22.9021 11.9995 22.7998C11.9448 22.6901 11.6168 21.4551 10.077 22.3174C9.94031 22.2809 9.84009 22.2517 9.81275 22.2297C8.51892 21.9447 6.9153 22.0763 5.41191 22.2224C5.23879 21.6013 4.84699 21.1628 3.48938 21.762C1.46663 22.7924 0.910835 21.6597 0.573711 22.0178C0.336815 21.8643 0.14547 21.6524 -0.00031662 21.382C0.910831 19.0142 1.13863 17.2311 0.00880432 17.1946C0.127254 16.6465 0.273029 16.0399 0.455257 15.3749C0.783272 14.1618 1.79465 12.386 3.0976 10.4713C3.38916 10.2374 3.69894 9.95241 4.02696 9.63086Z" fill="#E6CABE"/>
</svg>
