<svg width="82" height="35" viewBox="0 0 82 35" fill="none" xmlns="http://www.w3.org/2000/svg">
<path opacity="0.8" d="M13.3386 14.9413C17.3761 15.1351 22.9841 15.1113 16.8864 16.6794C14.9862 17.1838 12.089 17.8564 9.24502 18.5318C8.28284 19.4586 7.44147 20.3686 6.72092 21.262C7.87193 21.444 7.21074 21.8771 5.87372 22.3838C3.38437 25.8725 2.536 29.1439 2.99347 32.4452C3.02078 32.6423 5.61222 33.3178 9.8321 32.9239L13.0197 32.8236L14.9699 32.5534C15.1188 32.2314 15.889 31.8234 14.6531 31.6632C14.6258 31.4661 12.4942 31.5706 12.4669 31.3735C12.3467 30.5063 14.3445 29.436 9.99944 29.0538C7.8715 29.0574 16.2097 27.4098 14.0804 27.4035C11.8137 26.5324 20.085 24.402 17.8319 23.6294C15.6075 23.0638 11.333 23.0636 13.3184 21.9046C13.2911 21.7075 11.1459 21.7135 11.1186 21.5164C13.0508 19.973 14.9643 18.4222 19.0021 16.5871C18.9625 16.3013 27.3266 14.841 25.1814 14.847C20.9343 15.0438 18.7754 14.9512 16.6152 14.8488C16.6015 14.7503 22.8874 13.7788 22.8615 13.5915C24.38 12.6178 18.435 12.7485 18.4616 12.0518C17.8457 12.1773 17.2644 12.2981 16.7348 12.4116C15.4987 13.2659 14.3848 14.1133 13.3386 14.9413Z" fill="#F8F0ED"/>
<path opacity="0.8" d="M47.984 4.47517C51.1697 4.2346 52.7227 4.27051 51.6141 4.77567C49.5891 5.64887 43.3565 7.00469 43.4234 7.48757C41.5049 9.12945 58.5295 8.34725 44.0119 11.735C31.569 14.7348 40.1763 15.0286 40.377 16.4773C40.4166 16.7631 44.6824 16.5737 44.722 16.8595C44.8559 17.8253 44.976 18.6925 45.0976 19.5696C45.1918 20.2495 34.6934 21.7947 36.9068 22.2815C36.9205 22.38 32.7352 23.1508 32.7489 23.2493C35.0768 25.1967 33.5151 27.7634 29.9591 30.5362C34.57 29.9173 39.0401 29.2979 43.1623 28.7066C41.8274 27.3247 48.2364 24.8296 49.8678 23.1471C53.7941 20.6344 49.3325 19.284 53.2588 16.7713C54.9281 15.616 56.5533 14.3964 55.6138 13.5825C54.8716 13.6853 53.9755 13.8195 52.8709 13.9726C53.9301 13.7455 54.7131 13.5566 55.3048 13.3842C55.2476 13.352 55.1904 13.3197 55.1159 13.2899C54.6789 13.3102 54.4995 13.2849 54.9083 13.1881C55 13.2155 55.04 13.2502 55.1159 13.2899C55.2912 13.2857 55.4997 13.2668 55.7268 13.2554C59.7361 11.9767 48.9608 12.6663 52.5623 11.7454C64.9779 8.5485 50.002 8.75553 56.144 6.6188C60.3503 4.73021 59.4924 3.74423 50.0428 4.09948C49.4083 4.21754 48.7221 4.34277 47.984 4.47517Z" fill="#EBD5CC"/>
<path opacity="0.8" d="M28.4227 7.26631C27.1337 7.4851 26.0346 7.67758 25.1916 7.81448C36.6682 7.10804 36.3729 8.40446 35.181 9.7046C35.1947 9.80315 31.0094 10.5739 28.9484 11.0604C26.9097 11.8351 37.4601 10.6644 35.4091 11.3503C19.0672 17.0599 32.1347 18.6943 34.7087 21.7827C34.736 21.9798 24.1979 23.2392 22.1492 23.8144C20.1501 24.8748 22.3499 25.263 16.1274 26.8183C14.0354 27.2086 20.3918 26.6191 22.5384 26.623C28.9854 26.8144 18.6085 29.2366 22.9672 29.7174C26.153 29.8585 23.5916 30.796 25.5175 31.1116C27.0045 30.9257 28.5074 30.7275 29.9917 30.5218C33.5491 27.7589 35.0921 25.1847 32.7815 23.235C32.7678 23.1364 36.9531 22.3656 36.9394 22.2671C35.2338 21.8907 45.2489 20.4125 45.1301 19.5552C45.0072 18.6682 44.8912 17.8306 44.7546 16.8451C44.715 16.5593 40.4492 16.7487 40.4096 16.4629C40.2088 15.0142 31.603 14.7303 44.0445 11.7206C58.5621 8.33287 41.5374 9.11507 43.4559 7.47319C43.389 6.9903 49.6217 5.63449 51.6467 4.76128C52.7552 4.25613 51.2023 4.22022 48.0166 4.46078C42.8689 5.39506 35.6842 6.48104 28.47 7.48073C28.4459 7.43384 28.4349 7.35501 28.4227 7.26631Z" fill="#EEDCD4"/>
<path opacity="0.8" d="M23.1835 8.17276C22.9569 8.31465 22.7303 8.45653 22.5037 8.59841C26.2582 8.78123 25.6716 9.62586 21.5306 10.8425C23.2057 10.8715 23.3393 11.074 20.463 11.6433C19.7436 11.7832 19.0932 11.9135 18.4601 12.0414C18.4321 12.7282 24.3785 12.6073 22.8599 13.5811C22.8872 13.7782 16.6 14.7398 16.6137 14.8384C18.7725 14.9309 20.9314 15.0235 25.1799 14.8365C27.3251 14.8306 18.961 16.2909 19.0006 16.5767C14.9628 18.4118 13.0492 19.9626 11.1171 21.5059C11.1444 21.703 13.2896 21.697 13.3169 21.8941C11.3328 23.063 15.6073 23.0633 17.8331 23.6387C20.0862 24.4113 11.8149 26.5417 14.0816 27.4128C16.2268 27.4068 7.88861 29.0544 10.0179 29.0607C14.3629 29.4429 12.3639 30.5034 12.4854 31.3804C12.5127 31.5775 14.6442 31.473 14.6716 31.6701C15.8902 31.8327 15.1373 32.2383 14.9884 32.5603L22.1509 31.5678C23.2741 31.4222 24.3973 31.2766 25.5205 31.131C23.5946 30.8153 26.156 29.8778 22.9702 29.7367C18.6115 29.2559 28.9884 26.8337 22.5414 26.6423C20.3962 26.6483 14.0557 27.2256 16.1304 26.8376C22.3529 25.2823 20.1545 24.904 22.1522 23.8337C24.2009 23.2585 34.7376 21.9893 34.7117 21.802C32.1377 18.7136 19.0702 17.0793 35.4121 11.3697C37.4644 10.6936 26.9127 11.8544 28.9514 11.0797C31.0297 10.5909 35.1977 9.82248 35.184 9.72393C36.3759 8.4238 36.654 7.12977 25.1946 7.83382C23.9216 8.04036 23.1835 8.17276 23.1835 8.17276Z" fill="#F4E7E1"/>
<path opacity="0.8" d="M50.0577 4.08785C59.5073 3.7326 60.3665 4.72843 56.1589 6.60716C50.0328 8.73165 64.9928 8.53687 52.5772 11.7338C48.977 12.6645 59.7523 11.9749 55.7416 13.2438C57.6593 13.1187 61.0266 12.7927 55.6286 13.5708C56.5682 14.3848 54.943 15.6044 53.2737 16.7597C49.3474 19.2724 53.809 20.6228 49.8827 23.1355C48.2512 24.818 41.8436 27.3229 43.1771 28.695C55.2144 26.9567 64.119 25.4616 64.0494 24.959C70.2629 22.0691 69.8223 20.4126 68.4497 18.8853C65.7389 18.6181 64.3226 18.1716 65.3584 17.3953C65.9198 17.6389 66.9487 17.8278 68.3227 17.9688C67.6984 17.2719 66.9015 16.5989 66.4112 15.8532C66.3276 15.8849 66.28 15.9217 66.1964 15.9533C66.1532 15.7685 66.1086 15.5738 66.1331 15.3695C64.8739 15.0418 66.0456 14.3571 66.9265 13.7329C67.0918 13.5292 67.3656 13.22 67.6884 12.884C67.5367 12.8046 65.7197 12.1323 69.1092 11.3312C69.1991 11.2183 69.2586 11.1398 69.2545 11.1102C70.2548 10.0777 72.2788 8.94345 74.2193 7.84091C73.1872 7.50181 72.742 7.08139 75.3488 6.21795C79.4658 4.95443 77.7705 4.14477 78.8033 3.98157C78.7174 3.74237 78.4761 3.5247 78.0623 3.33094C72.3734 3.40613 68.4436 3.22751 69.3953 2.35237C68.144 2.33493 66.7373 2.33902 65.174 2.35477C62.3475 2.3949 57.7361 2.88324 52.5875 3.55651C51.8894 3.72355 51.0174 3.90465 50.0577 4.08785Z" fill="#E6CABE"/>
</svg>
