<svg width="66" height="39" viewBox="0 0 66 39" fill="none" xmlns="http://www.w3.org/2000/svg">
<path opacity="0.8" d="M25.1068 28.4373C22.5499 27.4813 21.3638 26.8766 22.4134 26.8485C24.3109 26.8433 29.6443 27.9721 29.7765 27.5315C31.8841 26.826 18.4164 21.2664 30.9311 23.684C41.6925 25.6784 35.144 22.281 35.5383 20.967C35.6162 20.7073 32.2439 19.3094 32.3218 19.0497C32.5839 18.1764 32.82 17.3896 33.0562 16.6028C33.2403 15.9891 41.9484 18.508 40.4193 17.2858C40.4453 17.1992 43.9758 18.07 44.0017 17.9835C42.9382 15.4687 45.1202 13.8421 48.9181 12.7862C45.1163 11.6282 41.424 10.5201 38.012 9.51334C38.5231 11.1762 32.6189 10.9653 30.7181 11.8101C26.7297 12.5172 29.6698 15.3035 25.679 16.0185C23.9507 16.3918 22.2321 16.8367 22.6495 17.8796C23.2649 18.0557 24.0063 18.2782 24.9187 18.552C24.0135 18.3576 23.3365 18.2316 22.8139 18.1605C22.8449 18.2127 22.8782 18.257 22.9234 18.3135C23.268 18.4598 23.3988 18.5419 23.0472 18.4707C22.9877 18.4099 22.971 18.362 22.9234 18.3135C22.7856 18.2549 22.6192 18.1879 22.4386 18.1165C18.8543 17.7356 27.4499 21.0955 24.3142 20.5662C13.4985 18.7528 25.161 24.0623 19.6031 23.6295C15.6349 23.6994 15.9243 24.8583 23.3677 28.0183C23.907 28.1373 24.4867 28.2769 25.1068 28.4373Z" fill="#EBD5CC"/>
<path opacity="0.8" d="M41.2972 33.208C42.3758 33.4974 43.3 33.7319 44.0057 33.9179C34.8611 30.316 35.579 29.3221 36.9932 28.6487C37.0192 28.5622 40.5497 29.433 42.329 29.7697C44.2005 29.851 35.5963 26.9859 37.4395 27.1616C52.2436 28.268 42.755 22.0842 41.9342 18.5015C41.9862 18.3284 50.6163 21.107 52.4193 21.365C54.3687 21.1867 52.8136 20.051 58.2132 21.011C59.9784 21.4464 54.8385 19.621 53.1796 18.8315C48.264 16.31 57.2082 18.0421 54.0201 16.0305C51.6098 14.7411 53.9469 14.8764 52.5773 13.8993C51.3393 13.5192 50.1157 13.1434 48.892 12.7676C45.0917 13.8314 42.924 15.4623 43.9756 17.9649C43.9496 18.0514 40.4192 17.1806 40.3932 17.2672C41.5704 18.2123 33.2615 15.8131 33.0301 16.5842C32.7892 17.3868 32.5625 18.1421 32.2957 19.0312C32.2178 19.2908 35.5901 20.6888 35.5122 20.9484C35.1179 22.2624 41.6688 25.652 30.905 23.6655C18.3903 21.2478 31.858 26.8075 29.7504 27.513C29.6182 27.9536 24.2847 26.8248 22.3873 26.83C21.34 26.8502 22.5261 27.4548 25.0807 28.4187C29.4166 29.5055 35.3851 31.2108 41.3443 32.9991C41.342 33.0585 41.3184 33.1372 41.2972 33.208Z" fill="#EEDCD4"/>
<path opacity="0.8" d="M45.6932 34.3558C45.9235 34.3134 46.1514 34.2789 46.3817 34.2365C43.5483 32.7001 44.3216 32.1945 47.9844 32.6762C46.6985 32.0416 46.6744 31.8114 49.1143 32.3806C49.7225 32.5288 50.2761 32.6521 50.813 32.7789C51.097 32.1951 46.4506 30.1232 47.9914 29.8566C48.0433 29.6835 53.2729 31.1585 53.2988 31.072C51.6634 30.2038 50.0304 29.3278 46.67 27.942C45.0087 27.1604 52.0318 28.9764 52.1097 28.7168C55.9283 28.6276 57.9956 28.0044 60.0749 27.3934C60.1269 27.2203 58.4679 26.4308 58.5198 26.2577C60.4952 25.9929 57.1749 24.4218 55.686 23.1173C54.2348 21.6355 61.4397 22.8456 60.0168 21.2694C58.3554 20.4878 65.4305 22.1307 63.7834 21.3534C60.567 19.4361 62.5164 19.2578 62.7525 18.471C62.8044 18.2979 61.1171 17.6029 61.1714 17.4219C60.2893 16.8398 61.0254 16.7691 61.2649 16.5408L55.3485 14.7653C54.4242 14.4794 53.4999 14.1934 52.5756 13.9075C53.9452 14.8845 51.6081 14.7493 54.0184 16.0386C57.2089 18.0424 48.2647 16.3103 53.1779 18.8397C54.8392 19.6213 59.9625 21.4503 58.2115 21.0192C52.8095 20.0671 54.3646 21.2027 52.4176 21.3732C50.6146 21.1152 41.9845 18.3366 41.9325 18.5097C42.7533 22.0923 52.2419 28.2761 37.4378 27.1698C35.5946 26.9941 44.1964 29.867 42.3273 29.7778C40.5361 29.429 37.0198 28.5625 36.9915 28.6569C35.5773 29.3303 34.8737 30.3284 44.004 33.9261C45.0731 34.1954 45.6932 34.3558 45.6932 34.3558Z" fill="#F4E7E1"/>
<path opacity="0.8" d="M23.3562 28.0056C15.9128 24.8456 15.6235 23.6867 19.5917 23.6168C25.1352 24.0453 13.4894 18.7323 24.3027 20.5535C27.4384 21.0829 18.8429 17.7229 22.4271 18.1038C20.8967 17.5073 18.1664 16.5593 22.6381 17.867C22.2207 16.824 23.9393 16.3791 25.6675 16.0058C29.6559 15.2987 26.7158 12.5124 30.7067 11.7974C32.6074 10.9527 38.5092 11.1714 38.0005 9.50066C28.033 6.56953 20.5774 4.58944 20.4405 5.04579C14.5394 5.23896 14.2548 6.80884 14.7353 8.62547C16.7299 9.85014 17.6576 10.7461 16.5633 11.0266C16.223 10.6071 15.4953 10.08 14.4873 9.45162C14.7072 10.2724 15.0673 11.1437 15.1638 11.9617C15.2421 11.9595 15.2896 11.9566 15.368 11.9544C15.3303 12.1318 15.2926 12.3092 15.1955 12.4773C16.047 13.2131 14.8812 13.3693 13.9625 13.5825C13.7585 13.6928 13.4287 13.8597 13.0514 14.0295C13.1395 14.1502 14.2887 15.3956 11.3666 14.8275C11.2551 14.8884 11.1769 14.9421 11.1698 14.9657C10.0046 15.4823 8.00782 15.715 6.08937 15.9455C6.76022 16.6099 6.94399 17.1368 4.59967 16.9222C0.936953 16.492 1.94141 17.8055 1.0813 17.5645C1.05796 17.7976 1.16293 18.0693 1.40809 18.3916C5.83826 20.4072 8.80955 22.0021 7.74157 22.4021C8.70183 22.8789 9.79039 23.3943 11.0073 23.9481C13.2081 24.9517 16.9601 26.2234 21.1991 27.5298C21.8001 27.6502 22.5294 27.809 23.3562 28.0056Z" fill="#E6CABE"/>
</svg>
