<svg width="39" height="34" viewBox="0 0 39 34" fill="none" xmlns="http://www.w3.org/2000/svg">
<path d="M37.5265 12.8479C36.9793 13.2189 36.4792 12.8215 35.925 13.0518C35.8642 13.0663 35.9922 12.8432 35.8465 12.8928C35.2942 13.1747 34.5792 12.9838 34.0514 12.7436L34.1009 12.6887C33.9988 12.6448 33.8161 12.8338 33.7026 12.8076C33.712 12.7674 33.7548 12.7536 33.7396 12.6973C33.6799 12.814 33.5137 12.7472 33.4407 12.8301C33.4054 12.781 33.4337 12.6894 33.385 12.6356L33.2852 12.767C33.0201 13.0792 32.8351 12.7365 32.5382 12.8919C32.559 12.8629 32.5904 12.8379 32.5771 12.804C32.1172 12.9881 31.6117 12.945 31.1333 13.0062C31.1628 12.9586 31.2017 12.8708 31.1871 12.8219C31.1294 12.9612 30.9797 12.9948 30.8474 13.0201C30.827 12.8746 30.6026 13.1504 30.4786 13.0623L30.4993 13.0334C30.3548 13.1852 30.3619 12.9405 30.2327 13.1196L30.1942 13.004C30.0955 13.2086 30.0655 12.8924 29.9504 12.9966L29.9436 13.0378C29.8493 13.084 29.8302 12.9826 29.7426 13.0166L29.7407 12.9941C29.5482 13.0414 29.4709 12.9265 29.4332 13.0875C29.4014 12.9597 29.6223 13.0317 29.57 12.8456C28.9338 12.9957 28.3274 12.9527 27.7289 12.9418C27.677 12.8795 27.6363 12.8577 27.6384 12.793C27.5689 12.8262 27.4052 12.8185 27.3296 12.9004C27.3503 12.9006 27.3097 12.8206 27.2803 12.81C27.187 12.7475 27.117 12.9842 27.015 12.9112C27.0732 12.8666 27.1027 12.819 27.1001 12.76C26.9683 12.8799 26.8347 12.8611 26.7057 12.8949C26.7318 12.8679 26.7639 12.8503 26.7727 12.8025C26.6061 12.9391 26.5397 12.7699 26.4019 12.8514L26.4689 12.7591C26.3088 12.6435 26.3663 12.9477 26.2208 12.881C26.2677 12.8542 26.2617 12.8157 26.2792 12.7783C26.0865 12.9419 25.8588 12.8821 25.6951 12.9324C25.7071 12.9222 25.7098 12.8941 25.7098 12.8941C25.5408 12.9135 25.3833 12.857 25.1874 12.9249C25.1321 12.8833 25.2661 12.6986 25.083 12.7348C25.0445 12.9173 24.7709 12.8047 24.8226 13.0123C24.6824 12.9765 24.4668 12.9065 24.3504 12.9666C24.4347 12.895 24.3335 12.7424 24.4591 12.7293L24.3926 12.6181C24.4248 12.5424 24.4827 12.6432 24.4749 12.5531C24.4107 12.5592 24.2149 12.6272 24.1682 12.5959C24.0277 12.7055 23.8676 12.9171 23.6779 12.9363C23.7829 12.8649 23.6783 12.7329 23.7452 12.6987L23.4005 13.0477C23.3363 13.0538 23.4215 12.9026 23.3218 12.9469C23.3157 12.9956 23.2689 13.0224 23.2314 13.0671C23.2141 13.0464 22.9635 13.1092 22.9839 12.9275C22.9727 12.858 23.0922 12.8936 23.0422 12.8248C22.9287 12.8277 22.9079 12.8857 22.7943 12.8886L22.7997 12.8614C22.7323 12.83 22.5604 12.9356 22.6156 13.0354C22.6677 13.0395 22.6219 12.9286 22.6859 12.9806C22.6069 13.0832 22.4672 13.1131 22.3557 13.1094C22.4025 13.0826 22.4086 13.0339 22.4374 12.9788C22.2501 13.1152 22.0757 13.1618 21.8939 13.2129C21.8703 13.299 21.9944 13.0599 22.011 13.1022C21.8243 12.9771 21.5204 13.2608 21.3785 13.0863C21.4133 13.0697 21.3636 13.2118 21.369 13.1847C21.2668 13.1699 21.3025 13.0445 21.2235 13.0889C21.2351 13.0131 21.132 13.107 21.0565 13.1308C21.0069 13.1858 21.0459 13.0979 21.112 13.0853C20.9983 13.1463 20.578 13.2501 20.3772 13.1418C20.3684 13.1895 20.1931 13.3157 20.1437 13.3125L20.1934 13.1995C20.1614 13.1299 20.0157 13.2085 20.0326 13.1055C19.8867 13.2422 20.491 12.9935 20.3138 13.0972C20.298 13.0043 20.0576 13.2744 20.1294 13.1184C20.0232 13.1166 19.892 13.2441 19.8181 13.1376C19.8428 13.1538 19.942 12.9857 19.8545 12.9907C19.7008 13.0083 19.7996 13.0437 19.6706 13.0775L19.5837 13.119C19.5521 13.2313 19.4555 13.1022 19.4793 13.227C19.4841 13.1342 19.2507 13.276 19.3099 13.0936L19.367 12.9468C19.2982 12.9585 19.2224 13.0986 19.1555 13.1618C19.1515 13.1459 19.1415 13.1205 19.1496 13.0943C19.0837 13.3179 19 13.0697 18.8828 13.2386C18.7674 13.1608 18.5402 13.2248 18.5124 13.084C18.3914 13.1496 18.279 13.2257 18.1689 13.1789C18.1983 13.1604 18.231 13.1503 18.2505 13.1064C18.1905 13.0413 18.159 13.0954 18.0821 13.1333C18.1049 13.0978 17.9648 13.004 17.9009 12.9229C17.7799 12.9886 17.7876 13.1077 17.7601 13.1778C17.7205 12.96 17.4332 13.3151 17.3662 13.1093C17.4076 13.0805 17.5434 13.0056 17.4714 12.9507C17.4317 12.7329 17.2419 13.1084 17.1159 12.9977L17.1082 13.1768C17.0697 13.0612 16.8582 13.2762 16.92 13.0947C16.8531 13.158 16.7565 13.0289 16.7281 13.2077C16.5153 13.0515 16.0987 13.2875 16.0239 12.9625C15.9798 12.9903 15.8997 12.9616 15.8968 13.0478C15.9313 13.1475 15.9971 12.982 16.003 13.0496C15.9696 13.0521 15.9508 13.1036 15.9401 13.1288C15.872 13.0898 15.8159 13.0697 15.9251 12.9271C15.7784 12.8163 15.674 13.2225 15.4711 13.1497C15.4987 13.0796 15.4907 13.0477 15.4219 13.0593L15.2693 13.1792C15.1345 13.1454 15.229 13.012 15.2546 12.8903C15.1737 12.9122 15.0822 12.9012 15.0233 12.9964L14.9708 12.8395C15.0093 12.9551 14.8892 12.912 14.8477 12.9407L14.8918 12.9129C14.89 12.8614 14.7944 12.8925 14.7463 12.9044C14.7374 12.9812 14.8202 13.0108 14.8615 13.0402C14.8093 13.0942 14.7512 13.0807 14.6843 13.1439C14.7306 13.0224 14.581 13.056 14.5229 13.0424C14.4608 13.0129 14.4184 13.1504 14.3998 13.1437C14.4126 13.0829 14.2876 13.1326 14.3652 13.0441C14.3947 13.0255 14.4045 13.109 14.4567 13.055C14.4241 13.007 14.4557 12.8947 14.3413 12.9773C14.2557 13.0339 14.3001 13.217 14.1847 13.1393C14.2262 13.1105 14.2476 13.0601 14.2851 13.0153L14.1757 12.947L14.1414 13.0584C14.1315 13.033 14.1435 13.0227 14.1395 13.0068C14.0745 13.1216 13.9378 13.0362 13.8767 13.167C13.8079 13.1787 13.7613 13.0893 13.7032 13.0758L13.718 13.0665C13.658 13.0014 13.5503 13.0428 13.4687 13.1153L13.4795 13.09C13.4401 13.0832 13.3405 13.0984 13.2736 13.1617C13.1909 13.0739 13.3432 12.7431 13.1947 12.8789C13.0912 12.8781 12.9819 13.0789 13.0037 13.1522C12.8342 13.0769 12.5774 13.2465 12.4435 13.0749C12.406 13.1196 12.416 13.145 12.3538 13.1736C12.0881 13.122 11.7384 13.2947 11.5739 13.0685C11.6655 13.0214 11.6082 12.9572 11.621 12.8964C11.5313 12.9951 11.5678 12.79 11.4999 12.962C11.4804 13.0641 11.4636 13.109 11.5296 13.1544C11.3505 13.2066 11.1014 13.1972 11.0314 13.1067C11.064 13.1548 11.0226 13.1835 10.9784 13.2113C11.0295 13.0551 10.9134 13.028 10.8091 13.0779L10.7734 13.1742L10.7389 13.0746C10.6975 13.1033 10.6503 13.2755 10.5804 13.185C10.5851 13.1503 10.5892 13.1082 10.5793 13.0828C10.4642 13.1579 10.2976 13.2945 10.215 13.2067L10.1638 13.0647C10.1157 13.0765 10.02 13.1658 10.0881 13.2048C9.93531 13.1136 9.82312 13.1025 9.79667 12.9767C9.41867 13.2702 8.97649 13.2716 8.62989 13.2419L8.65742 13.1718C8.58142 13.1009 8.57768 13.2959 8.52167 13.2467C8.56991 13.1767 8.48525 13.0955 8.5816 13.0137C8.46621 12.936 8.37496 13.1359 8.27937 13.1671C8.2411 13.2624 8.36499 13.1105 8.318 13.2246C8.29521 13.26 8.1485 13.1493 8.09343 13.2895C8.07285 13.2312 8.12583 13.1266 8.15936 13.0659L8.05903 13.1317C7.99995 12.9578 8.36424 12.8339 8.3099 12.6254L8.22903 12.6473C8.19262 12.4961 8.47318 12.4804 8.29496 12.4237C8.19261 12.4961 8.07062 12.6996 8.1306 12.7647C7.94751 12.8009 7.96624 13.1057 7.78392 13.0913C7.75337 13.0076 7.93759 13.0736 7.92982 12.9545C7.87062 12.8388 7.73866 13.0169 7.66996 12.9704C7.74198 13.0253 7.63548 13.1689 7.57063 13.1966C7.49463 13.1257 7.66509 13.0632 7.53421 13.0454C7.48995 13.1313 7.35289 13.1912 7.44562 13.2463C7.35039 13.4303 7.31949 13.1938 7.21032 13.3364C7.19858 13.2013 7.42202 13.0342 7.29393 12.9592C7.28698 13.0876 7.06847 13.1329 7.10015 13.3187C7.0528 13.2799 7.07238 13.1779 7.13065 13.1043C7.0667 13.0232 6.87369 13.3321 6.91096 13.0764L6.8499 13.2072C6.83329 13.1649 6.80464 13.1328 6.78008 13.0586C6.70728 13.0543 6.50253 13.2281 6.55772 13.0297C6.53096 13.0492 6.36668 13.0339 6.3971 13.1757C6.47975 13.2635 6.53891 13.0812 6.54987 13.2669C6.51345 13.1157 6.39621 13.2845 6.32531 13.3318L6.33415 13.255C6.29268 13.2837 6.21591 13.2635 6.17164 13.3494C6.20914 13.3047 6.20725 13.2531 6.18257 13.237L6.11754 13.3518C5.95913 13.4041 6.13333 13.1466 5.98364 13.1802L6.11073 13.0949C6.0813 13.1134 6.06149 13.0045 5.98661 13.0358C5.93363 13.1405 5.85388 13.2646 5.80962 13.3505C5.71801 13.3976 5.80452 13.2323 5.69743 13.3394L5.83128 13.2128C5.85407 13.1774 5.8056 13.0364 5.6994 13.0347C5.62251 13.0725 5.47994 13.2177 5.57332 13.2803C5.51921 13.2827 5.46391 13.212 5.52218 13.1384C5.3932 13.1721 5.51126 13.2508 5.39022 13.3165C5.36567 13.2422 5.25834 13.1383 5.20311 13.0385L5.35578 12.8606L5.28565 12.8572C5.41553 12.7147 5.26584 12.7483 5.35366 12.598C5.31029 12.5752 5.23939 12.6225 5.1832 12.6605C5.26886 12.9021 4.94005 12.9878 4.92823 13.209C4.71839 13.2646 4.93604 12.6737 4.64744 13.0138C4.66803 13.0721 4.52942 13.2332 4.66915 13.1743C4.55298 13.1472 4.53042 13.3936 4.41106 13.2999C4.53814 13.2146 4.35275 13.0754 4.53804 12.9455C4.51051 13.0156 4.61006 13.0004 4.63949 12.9819C4.60894 12.8982 4.7034 12.7648 4.58118 12.7574C4.50032 12.7793 4.39412 12.7775 4.38118 12.8965C4.35352 13.0248 4.49942 12.888 4.41968 13.0121C4.25527 13.055 4.27973 12.8601 4.16171 13.0796C4.26127 13.0644 4.25432 13.1928 4.23076 13.2789L4.10575 13.3286L4.148 13.2492C3.98449 13.1833 4.05751 13.3985 3.88991 13.3748L3.84952 13.2076C3.92529 13.0675 4.08582 13.2778 4.11235 13.0474C4.00283 13.0372 3.93513 13.1511 3.84442 13.0894C3.87385 13.0709 3.90458 13.0674 3.93603 13.0423C3.89663 13.0355 3.93201 12.7282 3.72725 12.902C3.62693 12.9678 3.685 12.9814 3.66145 13.0675C3.47438 13.0877 3.39939 13.1771 3.27847 13.1847C3.34428 13.0192 3.07747 13.1635 3.24882 12.9922C3.28334 13.0919 3.5492 13.0854 3.65172 12.9258C3.63678 12.7242 3.78658 12.9596 3.87719 12.7522C3.73426 12.7446 3.78945 12.5462 3.7964 12.4178C3.757 12.411 3.70681 12.4584 3.67536 12.4835C3.62902 12.605 3.68313 12.6026 3.6528 12.7299C3.49725 12.6959 3.32679 12.7584 3.20765 12.8757C3.16636 12.8173 3.21537 12.6967 3.28153 12.684C3.07975 12.7135 2.87874 12.6923 2.70449 12.6517C2.77354 12.8509 2.49067 12.6913 2.5284 12.8576C2.61513 12.9032 2.66626 13.0452 2.5886 13.1336C2.53052 13.1201 2.61216 13.0476 2.59555 13.0053C2.49112 13.1132 2.51576 12.8312 2.39851 13.0001C2.58968 12.9377 2.49387 12.7579 2.56567 12.6019C2.41787 12.6871 2.59997 12.4906 2.47306 12.4887C2.32527 12.5739 2.15214 12.6354 2.00245 12.669C1.86251 12.517 1.5563 12.6545 1.39664 12.6627C1.33269 12.5816 1.43392 12.407 1.35116 12.3773C1.24496 12.3756 1.38081 12.5697 1.24673 12.4853L1.26951 12.4498C1.21333 12.4879 1.0153 12.3223 0.905227 12.5737L0.999808 12.3822C0.975128 12.3661 0.937629 12.4108 0.908201 12.4294C0.921019 12.3685 0.903107 12.3112 0.959293 12.2732C0.896115 12.1414 0.753538 12.2867 0.647992 12.2924L0.68649 12.4081C0.484589 12.4956 0.394 12.3759 0.210909 12.412L0.242538 12.2998L0.121501 12.3655C0.171817 12.2599 0.0958236 12.189 0.0181571 12.2775L0.352015 12.0118C0.411993 12.0769 0.23685 12.145 0.25666 12.2539C0.272495 12.3469 0.440871 12.32 0.493857 12.2154C0.435775 12.2018 0.425038 12.227 0.368852 12.2651C0.38654 12.1114 0.478023 12.1224 0.549046 12.017C0.515643 12.0196 0.480996 11.9781 0.461534 12.022C0.543175 11.9495 0.60933 11.9368 0.715528 11.9385C0.629914 11.9951 0.731365 12.0315 0.693866 12.0762C0.736235 11.9387 0.84451 11.9048 0.966667 11.9413C1.02177 12.0993 1.23537 11.8486 1.37622 11.8918C1.28176 12.0252 1.17734 12.1332 1.07101 12.1896C1.14701 12.2605 1.17721 12.1913 1.25321 12.2622C1.32221 12.1633 1.39401 12.0073 1.53373 11.9483L1.51415 12.0504C1.63916 12.0007 1.67553 11.8537 1.81241 11.881C2.04473 11.9352 2.29587 11.938 2.47617 11.959L2.45659 12.0611C2.614 11.8485 2.8201 11.9878 2.98528 11.8943C3.19613 11.999 3.52382 11.8111 3.60093 11.9842C4.03724 11.9152 4.42211 11.8496 4.84483 11.8921L4.73566 12.0347C4.84008 11.9267 4.76621 12.1184 4.84506 12.103C4.78787 11.9807 4.98965 11.9513 5.06465 11.8618C5.23005 11.9793 5.50682 11.8604 5.70273 11.7634L5.68315 11.8654C5.90262 11.6823 6.06725 11.8504 6.2749 11.8885C6.28884 11.9299 6.30467 12.0228 6.37148 12.0177C6.52812 11.8557 6.5862 11.8692 6.78211 11.7722C6.90634 11.7732 7.09928 11.8205 7.21336 11.8832C7.74016 11.6649 8.18334 11.8238 8.70728 11.6917L8.71237 11.8099C9.24991 11.5663 9.77507 11.8055 10.2122 11.6859L10.1236 11.8868C10.235 11.9486 10.4249 11.8422 10.4279 11.6978C10.5393 11.7596 10.7694 11.6094 10.8071 11.7756C10.9272 11.8187 10.9883 11.6879 11.1026 11.6634C11.3449 11.743 11.4444 11.7278 11.7003 11.6959L11.6422 11.6824C11.6047 11.7271 11.5812 11.8132 11.6393 11.8268C11.7456 11.7703 11.9604 11.891 11.9288 11.647C12.1563 11.794 12.5669 11.5486 12.7749 11.7395C12.7691 11.6719 12.8379 11.6602 12.8754 11.6155C13.1058 11.6182 13.3146 11.7584 13.5252 11.6522C13.5539 11.6843 13.4415 11.7603 13.5303 11.7703C13.5905 11.7483 13.5539 11.6843 13.6308 11.6464C14.0344 11.5294 14.3518 11.7886 14.6992 11.7677C15.3333 11.6533 15.945 11.7272 16.5261 11.7174L16.5073 11.7688C16.7475 11.5859 16.915 11.9659 17.1367 11.6891C17.1693 11.7371 17.307 11.7138 17.248 11.809C17.4359 11.68 17.6498 11.9385 17.9126 11.7782C17.894 11.7715 17.8792 11.7808 17.8505 11.8068C18.0466 11.9208 18.2847 11.7735 18.4956 11.8781C18.4661 11.8967 18.4187 11.916 18.3992 11.9599C18.4671 12.057 18.6661 11.7575 18.6583 11.9947C18.7124 11.9922 18.7233 11.8798 18.6899 11.8824C19.1853 11.9873 19.7781 11.8435 20.3305 11.8016C20.6822 11.9496 20.2562 12.1968 20.6039 12.0306C20.6158 12.0785 20.6428 11.9427 20.6367 11.9914C20.7711 11.9305 20.7557 12.2595 20.8689 12.1328C20.8718 11.9885 20.9445 12.0509 20.9681 11.9648C21.1809 12.0629 21.1974 12.1924 21.4107 12.0871L21.3784 12.1628C21.6501 11.9548 21.8749 12.0718 22.1206 11.8326C23.3396 11.8116 24.5301 11.7004 25.7117 11.695C26.8637 11.7663 28.0281 11.682 29.1793 11.833C29.4067 12.0381 29.4294 12.0318 29.7515 11.9582C29.7334 11.988 29.7107 11.9944 29.724 12.0283C29.7798 11.8665 29.9404 12.0186 30.0095 11.8616C30.4396 11.8995 30.8505 11.865 31.3013 11.874C31.2251 11.8903 31.1587 12.0192 31.2436 12.0132L31.3587 11.9091L31.3626 11.9541C31.4254 11.933 31.5091 11.8539 31.4631 11.8011C32.6249 11.6868 33.6561 12.0347 34.7696 12.0195C35.0166 12.0935 35.4048 12.0364 35.6974 12.0104C36.4884 12.2431 37.2087 12.4359 38.1047 12.299C38.1233 12.3348 37.9067 12.7589 37.5265 12.8479Z" fill="#1D1D1D"/>
<path d="M0.583054 20.7887C1.13031 20.4178 1.63032 20.8154 2.18459 20.5852C2.2454 20.5707 2.1173 20.7938 2.26303 20.7442C2.81542 20.4625 3.53032 20.6535 4.0581 20.8938L4.00854 20.9487C4.11063 20.9926 4.29342 20.8037 4.40691 20.8299C4.39746 20.8701 4.35469 20.8838 4.36991 20.9402C4.42964 20.8235 4.5958 20.8904 4.6688 20.8075C4.70408 20.8565 4.67581 20.9481 4.72444 21.002L4.82428 20.8705C5.08952 20.5584 5.2744 20.9011 5.57133 20.7459C5.55055 20.7748 5.5191 20.7998 5.53238 20.8337C5.99236 20.6497 6.49789 20.6929 6.97628 20.6318C6.94678 20.6794 6.90783 20.7672 6.92241 20.8161C6.98018 20.6768 7.12988 20.6433 7.26219 20.618C7.28255 20.7635 7.50697 20.4877 7.63099 20.5758L7.61022 20.6047C7.75486 20.453 7.7476 20.6976 7.87694 20.5186L7.9154 20.6342C8.01407 20.4296 8.04405 20.7458 8.15918 20.6417L8.16596 20.6005C8.26025 20.5543 8.27937 20.6557 8.36696 20.6217L8.36891 20.6442C8.56138 20.5969 8.63859 20.7119 8.67638 20.5509C8.70814 20.6787 8.48722 20.6067 8.53955 20.7927C9.17579 20.6428 9.78217 20.6858 10.3806 20.6969C10.4326 20.7592 10.4733 20.7811 10.4711 20.8458C10.5406 20.8125 10.7043 20.8203 10.7799 20.7384C10.7592 20.7382 10.7998 20.8182 10.8292 20.8288C10.9225 20.8914 10.9925 20.6547 11.0946 20.7277C11.0364 20.7722 11.0069 20.8198 11.0094 20.8789C11.1413 20.759 11.2748 20.7778 11.4038 20.7441C11.3777 20.771 11.3456 20.7886 11.3368 20.8364C11.5034 20.6998 11.5698 20.8691 11.7076 20.7876L11.6406 20.8799C11.8006 20.9955 11.7432 20.6913 11.8887 20.758C11.8419 20.7849 11.8478 20.8234 11.8303 20.8607C12.0231 20.6972 12.2507 20.757 12.4145 20.7067C12.4024 20.7169 12.3997 20.745 12.3997 20.745C12.5687 20.7257 12.7262 20.7822 12.9221 20.7143C12.9774 20.756 12.8434 20.9406 13.0265 20.9045C13.065 20.7219 13.3386 20.8346 13.287 20.6271C13.4272 20.6628 13.6428 20.7329 13.7591 20.6728C13.6748 20.7444 13.776 20.897 13.6503 20.9101L13.7169 21.0213C13.6846 21.097 13.6268 20.9962 13.6346 21.0863C13.6987 21.0802 13.8946 21.0123 13.9413 21.0436C14.0818 20.934 14.2419 20.7224 14.4317 20.7032C14.3266 20.7746 14.4312 20.9067 14.3643 20.9409L14.7091 20.5919C14.7733 20.5858 14.6881 20.737 14.7877 20.6928C14.7938 20.6441 14.8406 20.6173 14.8782 20.5725C14.8955 20.5933 15.1461 20.5305 15.1256 20.7122C15.1368 20.7817 15.0173 20.7461 15.0673 20.8149C15.1808 20.812 15.2017 20.7541 15.3152 20.7512L15.3098 20.7783C15.3772 20.8098 15.5491 20.7042 15.4939 20.6044C15.4418 20.6002 15.4877 20.7112 15.4237 20.6592C15.5027 20.5566 15.6424 20.5268 15.7539 20.5304C15.7071 20.5572 15.701 20.606 15.6721 20.661C15.8595 20.5246 16.0339 20.4782 16.2157 20.427C16.2393 20.341 16.1152 20.58 16.0986 20.5377C16.2853 20.6629 16.5892 20.3792 16.7311 20.5537C16.6963 20.5704 16.7461 20.4282 16.7407 20.4554C16.8428 20.4702 16.8071 20.5956 16.886 20.5512C16.8745 20.627 16.9776 20.5331 17.0531 20.5093C17.1027 20.4544 17.0637 20.5422 16.9976 20.5548C17.1113 20.4938 17.5316 20.3901 17.7324 20.4985C17.7412 20.4508 17.9165 20.3246 17.966 20.3278L17.9163 20.4408C17.9482 20.5105 18.094 20.4319 18.077 20.5349C18.2229 20.3982 17.6185 20.6467 17.7958 20.5431C17.8116 20.636 18.052 20.3659 17.9802 20.5219C18.0864 20.5237 18.2176 20.3962 18.2915 20.5027C18.2668 20.4866 18.1676 20.6546 18.2551 20.6497C18.4087 20.6321 18.31 20.5966 18.439 20.5629L18.5259 20.5214C18.5576 20.4091 18.6541 20.5383 18.6304 20.4134C18.6255 20.5062 18.8589 20.3645 18.7997 20.5469L18.7426 20.6937C18.8114 20.682 18.8872 20.5419 18.9541 20.4787C18.9581 20.4947 18.9681 20.5201 18.96 20.5462C19.026 20.3227 19.1096 20.5708 19.2269 20.402C19.3422 20.4798 19.5695 20.4158 19.5972 20.5567C19.7182 20.491 19.8306 20.415 19.9407 20.4618C19.9113 20.4803 19.8786 20.4904 19.8591 20.5343C19.919 20.5994 19.9506 20.5453 20.0275 20.5074C20.0047 20.5429 20.1447 20.6368 20.2086 20.7179C20.3297 20.6522 20.322 20.5331 20.3495 20.463C20.3891 20.6808 20.6765 20.3258 20.7434 20.5316C20.702 20.5604 20.5662 20.6353 20.6382 20.6902C20.6778 20.908 20.8677 20.5326 20.9936 20.6432L21.0014 20.4642C21.0399 20.5798 21.2515 20.3648 21.1896 20.5462C21.2565 20.483 21.3531 20.6122 21.3816 20.4333C21.5943 20.5896 22.0109 20.3537 22.0856 20.6787C22.1298 20.6509 22.2099 20.6796 22.2128 20.5934C22.1783 20.4937 22.1124 20.6592 22.1066 20.5916C22.14 20.5891 22.1588 20.5376 22.1695 20.5124C22.2376 20.5514 22.2936 20.5715 22.1844 20.7141C22.3311 20.8249 22.4356 20.4188 22.6385 20.4916C22.6109 20.5617 22.6189 20.5936 22.6877 20.582L22.8403 20.4622C22.9751 20.496 22.8806 20.6294 22.8549 20.751C22.9358 20.7292 23.0273 20.7402 23.0863 20.645L23.1387 20.8019C23.1002 20.6863 23.2204 20.7294 23.2618 20.7007L23.2177 20.7285C23.2196 20.7801 23.3152 20.7489 23.3633 20.7371C23.3721 20.6603 23.2894 20.6306 23.248 20.6012C23.3003 20.5472 23.3584 20.5608 23.4253 20.4975C23.3789 20.6191 23.5286 20.5855 23.5867 20.5991C23.6487 20.6286 23.6912 20.4911 23.7098 20.4978C23.697 20.5587 23.822 20.509 23.7443 20.5975C23.7149 20.616 23.7051 20.5325 23.6529 20.5865C23.6855 20.6345 23.6538 20.7468 23.7682 20.6642C23.8539 20.6077 23.8095 20.4245 23.9249 20.5023C23.8834 20.531 23.8619 20.5815 23.8244 20.6262L23.9338 20.6945L23.9681 20.5832C23.9781 20.6086 23.966 20.6188 23.97 20.6348C24.0351 20.52 24.1718 20.6054 24.2329 20.4746C24.3017 20.4629 24.3483 20.5523 24.4063 20.5659L24.3916 20.5752C24.4516 20.6403 24.5592 20.5989 24.6409 20.5264L24.6301 20.5517C24.6695 20.5585 24.7691 20.5433 24.836 20.4801C24.9186 20.5679 24.7662 20.8986 24.9148 20.7629C25.0184 20.7637 25.1277 20.5629 25.1059 20.4896C25.2753 20.565 25.5322 20.3954 25.6661 20.567C25.7036 20.5223 25.6936 20.4969 25.7558 20.4683C26.0215 20.52 26.3713 20.3473 26.5357 20.5736C26.4441 20.6207 26.5014 20.6849 26.4886 20.7457C26.5783 20.647 26.5417 20.8521 26.6096 20.6801C26.6292 20.578 26.646 20.5332 26.58 20.4877C26.7591 20.4356 27.0083 20.445 27.0782 20.5355C27.0456 20.4874 27.087 20.4587 27.1312 20.4309C27.0801 20.5871 27.1962 20.6142 27.3005 20.5644L27.3362 20.4681L27.3707 20.5677C27.4121 20.539 27.4593 20.3668 27.5292 20.4573C27.5245 20.492 27.5204 20.5342 27.5303 20.5595C27.6454 20.4845 27.812 20.3479 27.8946 20.4357L27.9457 20.5777C27.9938 20.5659 28.0896 20.4766 28.0215 20.4376C28.1743 20.5288 28.2865 20.54 28.3129 20.6658C28.691 20.3724 29.1331 20.371 29.4797 20.4009L29.4522 20.471C29.5282 20.5419 29.532 20.3469 29.588 20.3961C29.5397 20.466 29.6243 20.5473 29.528 20.629C29.6433 20.7068 29.7346 20.5069 29.8302 20.4757C29.8685 20.3804 29.7446 20.5322 29.7916 20.4182C29.8144 20.3828 29.9611 20.4936 30.0162 20.3534C30.0368 20.4116 29.9838 20.5162 29.9502 20.5769L30.0506 20.5111C30.1096 20.685 29.7453 20.8088 29.7996 21.0174L29.8804 20.9955C29.9168 21.1467 29.6362 21.1624 29.8144 21.2191C29.9168 21.1467 30.0389 20.9432 29.9789 20.8781C30.162 20.842 30.1433 20.5371 30.3257 20.5516C30.3562 20.6353 30.172 20.5692 30.1797 20.6884C30.2389 20.8041 30.3709 20.626 30.4396 20.6725C30.3676 20.6176 30.4741 20.474 30.539 20.4464C30.615 20.5173 30.4445 20.5797 30.5754 20.5976C30.6197 20.5117 30.7567 20.4518 30.664 20.3967C30.7593 20.2127 30.7901 20.4492 30.8993 20.3066C30.911 20.4417 30.6875 20.6088 30.8156 20.6838C30.8226 20.5554 31.0411 20.5102 31.0095 20.3243C31.0568 20.3631 31.0372 20.4651 30.9789 20.5388C31.0429 20.6199 31.236 20.311 31.1986 20.5667L31.2597 20.4359C31.2763 20.4782 31.305 20.5103 31.3295 20.5846C31.4023 20.5889 31.6071 20.4151 31.5519 20.6134C31.5786 20.5939 31.7429 20.6093 31.7125 20.4675C31.6299 20.3796 31.5707 20.562 31.5598 20.3763C31.5961 20.5275 31.7134 20.3587 31.7843 20.3114L31.7755 20.3882C31.817 20.3595 31.8937 20.3798 31.938 20.2938C31.9005 20.3386 31.9024 20.3901 31.9271 20.4063L31.9921 20.2914C32.1505 20.2392 31.9763 20.4966 32.126 20.4631L31.9989 20.5484C32.0283 20.5298 32.0481 20.6387 32.123 20.6074C32.176 20.5028 32.2557 20.3787 32.3 20.2928C32.3917 20.2457 32.3051 20.411 32.4122 20.304L32.2783 20.4305C32.2555 20.4659 32.304 20.6069 32.4102 20.6087C32.4871 20.5708 32.6297 20.4256 32.5363 20.3631C32.5904 20.3607 32.6457 20.4314 32.5874 20.505C32.7164 20.4713 32.5984 20.3926 32.7194 20.3269C32.744 20.4012 32.8513 20.5051 32.9065 20.6049L32.7537 20.7829L32.8239 20.7862C32.6939 20.9287 32.8436 20.8951 32.7558 21.0454C32.7992 21.0682 32.8701 21.0209 32.9263 20.9829C32.8407 20.7413 33.1695 20.6557 33.1814 20.4345C33.3912 20.3789 33.1734 20.9698 33.4621 20.6298C33.4416 20.5715 33.5802 20.4103 33.4405 20.4693C33.5566 20.4964 33.5792 20.25 33.6986 20.3437C33.5715 20.429 33.7568 20.5682 33.5715 20.6981C33.5991 20.628 33.4995 20.6432 33.4701 20.6617C33.5006 20.7454 33.4061 20.8787 33.5283 20.8862C33.6092 20.8643 33.7154 20.8661 33.7284 20.7471C33.756 20.6189 33.6101 20.7556 33.6899 20.6315C33.8543 20.5887 33.8298 20.7835 33.9479 20.5641C33.8483 20.5792 33.8553 20.4509 33.8789 20.3648L34.0039 20.3151L33.9616 20.3945C34.1251 20.4604 34.0522 20.2451 34.2198 20.2689L34.2601 20.4361C34.1843 20.5762 34.0238 20.3659 33.9972 20.5963C34.1067 20.6065 34.1745 20.4927 34.2652 20.5543C34.2357 20.5728 34.205 20.5763 34.1735 20.6014C34.2129 20.6083 34.1775 20.9155 34.3823 20.7417C34.4826 20.6759 34.4245 20.6624 34.4481 20.5763C34.6352 20.5561 34.7102 20.4667 34.8311 20.4592C34.7653 20.6246 35.0321 20.4804 34.8607 20.6516C34.8262 20.552 34.5604 20.5584 34.4578 20.7179C34.4727 20.9196 34.323 20.6841 34.2323 20.8915C34.3752 20.8992 34.32 21.0975 34.313 21.2259C34.3524 21.2328 34.4026 21.1854 34.4341 21.1603C34.4804 21.0387 34.4263 21.0411 34.4567 20.9139C34.6122 20.9479 34.7827 20.8854 34.9019 20.7682C34.9431 20.8266 34.8941 20.9472 34.8279 20.9598C35.0297 20.9304 35.2307 20.9516 35.405 20.9923C35.336 20.793 35.6188 20.9527 35.5811 20.7864C35.4944 20.7408 35.4433 20.5988 35.521 20.5103C35.5791 20.5239 35.4974 20.5964 35.514 20.6387C35.6185 20.5308 35.5938 20.8128 35.711 20.644C35.5199 20.7063 35.6156 20.8861 35.5438 21.0421C35.6916 20.957 35.5095 21.1534 35.6364 21.1553C35.7842 21.0702 35.9573 21.0087 36.107 20.9751C36.2469 21.1271 36.5532 20.9897 36.7128 20.9816C36.7768 21.0627 36.6755 21.2372 36.7582 21.2669C36.8644 21.2687 36.7286 21.0745 36.8627 21.159L36.8399 21.1944C36.8961 21.1564 37.0941 21.322 37.2042 21.0706L37.1096 21.2621C37.1343 21.2782 37.1718 21.2335 37.2012 21.215C37.1884 21.2758 37.2063 21.3331 37.1501 21.3712C37.2132 21.5029 37.3558 21.3577 37.4614 21.3519L37.4229 21.2363C37.6248 21.1488 37.7154 21.2686 37.8985 21.2324L37.8668 21.3447L37.9879 21.2791C37.9375 21.3846 38.0135 21.4555 38.0912 21.367L37.7573 21.6326C37.6973 21.5675 37.8725 21.4994 37.8527 21.3905C37.8369 21.2976 37.6685 21.3244 37.6155 21.4291C37.6736 21.4426 37.6843 21.4174 37.7405 21.3794C37.7228 21.533 37.6313 21.522 37.5602 21.6274C37.5936 21.6248 37.6283 21.6664 37.6478 21.6224C37.5661 21.6949 37.4999 21.7076 37.3937 21.7058C37.4794 21.6493 37.3779 21.6129 37.4154 21.5682C37.373 21.7057 37.2647 21.7395 37.1426 21.703C37.0875 21.5451 36.8739 21.7957 36.733 21.7524C36.8275 21.619 36.932 21.5111 37.0383 21.4547C36.9623 21.3838 36.9321 21.453 36.8561 21.3821C36.7871 21.4809 36.7153 21.6369 36.5755 21.6959L36.5951 21.5938C36.4701 21.6435 36.4337 21.7904 36.2968 21.7632C36.0645 21.7089 35.8134 21.7061 35.6331 21.685L35.6527 21.583C35.4952 21.7955 35.2892 21.6561 35.124 21.7496C34.9132 21.6449 34.5854 21.8327 34.5083 21.6596C34.072 21.7285 33.6871 21.794 33.2644 21.7515L33.3736 21.6088C33.2692 21.7168 33.3431 21.5252 33.2643 21.5405C33.3214 21.6628 33.1196 21.6922 33.0446 21.7817C32.8792 21.6642 32.6024 21.783 32.4065 21.88L32.4261 21.7779C32.2066 21.961 32.042 21.7928 31.8344 21.7547C31.8204 21.7133 31.8046 21.6204 31.7378 21.6255C31.5811 21.7875 31.523 21.7739 31.3271 21.8709C31.2029 21.8699 31.01 21.8225 30.8959 21.7598C30.369 21.978 29.9259 21.819 29.4019 21.951L29.3969 21.8328C28.8593 22.0763 28.3342 21.837 27.897 21.9565L27.9857 21.7556C27.8743 21.6938 27.6843 21.8002 27.6813 21.9445C27.5699 21.8827 27.3398 22.0329 27.3021 21.8666C27.182 21.8235 27.1209 21.9543 27.0066 21.9788C26.7643 21.8991 26.6648 21.9143 26.4089 21.9461L26.467 21.9597C26.5045 21.915 26.5281 21.8289 26.47 21.8153C26.3636 21.8717 26.1489 21.751 26.1803 21.995C25.9529 21.848 25.5422 22.0933 25.3343 21.9024C25.3401 21.9699 25.2713 21.9816 25.2338 22.0263C25.0034 22.0236 24.7946 21.8833 24.584 21.9895C24.5553 21.9574 24.6677 21.8814 24.5789 21.8713C24.5187 21.8934 24.5553 21.9574 24.4784 21.9953C24.0747 22.1122 23.7574 21.8529 23.41 21.8738C22.7759 21.988 22.1642 21.914 21.5831 21.9237L21.6019 21.8723C21.3617 22.0551 21.1943 21.6751 20.9725 21.9519C20.9399 21.9038 20.8022 21.9271 20.8612 21.832C20.6733 21.9609 20.4595 21.7023 20.1966 21.8625C20.2153 21.8693 20.23 21.86 20.2588 21.834C20.0627 21.72 19.8245 21.8672 19.6137 21.7625C19.6431 21.744 19.6906 21.7247 19.7101 21.6807C19.6422 21.5837 19.4431 21.8831 19.451 21.646C19.3969 21.6484 19.3859 21.7608 19.4193 21.7582C18.924 21.6532 18.3312 21.7969 17.7787 21.8386C17.427 21.6906 17.8531 21.4435 17.5054 21.6097C17.4935 21.5618 17.4664 21.6975 17.4726 21.6488C17.3382 21.7097 17.3536 21.3807 17.2404 21.5073C17.2374 21.6517 17.1648 21.5893 17.1412 21.6753C16.9284 21.5772 16.912 21.4477 16.6986 21.5529L16.7309 21.4772C16.4592 21.6852 16.2344 21.5682 15.9887 21.8073C14.7696 21.828 13.5791 21.939 12.3975 21.9442C11.2455 21.8726 10.0811 21.9566 8.92989 21.8054C8.70261 21.6002 8.67989 21.6066 8.35777 21.6801C8.37587 21.6503 8.3986 21.6439 8.38532 21.61C8.32949 21.7718 8.16888 21.6196 8.09971 21.7766C7.66965 21.7387 7.25879 21.7731 6.80795 21.764C6.88413 21.7477 6.95056 21.6188 6.86572 21.6248L6.75059 21.7289L6.74668 21.6839C6.68385 21.7049 6.60017 21.784 6.64613 21.8369C5.48431 21.9509 4.45317 21.6027 3.33968 21.6178C3.09272 21.5437 2.70451 21.6008 2.41189 21.6267C1.62093 21.3938 0.900681 21.2008 0.00465087 21.3375C-0.0139678 21.3017 0.202783 20.8777 0.583054 20.7887Z" fill="#1D1D1D"/>
</svg>
