<svg width="26" height="26" viewBox="0 0 26 26" fill="none" xmlns="http://www.w3.org/2000/svg">
<path d="M5.00068 4.8837C5.43005 4.92264 5.44968 5.34421 5.81095 5.45989C5.84517 5.4782 5.67569 5.54052 5.76511 5.57669C6.15165 5.66453 6.3707 6.06949 6.48219 6.42045L6.43251 6.42812C6.45538 6.49466 6.63171 6.47357 6.66859 6.53567C6.64405 6.55274 6.6182 6.5417 6.5964 6.57774C6.68186 6.54201 6.72139 6.64792 6.79558 6.6356C6.78635 6.67634 6.72748 6.71233 6.72173 6.76127L6.83233 6.73494C7.1074 6.68446 7.01563 6.9429 7.22534 6.98813C7.20153 6.99442 7.17496 6.99415 7.16369 7.01756C7.45996 7.11723 7.66135 7.35542 7.90353 7.52738C7.86641 7.53975 7.80476 7.56918 7.78648 7.60101C7.88246 7.55265 7.96556 7.59889 8.03677 7.64207C7.97214 7.727 8.21082 7.67812 8.221 7.7772L8.1972 7.78349C8.33786 7.76563 8.21085 7.89076 8.35856 7.85207L8.31704 7.92907C8.46414 7.86392 8.31738 8.04242 8.42092 8.03693L8.44477 8.01822C8.50977 8.03423 8.4669 8.09554 8.5228 8.11504L8.51227 8.12768C8.6212 8.18496 8.59712 8.27814 8.69527 8.20987C8.64465 8.29037 8.58352 8.15845 8.51249 8.27827C8.86931 8.47098 9.11533 8.75209 9.37401 9.01307C9.36544 9.06786 9.37234 9.09667 9.33866 9.12965C9.38619 9.14189 9.4545 9.21575 9.52939 9.20507C9.52032 9.19616 9.49775 9.25538 9.50539 9.27342C9.51495 9.34603 9.66564 9.25184 9.67377 9.33358C9.62551 9.33212 9.58839 9.34449 9.55961 9.37654C9.67855 9.36989 9.728 9.4367 9.80203 9.47402C9.77684 9.47704 9.75377 9.47256 9.72572 9.49384C9.86842 9.49331 9.81208 9.61034 9.91416 9.62639L9.83785 9.6462C9.85003 9.77503 9.97863 9.59111 10.0091 9.6881C9.97484 9.68221 9.95798 9.7049 9.93136 9.71705C10.0993 9.71351 10.1695 9.84193 10.2673 9.88538C10.2568 9.8856 10.2414 9.89916 10.2414 9.89916C10.3258 9.9611 10.3668 10.0579 10.4876 10.1058C10.491 10.1512 10.3383 10.1909 10.4375 10.25C10.5469 10.1707 10.6107 10.3465 10.6929 10.2157C10.7367 10.2942 10.7965 10.4228 10.8783 10.4409C10.8048 10.4425 10.7722 10.5656 10.7101 10.519L10.6833 10.6056C10.6307 10.6315 10.6562 10.554 10.614 10.6046C10.6454 10.6287 10.7663 10.6766 10.7711 10.7129C10.8886 10.7154 11.0664 10.6728 11.1599 10.7436C11.0774 10.7363 11.0567 10.8501 11.0099 10.8395L11.3388 10.8036C11.3702 10.8277 11.256 10.8707 11.3224 10.89C11.3498 10.8671 11.384 10.873 11.4232 10.8655C11.4204 10.8838 11.5628 10.9577 11.4618 11.0443C11.4316 11.0854 11.3968 11.0158 11.3841 11.0732C11.4357 11.1201 11.4742 11.0986 11.5258 11.1455L11.5097 11.1574C11.5236 11.2026 11.6529 11.2206 11.679 11.1448C11.6581 11.1204 11.6222 11.1981 11.6203 11.1435C11.7071 11.1235 11.7839 11.1674 11.8313 11.2168C11.797 11.211 11.7697 11.2339 11.7291 11.2504C11.8808 11.2588 11.9814 11.3088 12.0875 11.3596C12.1415 11.3245 11.9657 11.3969 11.9798 11.3676C11.9989 11.5128 12.2767 11.4938 12.251 11.6457C12.2273 11.6396 12.3212 11.5863 12.305 11.5982C12.3426 11.6496 12.2634 11.7001 12.3208 11.7104C12.2773 11.7453 12.3703 11.74 12.4157 11.7597C12.4654 11.7521 12.4038 11.7815 12.3682 11.7599C12.4493 11.7764 12.6874 11.9013 12.7212 12.0437C12.7493 12.0224 12.8905 12.0311 12.9107 12.0538L12.8316 12.0919C12.8104 12.142 12.9146 12.1629 12.855 12.2097C12.9886 12.2003 12.5959 12.0728 12.7266 12.0941C12.6866 12.1495 12.9294 12.1105 12.8188 12.1616C12.8648 12.2078 12.9872 12.197 12.966 12.2843C12.9632 12.2653 12.8344 12.3111 12.8755 12.3458C12.9523 12.4021 12.9266 12.3414 13.0006 12.3787L13.06 12.394C13.1308 12.3487 13.1081 12.4576 13.1608 12.382C13.1117 12.4285 13.2865 12.4538 13.168 12.5241L13.0685 12.5767C13.1048 12.5999 13.2092 12.5589 13.2708 12.5542C13.2644 12.5643 13.256 12.5819 13.2392 12.5921C13.3815 12.5031 13.2928 12.6688 13.43 12.6303C13.4416 12.7203 13.5743 12.7837 13.5153 12.8693C13.602 12.8865 13.6901 12.8946 13.715 12.966C13.6927 12.9632 13.6731 12.9545 13.6423 12.9692C13.6358 13.0289 13.6771 13.014 13.7302 13.027C13.7022 13.0358 13.7166 13.1447 13.7038 13.2145C13.7904 13.2317 13.8473 13.166 13.8949 13.141C13.8022 13.272 14.1088 13.2085 14.0342 13.3449C14.0013 13.3423 13.9035 13.3237 13.9075 13.3832C13.8147 13.5142 14.0886 13.3984 14.0882 13.5101L14.1822 13.4196C14.1407 13.4966 14.343 13.4741 14.2238 13.5428C14.2854 13.5382 14.2627 13.6471 14.3658 13.5655C14.3806 13.7381 14.684 13.7921 14.5525 13.9943C14.5861 13.9985 14.6069 14.0477 14.6518 14.0038C14.687 13.9368 14.5742 13.9955 14.6058 13.9576C14.6219 13.9705 14.6562 13.9515 14.6737 13.9429C14.6841 13.9923 14.6986 14.0268 14.5782 14.055C14.5869 14.1756 14.8386 14.0073 14.8914 14.1319C14.8437 14.1569 14.8311 14.1771 14.8674 14.2003L14.9954 14.2025C15.0378 14.2778 14.9286 14.3074 14.8557 14.3602C14.9024 14.3832 14.9373 14.428 15.0115 14.4033L14.9552 14.5079C14.9967 14.4309 15.028 14.5047 15.0608 14.5073L15.0273 14.5031C15.002 14.5309 15.06 14.5553 15.0872 14.5696C15.13 14.5332 15.1085 14.4823 15.1051 14.4493C15.1555 14.4433 15.1743 14.4751 15.2358 14.4705C15.1538 14.5145 15.2369 14.5607 15.2557 14.5926C15.2682 14.6345 15.3565 14.5805 15.3613 14.592C15.3249 14.6184 15.4052 14.6457 15.3262 14.6589C15.3038 14.6561 15.3417 14.6081 15.2913 14.6142C15.2814 14.6533 15.2106 14.6986 15.3029 14.7041C15.3694 14.711 15.4425 14.5961 15.4541 14.686C15.4212 14.6834 15.3862 14.7007 15.347 14.7081L15.3607 14.7906L15.4322 14.7469C15.4237 14.7644 15.4133 14.7647 15.4069 14.7747C15.4938 14.7423 15.5109 14.8453 15.6041 14.8028C15.6404 14.8261 15.6157 14.8928 15.6345 14.9247L15.6233 14.9232C15.6168 14.983 15.6853 15.0072 15.758 15.004L15.7405 15.0126C15.7544 15.033 15.8061 15.0675 15.8677 15.0629C15.8597 15.1441 15.625 15.2525 15.7594 15.2447C15.8047 15.2893 15.9546 15.2307 15.982 15.1829C16.0187 15.2947 16.218 15.3153 16.1903 15.4624C16.2295 15.4549 16.2379 15.4374 16.2798 15.4489C16.371 15.5893 16.6129 15.6479 16.571 15.8366C16.5067 15.8222 16.4995 15.8803 16.463 15.9067C16.5526 15.8933 16.4327 15.9851 16.5497 15.9239C16.61 15.8788 16.6402 15.8625 16.634 15.8105C16.7395 15.8595 16.8448 15.9707 16.8298 16.0479C16.8397 16.0088 16.8726 16.0115 16.9062 16.0157C16.8046 16.0758 16.8421 16.1395 16.9134 16.1579L16.9779 16.1226L16.9427 16.1895C16.9756 16.1921 17.0835 16.122 17.0686 16.1993C17.0489 16.2154 17.0258 16.2358 17.0173 16.2533C17.1061 16.263 17.2488 16.2625 17.2409 16.3438L17.1916 16.44C17.2188 16.4543 17.3063 16.4483 17.296 16.3989C17.3173 16.5118 17.3612 16.5655 17.3092 16.6427C17.6246 16.6501 17.8206 16.8379 17.9586 17.0013L17.9109 17.0263C17.9086 17.0959 18.0089 16.9953 18.0088 17.045C17.9521 17.0611 17.9483 17.1397 17.8644 17.1415C17.876 17.2314 18.0175 17.1656 18.0755 17.19C18.1406 17.1564 18.009 17.1831 18.0875 17.1434C18.1155 17.1346 18.1242 17.2552 18.2195 17.2052C18.1991 17.2445 18.1228 17.2767 18.0772 17.2942L18.1549 17.3025C18.0929 17.4188 17.8694 17.3284 17.7878 17.4609L17.8346 17.4839C17.7741 17.5786 17.6423 17.4672 17.6923 17.5729C17.7741 17.5786 17.931 17.524 17.9375 17.4643C18.0366 17.5235 18.1827 17.3557 18.2558 17.4411C18.227 17.4979 18.1791 17.3848 18.1222 17.4505C18.0898 17.5364 18.2382 17.4993 18.245 17.553C18.241 17.4935 18.3607 17.4637 18.4033 17.4768C18.401 17.5464 18.2941 17.5064 18.3429 17.5716C18.4059 17.5455 18.4967 17.5725 18.4837 17.5041C18.6189 17.4483 18.5128 17.5854 18.6332 17.5572C18.57 17.633 18.3868 17.6253 18.4053 17.7192C18.4734 17.6549 18.5928 17.7244 18.6729 17.6135C18.6742 17.654 18.6139 17.6991 18.5509 17.7129C18.538 17.7826 18.7796 17.7031 18.6338 17.8212L18.7269 17.7787C18.7128 17.8079 18.7093 17.8369 18.6825 17.8863C18.7125 17.9196 18.8909 17.9159 18.7661 17.9963C18.7878 17.9975 18.8526 18.0755 18.9109 17.9883C18.9189 17.907 18.8004 17.9773 18.8896 17.8753C18.8291 17.9701 18.9664 17.9316 19.0216 17.9371L18.9788 17.9736C19.0117 17.9762 19.0353 18.0196 19.0984 17.9934C19.0592 18.0008 19.0339 18.0287 19.0366 18.0477L19.1235 18.0152C19.2199 18.0554 19.0126 18.116 19.0957 18.1623L18.9964 18.1528C19.0188 18.1556 18.9724 18.2211 19.0213 18.2366C19.0977 18.2044 19.1957 18.1734 19.2588 18.1472C19.3231 18.1616 19.2012 18.2113 19.3027 18.2009L19.1795 18.2101C19.1515 18.219 19.1015 18.3135 19.1476 18.3597C19.2007 18.3727 19.3371 18.3574 19.3276 18.2848C19.3527 18.3066 19.3413 18.3672 19.2783 18.381C19.3523 18.4183 19.34 18.3267 19.4267 18.3439C19.4 18.3933 19.3948 18.4935 19.3686 18.5694L19.2112 18.5975L19.2404 18.6292C19.111 18.6485 19.1941 18.6947 19.0792 18.736C19.0868 18.7665 19.142 18.7719 19.1861 18.776C19.2706 18.6128 19.4591 18.7081 19.5763 18.5973C19.6971 18.6576 19.3019 18.8745 19.6015 18.8193C19.6219 18.78 19.7647 18.7547 19.6731 18.726C19.7107 18.7897 19.8454 18.6702 19.8506 18.7702C19.7513 18.7607 19.7627 18.9127 19.6152 18.9018C19.6628 18.8768 19.6112 18.8423 19.5888 18.8395C19.5599 18.8963 19.4507 18.9259 19.5009 18.982C19.5477 19.005 19.5937 19.0512 19.6597 18.9943C19.7368 18.9389 19.6031 18.9484 19.7012 18.9173C19.7955 18.965 19.686 19.0567 19.8492 18.992C19.7976 18.9575 19.8656 18.8932 19.9196 18.8581L20 18.8854L19.9411 18.909C19.98 19.0132 20.0567 18.8693 20.1187 18.9532L20.0519 19.0581C19.9475 19.0992 19.9831 18.9205 19.8547 19.0299C19.8979 19.082 19.9854 19.0512 19.9943 19.1222C19.9719 19.1193 19.9566 19.1081 19.93 19.1078C19.9439 19.1282 19.7728 19.2741 19.9512 19.2704C20.0288 19.2786 20.01 19.2468 20.064 19.2117C20.1568 19.2809 20.2352 19.266 20.2924 19.3136C20.1796 19.3723 20.3704 19.4105 20.2081 19.4271C20.2433 19.3602 20.1226 19.2502 19.9966 19.2901C19.9011 19.4021 19.9541 19.2149 19.8091 19.2849C19.8684 19.3499 19.7436 19.4303 19.6755 19.4946C19.6895 19.515 19.7356 19.5115 19.7622 19.5118C19.8442 19.4679 19.8191 19.4461 19.8969 19.3923C19.9484 19.4764 20.0553 19.5164 20.1673 19.5058C20.1559 19.554 20.0732 19.5963 20.0376 19.5747C20.1416 19.6453 20.2197 19.7421 20.276 19.8377C20.3464 19.7039 20.3905 19.9081 20.458 19.8049C20.4428 19.744 20.4921 19.6478 20.5712 19.6346C20.5899 19.6665 20.5172 19.6697 20.5031 19.6989C20.6039 19.6869 20.4502 19.8241 20.5875 19.7857C20.4715 19.7368 20.4228 19.8719 20.3121 19.923C20.4205 19.9414 20.2406 19.9667 20.2957 20.0218C20.4041 20.0402 20.5117 20.0818 20.5948 20.1281C20.5796 20.2674 20.7844 20.326 20.859 20.3898C20.8462 20.4595 20.7132 20.5078 20.7347 20.5587C20.7807 20.6049 20.819 20.4452 20.8354 20.5466L20.8074 20.5555C20.8515 20.5595 20.8551 20.7307 21.031 20.6459L20.8923 20.706C20.895 20.7249 20.9342 20.7175 20.9566 20.7203C20.9201 20.7467 20.899 20.7844 20.855 20.7804C20.8162 20.8764 20.9527 20.8611 21.0022 20.9031L21.0437 20.8261C21.1772 20.8663 21.1566 20.9677 21.2557 21.0268L21.1849 21.0721L21.2716 21.0893C21.1959 21.1232 21.1936 21.1928 21.2727 21.1795L20.9908 21.1763C20.9973 21.1166 21.1091 21.1557 21.1555 21.0901C21.1955 21.0347 21.1076 20.977 21.0312 21.0092C21.05 21.0411 21.0675 21.0324 21.1116 21.0365C21.026 21.1094 20.9912 21.0646 20.9065 21.0896C20.9225 21.1025 20.9168 21.139 20.9476 21.1243C20.8749 21.1275 20.8392 21.1059 20.7932 21.0597C20.8597 21.0666 20.8333 21.0043 20.8725 20.9968C20.7842 21.0508 20.7192 21.0224 20.6838 20.9511C20.7394 20.8449 20.5182 20.8851 20.4779 20.8024C20.5871 20.7728 20.6879 20.7607 20.7634 20.7765C20.7657 20.707 20.7173 20.7303 20.7197 20.6608C20.6391 20.6832 20.5285 20.7343 20.4369 20.7056L20.4972 20.6605C20.4169 20.6332 20.3264 20.6947 20.2798 20.6221C20.2047 20.4946 20.0952 20.386 20.0262 20.2981L20.0865 20.253C19.9094 20.2972 19.8889 20.1363 19.7687 20.1149C19.7286 19.9701 19.4888 19.9288 19.5423 19.8052C19.3148 19.6553 19.1116 19.5255 18.9465 19.323L19.0669 19.2948C18.9662 19.3068 19.0958 19.2379 19.0532 19.2123C19.0165 19.3008 18.9125 19.2302 18.8341 19.2451C18.8206 19.113 18.6382 19.0572 18.5026 19.0245L18.5629 18.9794C18.3733 18.9817 18.3857 18.8234 18.3133 18.7149C18.3281 18.6873 18.3681 18.6318 18.3361 18.606C18.1849 18.6241 18.1661 18.5922 18.0305 18.5595C17.9761 18.5061 17.9149 18.399 17.8963 18.3174C17.5532 18.2072 17.4379 17.9349 17.1398 17.7807L17.1973 17.7166C16.8367 17.6149 16.7259 17.2656 16.4724 17.1419L16.6132 17.0744C16.5953 16.9945 16.4575 16.9693 16.3832 17.0436C16.3652 16.9638 16.1876 16.9443 16.2551 16.8411C16.2239 16.7673 16.1307 16.8098 16.0678 16.7739C16.0012 16.6289 15.9495 16.5944 15.8204 16.502L15.8392 16.5338C15.8784 16.5264 15.9324 16.4913 15.9136 16.4594C15.8381 16.4437 15.8043 16.2888 15.6947 16.4301C15.6687 16.2561 15.3632 16.2096 15.368 16.0208C15.3364 16.0587 15.3001 16.0355 15.2609 16.0429C15.1605 15.9433 15.1393 15.7807 14.9925 15.7466C14.9961 15.7176 15.0842 15.7256 15.0501 15.6825C15.0123 15.6684 14.9961 15.7176 14.943 15.7046C14.7055 15.5938 14.6966 15.3226 14.5326 15.1854C14.1948 14.9749 13.9621 14.6753 13.7005 14.4326L13.7349 14.4136C13.5362 14.4071 13.6546 14.1365 13.4166 14.187C13.4266 14.1479 13.354 14.1014 13.4282 14.0767C13.2799 14.0641 13.3163 13.8375 13.1192 13.8093C13.124 13.8208 13.1352 13.8222 13.1611 13.8209C13.1322 13.6775 12.9525 13.6532 12.9124 13.5084C12.9347 13.5112 12.9655 13.5213 12.9963 13.5066C13.0155 13.4268 12.776 13.4988 12.8995 13.3779C12.8744 13.3561 12.8127 13.4104 12.8287 13.4233C12.6631 13.157 12.3286 12.9795 12.0635 12.7659C11.983 12.5384 12.2963 12.5905 12.0586 12.5293C12.0776 12.4991 11.997 12.5588 12.0243 12.5358C11.9342 12.5104 12.1075 12.3446 11.9934 12.3627C11.919 12.4371 11.9185 12.3734 11.8645 12.4085C11.8202 12.2663 11.8785 12.1914 11.7311 12.1556L11.7836 12.1297C11.5584 12.1228 11.5183 11.9656 11.2888 11.9862C10.7399 11.4773 10.158 11.0279 9.63357 10.5268C9.16101 9.99806 8.60426 9.5456 8.1724 8.97551C8.17585 8.77106 8.16258 8.76472 7.98312 8.6659C8.00623 8.65797 8.0195 8.6643 8.03077 8.6409C7.92425 8.70189 7.93032 8.55366 7.82033 8.60645C7.6496 8.40319 7.45075 8.24603 7.25622 8.04907C7.29811 8.07301 7.39267 8.03378 7.35221 8.00071L7.24866 8.0062L7.26973 7.98093C7.23131 7.96519 7.15434 7.97096 7.14789 8.01825C6.5771 7.58264 6.2979 6.96051 5.79855 6.4936C5.72696 6.34949 5.52664 6.21387 5.3843 6.10269C5.15284 5.64338 4.9324 5.23514 4.46753 4.92472C4.47741 4.89804 4.7877 4.76821 5.00068 4.8837Z" fill="#1D1D1D"/>
<path d="M21.1787 4.83237C21.1398 5.26174 20.7182 5.28137 20.6025 5.64264C20.5842 5.67686 20.5219 5.50739 20.4857 5.59681C20.3979 5.98335 19.9929 6.2024 19.642 6.3139L19.6343 6.26421C19.5678 6.28708 19.5888 6.46342 19.5267 6.50029C19.5097 6.47576 19.5207 6.44991 19.4847 6.42811C19.5204 6.51357 19.4145 6.5531 19.4268 6.62729C19.3861 6.61806 19.3501 6.55919 19.3012 6.55344L19.3275 6.66404C19.378 6.93911 19.1195 6.84735 19.0743 7.05705C19.068 7.03325 19.0683 7.00667 19.0449 6.9954C18.9452 7.29167 18.707 7.49307 18.535 7.73525C18.5227 7.69814 18.4933 7.63649 18.4614 7.6182C18.5098 7.71419 18.4635 7.79728 18.4204 7.86849C18.3354 7.80386 18.3843 8.04255 18.2852 8.05272L18.2789 8.02893C18.2968 8.16958 18.1717 8.04257 18.2104 8.19029L18.1334 8.14877C18.1985 8.29587 18.02 8.14911 18.0255 8.25265L18.0442 8.2765C18.0282 8.3415 17.9669 8.29863 17.9474 8.35453L17.9348 8.344C17.8775 8.45294 17.7843 8.42886 17.8526 8.52701C17.7721 8.47638 17.904 8.41525 17.7842 8.34422C17.5915 8.70105 17.3104 8.94707 17.0494 9.20575C16.9946 9.19719 16.9658 9.20409 16.9328 9.17041C16.9206 9.21793 16.8467 9.28625 16.8574 9.36113C16.8663 9.35207 16.8071 9.3295 16.789 9.33713C16.7164 9.34669 16.8106 9.49738 16.7289 9.50552C16.7303 9.45726 16.718 9.42014 16.6859 9.39136C16.6926 9.5103 16.6258 9.55975 16.5884 9.63378C16.5854 9.60859 16.5899 9.58552 16.5686 9.55747C16.5691 9.70017 16.4521 9.64383 16.4361 9.74591L16.4163 9.6696C16.2874 9.68178 16.4714 9.81038 16.3744 9.84085C16.3803 9.80659 16.3576 9.78973 16.3454 9.76311C16.349 9.931 16.2205 10.0012 16.1771 10.099C16.1769 10.0885 16.1633 10.0731 16.1633 10.0731C16.1014 10.1576 16.0046 10.1985 15.9567 10.3194C15.9112 10.3227 15.8716 10.1701 15.8125 10.2692C15.8917 10.3786 15.716 10.4424 15.8468 10.5247C15.7683 10.5685 15.6397 10.6282 15.6215 10.71C15.62 10.6366 15.4968 10.604 15.5435 10.5419L15.4569 10.515C15.431 10.4625 15.5085 10.4879 15.4579 10.4458C15.4338 10.4772 15.3858 10.598 15.3495 10.6028C15.347 10.7203 15.3897 10.8982 15.3188 10.9917C15.3262 10.9091 15.2124 10.8885 15.223 10.8417L15.2589 11.1705C15.2347 11.2019 15.1918 11.0878 15.1725 11.1542C15.1954 11.1815 15.1895 11.2158 15.197 11.255C15.1787 11.2521 15.1048 11.3946 15.0182 11.2936C14.977 11.2634 15.0466 11.2286 14.9893 11.2158C14.9424 11.2675 14.9639 11.306 14.917 11.3576L14.9051 11.3415C14.8598 11.3553 14.8419 11.4847 14.9177 11.5108C14.9421 11.4899 14.8644 11.454 14.919 11.4521C14.939 11.5389 14.8951 11.6157 14.8456 11.6631C14.8515 11.6288 14.8286 11.6015 14.812 11.5608C14.8037 11.7126 14.7536 11.8132 14.7029 11.9193C14.738 11.9733 14.6656 11.7975 14.6949 11.8116C14.5496 11.8307 14.5687 12.1085 14.4168 12.0828C14.4229 12.059 14.4762 12.1529 14.4643 12.1368C14.4129 12.1744 14.3624 12.0952 14.3521 12.1525C14.3172 12.1091 14.3225 12.2021 14.3028 12.2475C14.3104 12.2972 14.281 12.2356 14.3026 12.2C14.2861 12.281 14.1612 12.5192 14.0188 12.553C14.0401 12.581 14.0314 12.7223 14.0087 12.7425L13.9706 12.6634C13.9205 12.6422 13.8996 12.7464 13.8528 12.6868C13.8622 12.8204 13.9897 12.4277 13.9684 12.5584C13.913 12.5184 13.952 12.7612 13.9009 12.6505C13.8547 12.6966 13.8655 12.819 13.7782 12.7977C13.7972 12.795 13.7514 12.6662 13.7167 12.7073C13.6604 12.7841 13.7211 12.7584 13.6838 12.8324L13.6685 12.8918C13.7138 12.9626 13.6049 12.9399 13.6805 12.9926C13.634 12.9435 13.6087 13.1183 13.5384 12.9998L13.4858 12.9003C13.4626 12.9366 13.5036 13.041 13.5083 13.1026C13.4982 13.0962 13.4806 13.0878 13.4704 13.071C13.5594 13.2133 13.3937 13.1246 13.4322 13.2618C13.3422 13.2734 13.2788 13.4061 13.1932 13.3471C13.176 13.4338 13.1679 13.5219 13.0965 13.5468C13.0993 13.5245 13.108 13.5049 13.0933 13.4741C13.0336 13.4676 13.0485 13.5089 13.0356 13.562C13.0267 13.534 12.9178 13.5484 12.848 13.5356C12.8308 13.6222 12.8965 13.6791 12.9215 13.7268C12.7905 13.634 12.8541 13.9406 12.7176 13.866C12.7202 13.8331 12.7389 13.7353 12.6794 13.7393C12.5483 13.6465 12.6642 13.9204 12.5524 13.92L12.643 14.0141C12.566 13.9725 12.5884 14.1748 12.5197 14.0556C12.5243 14.1172 12.4155 14.0945 12.4971 14.1976C12.3244 14.2124 12.2704 14.5158 12.0683 14.3844C12.064 14.4179 12.0148 14.4387 12.0588 14.4837C12.1257 14.5188 12.0671 14.406 12.105 14.4376C12.0921 14.4537 12.111 14.488 12.1196 14.5055C12.0702 14.5159 12.0358 14.5304 12.0076 14.41C11.887 14.4188 12.0553 14.6704 11.9306 14.7232C11.9056 14.6755 11.8855 14.6629 11.8622 14.6992L11.86 14.8272C11.7848 14.8696 11.7551 14.7604 11.7023 14.6875C11.6793 14.7343 11.6345 14.7691 11.6593 14.8433L11.5546 14.787C11.6316 14.8285 11.5578 14.8598 11.5552 14.8927L11.5595 14.8591C11.5316 14.8338 11.5072 14.8918 11.4929 14.919C11.5294 14.9618 11.5802 14.9403 11.6132 14.9369C11.6193 14.9873 11.5874 15.0061 11.592 15.0676C11.5481 14.9857 11.5018 15.0688 11.47 15.0875C11.428 15.1 11.482 15.1883 11.4705 15.1932C11.4441 15.1567 11.4169 15.2371 11.4036 15.158C11.4064 15.1356 11.4544 15.1735 11.4484 15.1231C11.4093 15.1132 11.3639 15.0424 11.3584 15.1348C11.3516 15.2012 11.4665 15.2743 11.3765 15.2859C11.3791 15.253 11.3618 15.218 11.3544 15.1788L11.2719 15.1925L11.3156 15.264C11.2981 15.2556 11.2979 15.2451 11.2878 15.2388C11.3203 15.3256 11.2172 15.3428 11.2597 15.4359C11.2365 15.4722 11.1698 15.4475 11.1379 15.4663L11.1393 15.4551C11.0796 15.4486 11.0554 15.5171 11.0586 15.5899L11.0499 15.5724C11.0295 15.5863 10.995 15.6379 10.9997 15.6995C10.9184 15.6916 10.81 15.4569 10.8178 15.5912C10.7733 15.6365 10.8319 15.7864 10.8796 15.8138C10.7678 15.8506 10.7472 16.0498 10.6002 16.0221C10.6076 16.0613 10.6252 16.0697 10.6137 16.1117C10.4733 16.2029 10.4147 16.4447 10.2259 16.4028C10.2403 16.3385 10.1822 16.3313 10.1558 16.2949C10.1693 16.3845 10.0774 16.2646 10.1386 16.3816C10.1837 16.4419 10.2001 16.472 10.2521 16.4659C10.203 16.5713 10.0919 16.6766 10.0146 16.6617C10.0537 16.6716 10.0511 16.7045 10.0468 16.738C9.98678 16.6364 9.92303 16.674 9.90468 16.7453L9.93996 16.8097L9.87302 16.7745C9.87041 16.8074 9.94053 16.9154 9.86327 16.9004C9.84713 16.8808 9.82679 16.8576 9.80923 16.8492C9.79952 16.938 9.80005 17.0807 9.71879 17.0727L9.6226 17.0235C9.60828 17.0507 9.61426 17.1382 9.66369 17.1278C9.55078 17.1491 9.4971 17.193 9.41988 17.141C9.41246 17.4565 9.22463 17.6524 9.06123 17.7904L9.03623 17.7428C8.96668 17.7405 9.06726 17.8408 9.01761 17.8406C9.00152 17.7839 8.92283 17.7802 8.92107 17.6962C8.83112 17.7078 8.89699 17.8494 8.87256 17.9073C8.9062 17.9725 8.87943 17.8409 8.91915 17.9194C8.92801 17.9474 8.80739 17.9561 8.85739 18.0514C8.81807 18.031 8.78585 17.9546 8.76834 17.9091L8.76005 17.9867C8.64373 17.9248 8.73417 17.7012 8.60172 17.6197L8.57871 17.6665C8.48394 17.606 8.59534 17.4742 8.48966 17.5242C8.48393 17.606 8.53854 17.7629 8.59825 17.7694C8.53912 17.8685 8.70685 18.0145 8.62152 18.0877C8.56464 18.0588 8.67782 18.0109 8.61208 17.9541C8.52617 17.9216 8.56323 18.07 8.50959 18.0769C8.56908 18.0729 8.5989 18.1926 8.58574 18.2352C8.51618 18.2329 8.55613 18.126 8.49096 18.1747C8.51711 18.2378 8.49007 18.3286 8.55847 18.3155C8.61427 18.4507 8.47717 18.3447 8.50536 18.4651C8.42956 18.4019 8.43728 18.2186 8.34335 18.2372C8.40766 18.3053 8.33819 18.4247 8.4491 18.5048C8.40859 18.506 8.36346 18.4457 8.34972 18.3827C8.27995 18.3699 8.35951 18.6115 8.24142 18.4656L8.28393 18.5588C8.25467 18.5447 8.22564 18.5411 8.17626 18.5144C8.14296 18.5444 8.14672 18.7227 8.06631 18.598C8.06512 18.6196 7.98705 18.6845 8.07433 18.7428C8.15559 18.7507 8.08524 18.6323 8.18724 18.7215C8.09247 18.661 8.13094 18.7982 8.12548 18.8535L8.089 18.8107C8.08638 18.8436 8.04303 18.8672 8.06918 18.9302C8.06174 18.891 8.0339 18.8658 8.01493 18.8685L8.04737 18.9554C8.00721 19.0518 7.94657 18.8445 7.90033 18.9276L7.90982 18.8283C7.90698 18.8507 7.84147 18.8043 7.82595 18.8532C7.85818 18.9296 7.8892 19.0276 7.91535 19.0906C7.90099 19.1549 7.85126 19.0331 7.86167 19.1345L7.85246 19.0114C7.84359 18.9834 7.74904 18.9334 7.70285 18.9794C7.6899 19.0326 7.70519 19.169 7.7778 19.1594C7.75599 19.1846 7.69535 19.1732 7.68161 19.1102C7.64428 19.1842 7.73586 19.1719 7.71866 19.2586C7.66928 19.2318 7.56905 19.2266 7.49321 19.2005L7.46506 19.043L7.43341 19.0723C7.41413 18.9428 7.36789 19.0259 7.32658 18.9111C7.29613 18.9187 7.29067 18.9739 7.28664 19.018C7.44976 19.1024 7.35445 19.291 7.46531 19.4082C7.40498 19.529 7.18813 19.1338 7.24326 19.4333C7.28258 19.4538 7.30794 19.5965 7.33662 19.505C7.27287 19.5426 7.39238 19.6773 7.29237 19.6825C7.30186 19.5832 7.14986 19.5946 7.16081 19.4471C7.18581 19.4947 7.2203 19.4431 7.22314 19.4207C7.16627 19.3918 7.13666 19.2826 7.08063 19.3328C7.05762 19.3796 7.01142 19.4256 7.06825 19.4915C7.12366 19.5687 7.11422 19.435 7.14525 19.5331C7.09759 19.6273 7.00592 19.5179 7.07059 19.6811C7.10508 19.6295 7.1694 19.6975 7.20447 19.7515L7.1772 19.8319L7.15362 19.773C7.04936 19.8119 7.19329 19.8886 7.10937 19.9506L7.00454 19.8838C6.96345 19.7794 7.14209 19.815 7.03265 19.6866C6.98061 19.7298 7.01141 19.8173 6.94044 19.8262C6.94327 19.8038 6.95453 19.7885 6.9548 19.7619C6.93441 19.7758 6.78849 19.6047 6.79225 19.7831C6.78395 19.8607 6.81583 19.8419 6.85089 19.8959C6.78169 19.9887 6.79658 20.0671 6.74897 20.1243C6.69032 20.0115 6.65215 20.2023 6.63549 20.04C6.70242 20.0752 6.81241 19.9545 6.77252 19.8285C6.66046 19.733 6.84775 19.786 6.77767 19.641C6.71272 19.7003 6.63232 19.5755 6.568 19.5074C6.54761 19.5214 6.55106 19.5675 6.55079 19.5941C6.59472 19.6761 6.61653 19.651 6.6703 19.7288C6.58616 19.7803 6.54622 19.8872 6.55685 19.9991C6.50862 19.9878 6.46633 19.9051 6.48792 19.8695C6.4173 19.9735 6.32049 20.0516 6.22486 20.1079C6.35874 20.1783 6.15446 20.2224 6.25766 20.2899C6.31857 20.2747 6.41476 20.324 6.42801 20.4031C6.39614 20.4218 6.39295 20.3491 6.36369 20.335C6.37575 20.4358 6.23847 20.2821 6.27694 20.4194C6.3258 20.3034 6.19072 20.2547 6.13957 20.144C6.12117 20.2524 6.09587 20.0725 6.04077 20.1276C6.02236 20.236 5.98078 20.3436 5.93454 20.4267C5.79521 20.4115 5.73665 20.6163 5.67285 20.6909C5.60308 20.6781 5.55477 20.5451 5.50392 20.5666C5.45773 20.6126 5.6174 20.6509 5.51597 20.6673L5.50711 20.6393C5.50307 20.6834 5.33187 20.687 5.41667 20.8629L5.35665 20.7242C5.33768 20.7269 5.34513 20.7661 5.34229 20.7885C5.31587 20.752 5.27819 20.7309 5.28222 20.6869C5.18625 20.6481 5.20154 20.7846 5.15956 20.8341L5.23656 20.8756C5.19635 21.0091 5.09496 20.9885 5.03583 21.0876L4.99048 21.0168L4.97328 21.1035C4.93941 21.0278 4.86986 21.0255 4.88311 21.1046L4.88627 20.8227C4.94598 20.8292 4.90697 20.941 4.97249 20.9874C5.02794 21.0274 5.08566 20.9395 5.05344 20.8631C5.02156 20.8819 5.0302 20.8994 5.02617 20.9435C4.95321 20.8579 4.99798 20.8231 4.97303 20.7384C4.96013 20.7544 4.9236 20.7487 4.93832 20.7795C4.93513 20.7068 4.95672 20.6712 5.00291 20.6251C4.99604 20.6916 5.05836 20.6652 5.06581 20.7044C5.01182 20.6161 5.04024 20.5511 5.11148 20.5157C5.21773 20.5713 5.17749 20.3501 5.26021 20.3098C5.28982 20.419 5.30187 20.5198 5.28609 20.5953C5.35564 20.5976 5.33228 20.5492 5.40183 20.5516C5.37945 20.471 5.3283 20.3604 5.35698 20.2688L5.4021 20.3291C5.42937 20.2488 5.36789 20.1583 5.44055 20.1117C5.56804 20.0366 5.67661 19.9271 5.76452 19.8581L5.80964 19.9184C5.76536 19.7413 5.92628 19.7208 5.94774 19.6006C6.09252 19.5605 6.1338 19.3207 6.25739 19.3742C6.40732 19.1467 6.53708 18.9435 6.73962 18.7784L6.76781 18.8988C6.75576 18.798 6.82469 18.9277 6.85027 18.8851C6.76179 18.8484 6.83241 18.7444 6.81752 18.666C6.94962 18.6525 7.00535 18.4701 7.03807 18.3345L7.08319 18.3948C7.08085 18.2052 7.23915 18.2176 7.34767 18.1452C7.37529 18.16 7.43074 18.2 7.45654 18.1679C7.43846 18.0168 7.47033 17.998 7.50305 17.8624C7.55652 17.808 7.66362 17.7468 7.74514 17.7282C7.8554 17.3851 8.12768 17.2698 8.28191 16.9716L8.34601 17.0292C8.44763 16.6686 8.79694 16.5578 8.92068 16.3042L8.98818 16.445C9.06806 16.4271 9.0933 16.2894 9.01891 16.215C9.0988 16.1971 9.11822 16.0195 9.22142 16.0869C9.29522 16.0557 9.25272 15.9625 9.28863 15.8997C9.43367 15.833 9.46816 15.7813 9.5606 15.6522L9.52872 15.671C9.53617 15.7102 9.57123 15.7642 9.6031 15.7454C9.61889 15.6699 9.77373 15.6361 9.63241 15.5266C9.80645 15.5005 9.85296 15.195 10.0417 15.1998C10.0038 15.1682 10.027 15.1319 10.0196 15.0927C10.1193 14.9923 10.2818 14.9711 10.316 14.8243C10.345 14.8279 10.3369 14.916 10.3801 14.8819C10.3941 14.8442 10.345 14.8279 10.3579 14.7748C10.4688 14.5373 10.74 14.5284 10.8772 14.3645C11.0877 14.0266 11.3873 13.7939 11.63 13.5324L11.6489 13.5667C11.6555 13.3681 11.926 13.4864 11.8755 13.2484C11.9146 13.2584 11.9611 13.1858 11.9858 13.26C11.9984 13.1117 12.2251 13.1481 12.2532 12.951C12.2417 12.9558 12.2403 12.967 12.2416 12.9929C12.385 12.964 12.4093 12.7843 12.5541 12.7442C12.5513 12.7665 12.5412 12.7973 12.5559 12.8281C12.6357 12.8473 12.5637 12.6078 12.6846 12.7313C12.7064 12.7062 12.6521 12.6445 12.6392 12.6605C12.9055 12.4949 13.083 12.1604 13.2966 11.8952C13.5241 11.8148 13.472 12.128 13.5332 11.8904C13.5634 11.9094 13.5037 11.8288 13.5267 11.8561C13.5521 11.766 13.7179 11.9393 13.6998 11.8252C13.6254 11.7508 13.6891 11.7503 13.654 11.6963C13.7962 11.652 13.8711 11.7103 13.9069 11.5628L13.9328 11.6154C13.9396 11.3902 14.0968 11.3501 14.0763 11.1206C14.5852 10.5717 15.0346 9.98976 15.5357 9.46533C16.0644 8.99276 16.5168 8.436 17.0869 8.00413C17.2914 8.00758 17.2977 7.99431 17.3965 7.81486C17.4045 7.83796 17.3981 7.85123 17.4215 7.8625C17.3606 7.75598 17.5088 7.76205 17.456 7.65206C17.6592 7.48133 17.8164 7.28247 18.0134 7.08794C17.9894 7.12984 18.0287 7.22439 18.0617 7.18393L18.0562 7.08039L18.0815 7.10145C18.0972 7.06303 18.0915 6.98606 18.0442 6.97961C18.4798 6.40881 19.1019 6.1296 19.5688 5.63025C19.7129 5.55866 19.8485 5.35834 19.9597 5.216C20.419 4.98453 20.8273 4.76409 21.1377 4.29921C21.1644 4.30909 21.2942 4.61939 21.1787 4.83237Z" fill="#1D1D1D"/>
</svg>
