<svg width="80" height="48" viewBox="0 0 80 48" fill="none" xmlns="http://www.w3.org/2000/svg">
<path opacity="0.8" d="M31.6175 7.48398C31.9112 9.8346 31.7028 12.9591 35.2215 10.3532C36.3514 9.55454 37.8565 8.28088 39.366 7.03335C41.3674 6.98377 43.3147 6.98806 45.2324 7.04209C45.5839 7.78006 46.5196 7.63185 47.6515 7.14624C51.388 7.34255 54.9954 7.74861 58.5597 8.34995L59.8882 8.58353L60.5532 8.70468L61.3789 8.87943C62.5338 9.13321 63.8538 9.46673 65.3723 9.92811C66.1467 10.1741 66.9349 10.4268 67.81 10.7455C68.6164 11.031 69.6747 11.4622 70.3994 11.7882C71.9559 12.476 73.4626 13.2439 74.8581 14.102C75.1941 14.2963 75.9046 15.2158 76.2221 16.3535C76.5534 17.4978 76.4394 18.8512 75.5118 19.8757C75.2056 20.536 74.8625 21.2026 74.5164 21.8517L73.4255 22.5812C72.7061 21.9856 71.6422 21.6718 71.4535 20.5483C70.9718 20.1635 71.533 18.9141 70.9652 18.5438C69.7108 17.6978 68.188 17.2103 66.8138 16.5545C66.4699 16.3884 66.1246 16.2136 65.8009 16.0172C65.4374 15.8096 65.0695 15.5759 64.7341 15.3098C64.0662 14.7951 63.4958 14.1835 63.048 13.399C62.9216 12.7217 61.711 13.2653 60.5677 13.8335C59.4259 14.4103 58.3637 15.0096 58.335 14.3876C58.0148 14.1369 57.7137 13.9994 57.3446 13.9091C57.0016 13.8235 56.6855 13.8228 56.3246 13.8566C55.6028 13.9241 54.7938 14.1495 53.9847 14.3749C52.3805 14.8324 50.7914 15.3053 50.0065 14.47C48.8376 12.929 48.9677 10.543 46.45 11.0554C46.0396 10.9452 46.1032 9.74353 45.6929 9.63335C42.353 9.91668 39.0116 10.1913 34.9957 11.4926C34.3849 11.3176 31.0625 15.2427 31.1139 14.0431C31.6421 11.7693 31.5081 10.5202 31.3604 9.26444C31.1614 9.20831 28.9115 12.219 28.5135 12.1067C26.4099 12.4511 26.8372 9.20025 25.3761 8.85461C25.6577 8.57449 25.9313 8.32256 26.1804 8.07475C27.9993 7.84093 29.8239 7.64193 31.6175 7.48398Z" fill="#F8F0ED"/>
<path opacity="0.8" d="M8.41534 21.4444C7.80787 23.0956 7.8435 23.9852 8.94668 23.6297C10.8551 22.951 13.9148 20.1715 14.936 20.4567C18.4764 20.2382 16.3376 29.3286 23.9536 22.972C30.6825 17.5793 31.0453 22.5242 34.1226 23.3864C34.7334 23.5614 34.2052 25.8352 34.8146 26.0015C36.8569 26.5719 38.7125 27.0841 40.5559 27.5984C41.9889 28.0025 45.5876 22.9384 46.5452 24.4254C46.7442 24.4815 48.5172 22.5449 48.7177 22.6098C50.6939 23.7644 53.2499 24.3829 56.3336 25.2082C57.8708 25.6306 59.3529 26.0264 60.8418 26.5376C62.3061 27.0528 63.7221 27.6568 64.9871 28.3398C62.4115 30.0888 59.8287 31.7942 57.5131 33.2845C57.279 31.8911 55.4357 31.3768 53.4003 31.45C51.3193 31.4771 49.3427 32.0509 47.7543 32.0758C45.3702 32.5568 43.202 31.9897 41.172 31.4172C39.1173 30.8489 37.0735 30.2698 34.3444 30.7281C31.848 31.0668 29.2032 31.3498 27.5031 30.4085C27.7454 30.0454 28.039 29.611 28.4041 29.0751C27.8907 29.5554 27.4659 29.8864 27.1018 30.1266L26.9113 29.9706C26.9593 29.7297 26.928 29.6185 26.707 29.8079C26.7679 29.8693 26.8396 29.9199 26.9113 29.9706C26.889 30.0639 26.8697 30.1746 26.8272 30.2981C24.0091 31.8819 25.7759 26.2211 23.7071 27.7506C16.5679 33.0331 17.42 24.7857 12.716 27.107C8.59828 28.4792 6.51176 27.4953 7.52665 22.3996C7.81761 22.1 8.10564 21.783 8.41534 21.4444Z" fill="#EBD5CC"/>
<path opacity="0.8" d="M14.8983 11.9555C15.4035 11.3512 15.8344 10.8311 16.1599 10.4361C14.3439 16.4813 17.0957 16.9863 19.8886 16.9829C20.0876 17.039 21.8606 15.1025 22.9483 14.2034C24.6454 13.4706 21.8796 18.7529 23.3762 17.9553C35.9642 11.7756 39.0751 19.9126 45.5735 22.9316C45.9839 23.0417 48.961 17.8135 50.2477 16.9705C51.4009 16.6873 52.1695 16.8985 53.0845 16.8523C53.5358 16.8302 54.0384 16.7368 54.6282 16.4856C55.2303 16.2322 55.8935 15.8163 56.8609 15.1792C57.7757 14.2286 56.4796 17.4999 56.5246 18.7461C56.8646 20.6949 58.5868 20.6385 60.7222 20.7097C61.79 20.7453 62.7629 20.7431 63.6248 20.9834C64.4607 21.2191 65.1076 21.6836 65.2538 22.5545C65.1771 23.6778 65.756 24.1896 66.3472 24.6992C66.9492 25.1981 67.562 25.6862 67.487 26.5943C66.649 27.1738 65.811 27.7534 64.9838 28.3221C63.7188 27.6391 62.3028 27.0351 60.8385 26.5199C59.362 26.0067 57.8675 25.6129 56.3303 25.1905C53.2343 24.3672 50.6783 23.7488 48.7144 22.5921C48.5154 22.536 46.7409 24.4638 46.5419 24.4077C45.8056 23.2597 42.3576 28.0925 40.5526 27.5807C38.6695 27.0552 36.892 26.5567 34.8113 25.9838C34.2005 25.8088 34.7287 23.5351 34.1193 23.3688C31.0435 22.5152 30.6792 17.5616 23.9503 22.9543C16.3343 29.3109 18.4854 20.2185 14.9327 20.439C13.9115 20.1538 10.8518 22.9334 8.94341 23.6121C7.84022 23.9675 7.80459 23.078 8.41206 21.4267C10.5387 19.0368 13.0546 15.5785 15.373 12.0727C15.2565 12.0565 15.0713 12.007 14.8983 11.9555Z" fill="#EEDCD4"/>
<path opacity="0.8" d="M16.9653 9.50472L17.8981 9.3391C18.1915 11.5375 19.9906 11.6383 22.7037 9.95583C22.7113 10.9038 23.1579 11.0795 24.4423 9.7713C24.7658 9.43937 25.0582 9.14847 25.3383 8.85963C26.8117 9.20321 26.3844 12.454 28.4757 12.1117C28.8861 12.2219 31.1237 9.21333 31.3227 9.26946C31.4704 10.5252 31.6043 11.7743 31.0761 14.0481C31.0111 15.2411 34.3349 11.3247 34.958 11.4976C38.9739 10.1963 42.3138 9.91299 45.6552 9.63837C46.0655 9.74855 46.0019 10.9503 46.4122 11.0604C48.9315 10.5567 48.8136 12.9407 49.9688 14.475C50.7522 15.3016 52.3427 14.8374 53.947 14.3799C54.7546 14.1458 55.5636 13.9204 56.2868 13.8616C56.6615 13.8345 56.9638 13.8285 57.3069 13.9142C57.6759 14.0044 57.9771 14.1419 58.2973 14.3926C58.3382 15.0126 59.399 14.4046 60.53 13.8385C61.661 13.2724 62.8716 12.7288 63.0103 13.404C63.458 14.1885 64.0408 14.7981 64.6963 15.3148C65.044 15.5788 65.4119 15.8125 65.7631 16.0222C66.0868 16.2186 66.4199 16.3955 66.7761 16.5595C68.1517 17.224 69.6731 17.7028 70.9275 18.5488C71.4967 18.9278 70.9341 20.1686 71.4158 20.5533C71.6045 21.6768 72.6699 21.9994 73.3878 22.5862L69.3297 25.2916L67.4666 26.6165C67.5416 25.7084 66.9288 25.2203 66.3267 24.7214C65.7355 24.2117 65.1689 23.698 65.2334 22.5767C65.0871 21.7058 64.4403 21.2413 63.6044 21.0056C62.7548 20.7632 61.7696 20.7675 60.7018 20.7319C58.5664 20.6607 56.8441 20.7171 56.5042 18.7683C56.4592 17.5221 57.7675 14.2487 56.8405 15.2014C55.8854 15.8364 55.2113 16.2631 54.6077 16.5077C54.018 16.759 53.5154 16.8524 53.0641 16.8745C52.1491 16.9207 51.3805 16.7095 50.2273 16.9927C48.942 17.8444 45.9526 23.0747 45.5531 22.9537C39.0533 19.9261 35.9561 11.7957 23.3558 17.9775C21.8577 18.7664 24.6358 13.482 22.9279 14.2256C21.8416 15.1334 20.0809 17.0678 19.8681 17.0051C17.0738 16.9998 14.322 16.4948 16.1395 10.4583C16.6693 9.84994 16.9653 9.50472 16.9653 9.50472Z" fill="#F4E7E1"/>
<path opacity="0.8" d="M7.52834 22.3996C6.4997 27.4887 8.58768 28.4813 12.7177 27.1071C17.4079 24.7791 16.5681 33.0244 23.7088 27.7506C25.7776 26.2211 24.0108 31.8819 26.8289 30.2982C26.5046 31.3019 25.7171 33.0102 27.5171 30.4065C29.2172 31.3478 31.862 31.0648 34.3584 30.7261C37.089 30.2764 39.1313 30.8468 41.186 31.4152C43.216 31.9876 45.3842 32.5548 47.7682 32.0738C49.3567 32.0488 51.3333 31.4751 53.4143 31.4479C55.4497 31.3747 57.293 31.889 57.5271 33.2825C54.2628 35.371 51.4001 37.1413 49.3474 38.3905C47.2932 39.6311 46.0366 40.3525 45.909 40.1949C44.8122 40.5134 43.9397 40.8122 43.2551 41.0257C42.5705 41.2391 42.0339 41.3561 41.8244 41.463C41.5062 41.5253 41.0988 41.4326 40.5573 41.219C40.2743 41.1143 40.0006 40.9902 39.6582 40.8328L38.4933 40.2941C37.9883 38.6416 37.0837 37.6205 35.4203 37.8013C35.9246 38.245 36.2889 38.9091 36.5444 39.7528C35.0862 39.0484 33.6764 38.2554 32.0997 37.5978C32.1828 37.566 32.2443 37.5556 32.3274 37.5238C31.9279 37.4028 31.5284 37.2818 31.0949 37.1845C30.4438 36.3178 28.9513 36.6132 27.5903 36.7881C27.1577 36.7712 26.4886 36.7761 25.7551 36.7739C25.595 36.6485 24.216 35.2862 22.4298 36.7682C22.1875 36.7552 22.0218 36.7472 21.956 36.7314C19.723 36.7572 17.2617 37.3049 14.8698 37.814C14.187 37.0601 13.2885 36.602 11.3851 37.6113C8.59089 39.2626 6.90656 37.8888 6.53568 38.3899C6.02758 38.2245 5.58154 37.977 5.1838 37.6409C5.50426 34.5065 5.23459 32.2235 3.35111 32.298C3.34619 31.5914 3.39104 30.8048 3.47482 29.9489C3.63037 28.3915 4.7943 26.0647 6.38031 23.5417C6.6944 23.2292 7.09659 22.8393 7.52834 22.3996Z" fill="#E6CABE"/>
</svg>
