<svg width="156" height="162" viewBox="0 0 156 162" fill="none" xmlns="http://www.w3.org/2000/svg">
<path d="M154.848 155.921C153.885 153.401 153.474 149.891 152.579 147.095C152.484 146.764 152.801 147.135 152.579 146.394C151.642 143.699 150.814 139.312 150.208 135.903L150.315 136.092C150.201 135.445 149.824 134.71 149.682 134.023C149.716 134.01 149.79 134.225 149.804 134.057C149.649 133.915 149.453 132.844 149.298 132.581C149.278 132.305 149.379 132.305 149.346 131.948L149.117 131.591C148.531 130.594 148.477 128.977 147.945 127.548C147.992 127.609 148.052 127.75 148.052 127.629C147.285 125.318 146.524 122.38 145.762 119.773C145.837 119.867 145.944 119.941 145.958 119.773C145.783 119.679 145.54 118.877 145.318 118.183C145.372 117.826 144.853 117.017 144.698 116.175L144.752 116.236C144.436 115.67 144.584 115.312 144.267 114.868L144.274 114.45C143.998 114.241 144.132 113.54 143.89 113.069L143.856 113.096C143.674 112.638 143.708 112.361 143.547 111.93L143.56 111.883C143.203 110.872 143.136 110.246 142.988 110.32C143.008 109.922 143.338 111.297 143.351 110.677C142.772 109.019 142.233 107.315 141.715 105.61C141.176 103.905 140.63 102.201 140.098 100.516C140.037 100.112 139.977 99.8628 140.011 99.7617C139.876 99.4315 139.573 98.5017 139.391 98.2255C139.431 98.3333 139.398 97.9829 139.344 97.801C139.196 97.1744 138.946 97.1946 138.791 96.5006C138.919 96.7499 139 96.824 139.027 96.7162C138.711 96.184 138.475 95.4158 138.205 94.7555C138.266 94.8499 138.34 95.0116 138.374 94.9644C137.99 94.2704 137.943 93.6101 137.64 92.9903L137.808 93.1991C137.559 92.1211 137.525 92.9566 137.263 92.0402C137.37 92.2424 137.377 92.1548 137.424 92.1817C136.959 91.4069 136.522 90.0391 136.165 89.2306C136.192 89.2777 136.212 89.2508 136.212 89.2508C135.862 88.3547 135.565 87.3912 135.134 86.4209C135.04 86.0436 135.397 86.4546 134.993 85.5181C134.831 85.6191 134.286 83.9347 134.306 84.5748C134.016 83.7528 133.572 82.4456 133.302 81.9336C133.511 82.2705 133.356 81.4552 133.639 82.1222L133.545 81.5697C133.646 81.6169 133.727 82.102 133.753 81.9066C133.612 81.5697 133.154 80.613 133.066 80.303C132.723 79.7169 132.265 79.2385 131.82 78.248C132.09 78.6927 131.895 77.8977 132.063 78.2076L131.133 76.9544C130.985 76.6242 131.241 76.8263 130.985 76.3614C130.952 76.4086 130.83 76.2065 130.736 76.0785C130.702 75.9437 130.103 74.7174 130.211 74.4951C130.217 74.3199 130.48 75.0206 130.379 74.6298C130.11 74.0167 130.056 74.01 129.773 73.4036L129.793 73.3833C129.632 72.9723 129.173 72.2379 129.281 72.7096C129.402 72.9926 129.335 72.5613 129.477 72.9926C129.248 72.7567 128.897 72.0627 128.614 71.4563C128.736 71.6517 128.769 71.6046 128.857 71.6652C128.345 70.9106 127.907 70.0684 127.429 69.1857C127.341 69.2059 127.732 69.4552 127.752 69.6102C127.328 68.3907 126.486 67.2789 126.149 66.2548C126.244 66.403 126.082 66.3963 126.095 66.3761C125.826 65.8168 125.954 65.7899 125.732 65.4463C125.779 65.3789 125.483 65.0016 125.274 64.6445C125.132 64.476 125.26 64.5299 125.429 64.8533C125.105 64.3682 123.987 62.3469 123.455 61.1206C123.422 61.1678 122.903 60.4873 122.762 60.2178L122.923 60.2717C122.849 59.9954 122.418 59.3755 122.485 59.2812C122.048 58.7691 123.805 61.4373 123.28 60.7096C123.253 60.4603 122.526 59.7124 122.755 59.8067C122.452 59.2677 122.054 58.8028 121.866 58.2369C121.933 58.3986 122.243 58.6007 122 58.1627C121.778 57.7854 121.738 57.7383 121.704 57.7046C121.67 57.6709 121.643 57.6641 121.529 57.489L121.374 57.307C121.313 57.4283 121.179 56.923 121.219 57.2464C121.212 57.0443 120.943 56.8421 120.936 56.4783C120.936 56.3435 120.943 56.2762 120.95 56.1751L120.93 56.1414C120.923 56.1212 120.916 56.1279 120.909 56.1549C120.903 56.202 120.896 56.2425 120.882 56.2829C120.869 56.3705 120.855 56.4648 120.849 56.5524C120.835 56.7141 120.829 56.8691 120.815 57.0308C120.802 57.0308 120.768 57.0308 120.761 56.9836C120.808 57.1858 120.775 57.2666 120.721 57.3811C120.674 57.489 120.593 57.6439 120.64 57.7787C120.626 57.7989 120.62 57.8056 120.6 57.8461L120.532 57.9943C120.492 58.0954 120.445 58.2032 120.404 58.311C120.323 58.5266 120.236 58.7557 120.155 58.9645C119.993 59.389 119.838 59.7596 119.71 59.9146C119.569 60.5142 119.455 61.0667 119.172 61.7068C119.199 61.5653 119.259 61.3834 119.226 61.3362C119.017 61.727 119.037 61.8483 118.936 62.2391C118.936 62.1448 118.512 63.0207 118.269 63.4519C118.121 64.0448 118.31 63.8898 118.357 63.9774C117.959 64.4221 117.899 65.6417 117.474 66.2278C117.515 66.019 117.676 65.3587 117.454 65.8101C117.057 66.2548 117.225 66.9218 116.814 67.7236L117.063 67.5821C116.821 67.919 116.713 68.8623 116.565 68.7073C116.525 69.0105 116.141 69.6776 116.343 69.6506C115.69 70.978 115.178 73.0397 114.565 73.7809C114.518 73.9898 114.309 74.4749 114.43 74.4007C114.646 74.1043 114.531 73.9156 114.646 73.8213C114.585 74.0032 114.619 74.0571 114.632 74.0841C114.437 74.5018 114.295 74.832 114.309 74.3738C113.851 75.2901 114.235 75.4653 113.709 76.6579C113.662 76.577 113.602 76.6579 113.474 77.015L113.339 77.7359C113.016 78.5108 113.016 78.12 112.888 78.0998C112.746 78.5243 112.551 79.0363 112.564 79.2587L112.221 79.7101C112.47 79.38 112.16 80.0807 112.113 80.2896L112.16 80.0807C112.079 80.1413 111.931 80.6332 111.85 80.8892C111.945 80.8623 112.16 80.3772 112.288 80.1144C112.261 80.3502 112.12 80.6803 112.073 80.9835C111.992 80.8488 111.729 81.6371 111.594 81.9673C111.426 82.3378 111.534 82.4389 111.487 82.5467C111.426 82.5332 111.238 83.1666 111.271 82.8364C111.298 82.7017 111.44 82.5602 111.473 82.3244C111.332 82.5602 111.244 82.4928 111.116 83.0386C111.022 83.4563 111.386 83.0251 111.022 83.7393C111.069 83.5304 111.035 83.4765 111.056 83.3081L110.726 83.9819L110.82 84.0492C110.759 84.1301 110.773 84.0627 110.739 84.1031C110.773 84.3524 110.362 85.1812 110.429 85.39C110.301 85.7471 110.072 86.1043 109.931 86.4344L109.944 86.367C109.722 86.7511 109.554 87.317 109.493 87.6876L109.48 87.6607C109.385 87.883 109.197 88.422 109.15 88.7252C108.853 89.2643 108.678 88.7657 108.57 89.4395C108.348 90.0189 108.409 90.4164 108.57 90.2076C108.099 91.2115 107.809 92.4512 107.27 93.3474C107.257 93.5091 107.318 93.4282 107.223 93.7449C106.59 95.2474 106.098 96.9992 105.412 98.1177C105.539 97.6595 105.317 98.0436 105.257 98.0301C105.209 98.4276 104.987 98.4276 105.095 98.623C105.203 98.623 105.236 98.6769 105.445 98.2659C105.135 99.189 104.59 100.563 104.307 101.028C104.448 100.793 104.401 101.001 104.354 101.21C104.233 101.082 103.943 101.743 103.795 102.268L103.856 102.376L103.633 102.666C103.586 102.868 103.741 102.955 103.452 103.42C103.404 103.434 103.357 103.447 103.297 103.528C103.162 104.081 102.994 104.862 102.69 105.394L102.367 105.805C102.286 106.055 102.199 106.493 102.414 106.082C101.943 107.012 101.687 107.631 101.444 107.887C101.061 109.659 100.084 112.065 99.2757 113.985L99.2285 113.898C98.9524 114.389 99.2353 114.214 99.04 114.558C99.0467 114.362 98.7369 114.895 98.8244 114.457C98.4473 115.164 98.555 115.461 98.3866 115.953C98.4473 116.06 98.4877 115.542 98.5618 115.683C98.5618 115.777 98.0701 116.674 98.1644 116.849C98.0364 117.01 97.996 116.828 97.9825 116.707L97.8613 117.186C97.4774 117.671 98.097 115.811 97.666 116.31L97.5178 116.734C97.2147 117.071 97.8074 115.569 97.3292 116.593C97.208 117.071 97.2416 117.543 97.4706 117.165C97.1137 118.122 97.6121 117.738 97.181 118.742C96.9857 118.985 97.4976 117.927 97.309 118.075C96.9992 118.506 96.9722 119.059 96.7567 119.463C97.0059 119.012 96.9722 119.47 96.8712 119.786C96.5951 120.278 96.8847 119.396 96.5614 120.123C96.5883 120.278 96.3661 120.972 96.6624 120.413C96.7298 120.75 96.2987 121.154 96.2718 121.606C96.0495 121.794 96.2987 120.736 95.9013 121.511C96.0764 121.437 95.6521 122.569 96.0091 122.219C95.8407 122.522 95.7329 122.508 95.7599 122.252C95.4972 122.67 95.5242 123.431 95.2278 123.479L95.2884 123.681C95.1874 123.802 95.0729 123.991 94.9112 124.193C94.7429 124.584 94.5408 125.534 94.3724 125.419C94.3387 125.554 93.9481 126.45 94.2242 126.16C94.5408 125.635 94.3994 125.48 94.7092 125.237C94.3994 125.574 94.3859 126.052 94.2983 126.396L94.204 126.416C94.1502 126.618 93.9481 127.056 93.975 127.211C93.9952 127.05 93.9144 127.104 93.8336 127.252L93.8538 127.501C93.5777 128.31 93.5844 127.602 93.2948 128.377L93.4564 127.764C93.4228 127.899 93.2072 128.114 93.086 128.492C93.1264 128.673 93.1331 128.99 93.1601 129.145C93.0254 129.59 92.9648 129.287 92.8907 129.758L93.0052 129.152C93.0052 129.058 92.6819 129.455 92.4461 130.028C92.3249 130.412 92.2239 131.038 92.527 130.486C92.4057 130.776 92.17 131.153 92.1969 130.89C91.9545 131.557 92.3384 130.85 92.1633 131.436C92.0016 131.638 91.5975 132.312 91.3146 132.703L91.4022 132.042L91.2338 132.433C91.3146 131.874 91.025 132.642 91.0048 132.298C90.8701 132.554 90.7758 132.898 90.7017 133.168C91.2607 132.487 90.6344 134.171 90.9374 134.037C90.5333 135.128 90.1562 134.488 89.9945 135.735C90.1292 135.573 90.0551 136.166 90.2841 135.472C89.9743 136.125 90.2976 136.011 89.8733 136.759C90.0349 136.146 89.4018 137.291 89.6375 136.402C89.6847 136.489 89.8867 135.957 89.9272 135.822C89.7318 136.065 89.7453 135.674 89.4557 136.355C89.3008 136.779 89.0583 137.345 89.1998 137.311C89.3277 137.345 89.4624 136.671 89.4624 136.988C89.1459 137.83 88.9034 137.891 88.964 138.322C89.1728 137.796 89.3547 137.716 89.4287 137.763L89.2132 138.389L89.1863 138.241C88.7081 139.184 89.1997 138.591 88.7754 139.521L88.4319 139.892C88.3983 139.609 89.0853 138.551 88.7956 138.625C88.5195 139.232 88.5397 139.481 88.2366 140.033C88.277 139.899 88.3376 139.717 88.3781 139.582C88.277 139.798 87.8931 139.892 87.6843 140.835C87.5564 141.314 87.7113 140.99 87.7853 141.031C87.3812 142.021 87.3341 142.351 87.0714 142.984C86.9704 142.782 86.573 144.096 86.7144 143.328C86.9434 143.045 87.5564 141.623 87.5564 141.212C87.2129 141.489 87.9201 140.451 87.819 140.161C87.4688 140.943 87.3071 140.828 87.132 140.903C87.031 141.118 86.9838 141.354 86.9502 141.489C87.0243 141.63 87.1455 141.347 87.2667 141.381C86.8559 142.243 86.5528 143.119 86.445 143.645C86.2564 143.914 86.1891 143.773 86.3305 143.422C85.9062 144.48 85.3943 145.585 84.9229 146.556C85.3876 145.996 84.4783 147.674 84.8218 147.31C85.098 146.798 85.428 146.401 85.3809 146.731C85.2192 147.054 85.3068 146.684 85.2057 146.805C85.1182 147.27 84.7545 147.391 84.7275 147.876C85.0912 146.899 84.5861 147.593 84.5187 147.351C84.2965 148.072 84.4312 147.276 84.1281 147.95C83.9058 148.671 83.596 149.54 83.2929 150.308C82.7272 151.198 82.2085 152.714 81.8314 153.57C81.562 153.981 81.5283 153.61 81.2858 154.075C81.0366 154.641 81.6495 153.731 81.1983 154.54L81.205 154.445C81.1309 154.715 80.4035 155.934 80.5247 156.285L80.4641 155.948C80.3766 156.096 80.3564 156.258 80.3159 156.399C80.2553 156.379 80.1206 156.541 80.2014 156.265C79.8512 156.73 79.73 157.356 79.4808 157.922L79.7502 157.605C79.3932 158.603 78.9958 159.202 78.6119 160.146L78.5244 160.071L78.3358 160.651C78.2954 160.469 78.0058 160.947 77.9519 161.278L78.356 159.728C78.5984 159.357 78.2819 160.22 78.4974 160.018C78.6793 159.842 79.043 158.973 79.0093 158.791C78.8477 159.115 78.8611 159.142 78.787 159.411C78.5985 159.458 78.8275 158.96 78.8477 158.67C78.7736 158.845 78.6187 159.068 78.6456 159.128C78.7332 158.758 78.8746 158.414 79.1305 157.848C79.0093 158.252 79.3124 157.68 79.2855 157.841C79.1777 157.74 79.3865 157.181 79.7367 156.5C80.1071 156.069 80.2351 155.146 80.6325 154.358C80.6123 154.742 80.5247 155.207 80.3564 155.726C80.646 155.247 80.6056 155.16 80.9019 154.681C80.9154 154.392 80.8548 154.149 81.0905 153.462L81.1983 153.468C81.4205 152.849 81.2791 152.781 81.6495 152.033C82.2826 150.746 82.8888 149.399 83.3401 148.395L83.4478 148.402C83.495 147.755 84.1955 146.508 84.4379 145.72C85.0912 144.48 85.5762 142.91 86.0207 142.317C86.93 140.027 87.7247 138.025 88.7754 135.694L88.7417 136.146C88.8226 135.681 88.9371 135.91 89.092 135.485C88.7822 135.91 89.193 134.852 89.2334 134.529C89.7857 133.531 90.2505 132.137 90.5468 131.173L90.6546 131.18C90.8836 130.169 91.5099 129.118 92.0353 127.959C92.1296 127.845 92.3114 127.67 92.4461 127.312C92.5606 126.612 92.7156 126.288 93.0119 125.318C93.3015 124.638 93.8067 123.553 94.1502 122.886C94.9988 120.231 96.2314 117.684 97.2012 114.962L97.3898 114.814C98.2115 112.132 99.7337 109.04 100.502 106.776L100.609 107.065C100.946 106.398 101.195 105.462 100.993 105.583C101.33 104.909 101.599 103.811 101.936 103.434C102.259 102.74 102.199 102.531 102.408 101.925C103.047 100.53 103.243 99.9908 103.741 98.6365L103.6 98.9667C103.586 99.1284 103.66 99.1755 103.802 98.8454C103.95 98.3266 104.583 97.0194 104.159 97.4304C104.866 96.0492 105.371 94.0346 106.099 92.7073C105.991 92.8016 106.112 92.4445 106.132 92.276C106.624 91.0161 107.27 89.7359 107.553 88.6848C107.661 88.4962 107.54 89.0487 107.742 88.5366C107.836 88.2199 107.661 88.4962 107.769 88.1121C108.436 86.0167 109.486 84.0088 110.167 82.1357C111.298 78.7736 112.679 75.3373 113.831 72.1369L113.864 72.1908C114.087 71.0588 114.976 69.7517 115.029 68.8017C115.164 68.5658 115.407 67.8449 115.427 68.0673C115.615 67.1711 116.417 65.7292 116.707 64.4356C116.659 64.5501 116.646 64.6175 116.619 64.7523C117.171 63.5462 117.441 62.4008 118.006 61.1206C117.98 61.2621 117.905 61.5114 117.939 61.5653C118.208 61.0869 118.175 60.2919 118.498 60.0965C118.599 59.8067 118.458 59.8472 118.404 60.0291C118.687 59.3149 118.956 58.5872 119.219 57.8461C119.616 56.7074 120.02 55.5552 120.424 54.3963L120.593 53.9112L120.68 53.6686L120.721 53.5474C120.734 53.5137 120.761 53.6013 120.781 53.6215L121.266 54.4839L122.263 56.2425C122.728 57.0577 123.199 57.8797 123.664 58.6883C124.641 60.7635 123.381 58.9982 124.405 60.5007C124.432 60.649 124.54 60.5546 124.506 60.5951C124.91 61.1745 124.769 61.6866 125.105 62.0572C125.146 61.8146 125.321 62.3065 125.408 62.2795C125.954 63.5732 125.961 63.8831 126.56 64.8196L126.452 64.7792C127.227 65.8438 127.813 67.225 128.48 68.1144C129.248 69.7315 130.002 71.3283 130.756 72.9117C131.47 74.5153 132.177 76.1121 132.885 77.7023C133.605 79.2856 134.245 80.896 134.898 82.4995C135.545 84.1099 136.225 85.7067 136.811 87.3507C137.397 88.9678 137.983 90.5781 138.569 92.1885C139.121 93.8055 139.674 95.4226 140.226 97.0396C140.792 98.65 141.297 100.294 141.809 101.938C142.314 103.582 142.839 105.233 143.291 106.924C143.56 108.554 143.6 108.669 144.193 110.367C144.139 110.306 144.099 110.199 144.106 110.327C144.287 110.367 144.483 111.533 144.678 111.654C145.345 114.147 146.039 116.424 146.739 118.985C146.618 118.58 146.429 118.412 146.571 118.897L146.806 119.375L146.786 119.47C146.894 119.793 147.069 120.13 147.035 119.78C148.915 126.187 150.147 132.642 151.716 138.976C152.006 140.498 152.572 142.634 152.989 144.265C153.905 149.176 154.727 153.596 156 158.508C155.973 158.488 155.407 157.936 154.848 155.921Z" fill="#1D1D1D"/>
<path d="M34.1656 0.372761C35.4049 0.817454 36.496 2.11784 37.742 2.74446C37.8835 2.82531 37.5804 2.88595 37.9037 3.06787C39.1497 3.6271 40.746 4.99487 41.9179 6.14029L41.8034 6.13355C42.0257 6.34916 42.45 6.41654 42.6992 6.63215C42.679 6.66584 42.5847 6.61867 42.6116 6.70626C42.7463 6.6591 43.1235 7.00946 43.2851 7.02294C43.3592 7.13748 43.2986 7.20486 43.3996 7.34635H43.6286C44.2415 7.39352 44.6457 8.10098 45.3192 8.37723C45.272 8.38397 45.2047 8.36375 45.2316 8.41765C46.2756 8.92299 47.4206 9.77868 48.4982 10.4592C48.4309 10.4659 48.3433 10.5131 48.3703 10.6007C48.505 10.5198 48.8485 10.722 49.1381 10.8972C49.1785 11.106 49.6971 11.1262 49.98 11.4227L49.9328 11.4294C50.2629 11.4699 50.2427 11.7529 50.5457 11.7394L50.6333 11.9415C50.8623 11.8472 50.9229 12.2717 51.1856 12.3256L51.2058 12.2851C51.4213 12.3727 51.4617 12.5277 51.6571 12.622V12.6557C52.1016 12.8983 52.2767 13.161 52.3575 13.0196C52.4249 13.2284 51.9265 12.7905 52.041 13.1004C53.4891 13.9089 54.863 14.9129 56.2438 15.8427C56.365 16.0044 56.4526 16.0852 56.4526 16.1594C56.6075 16.2267 56.9847 16.4895 57.1598 16.503C57.1126 16.476 57.2002 16.631 57.2675 16.6849C57.4831 16.9072 57.638 16.7253 57.8737 16.9679C57.739 16.9275 57.6716 16.9477 57.6784 17.0218C57.9815 17.0757 58.2846 17.3048 58.5876 17.4597C58.527 17.453 58.4529 17.4193 58.4327 17.4732C58.8166 17.5608 58.9648 17.8775 59.2814 17.9785L59.1265 17.9853C59.4902 18.3693 59.3622 17.9112 59.6922 18.2144C59.5845 18.1807 59.5979 18.2278 59.5575 18.2481C59.9953 18.3424 60.5207 18.7669 60.9046 18.9488C60.8776 18.9488 60.8709 18.969 60.8709 18.969C61.2615 19.2048 61.6252 19.508 62.0832 19.7236C62.2112 19.8584 61.9081 19.8786 62.3257 20.1144C62.4133 19.946 63.0464 20.4985 62.9252 20.1683C63.2484 20.4176 63.7469 20.8354 64.0095 20.9364C63.8142 20.896 64.0499 21.2396 63.7603 21.0644L63.9152 21.3003C63.8411 21.3407 63.7064 21.1318 63.7266 21.2598C63.8748 21.3474 64.3261 21.563 64.4406 21.6708C64.7639 21.7517 65.1276 21.7315 65.5654 21.9943C65.3229 21.9201 65.5654 22.2436 65.4105 22.1762L66.2052 22.2705C66.3534 22.3581 66.1581 22.412 66.3871 22.5063C66.4005 22.4592 66.5083 22.4929 66.5959 22.4996C66.6363 22.5535 67.2155 22.8432 67.1751 23.0386C67.1953 23.1397 66.9192 22.9173 67.0404 23.079C67.3031 23.2475 67.3502 23.2003 67.6196 23.3755L67.6129 23.4024C67.7745 23.5372 68.1719 23.672 68.0372 23.4631C67.916 23.3822 68.0237 23.5844 67.8756 23.4227C68.0574 23.4092 68.3807 23.5844 68.6434 23.7528C68.5356 23.7191 68.5221 23.7663 68.4548 23.7865C68.8858 23.8943 69.29 24.1032 69.7143 24.3053C69.7682 24.2379 69.4786 24.3457 69.4449 24.2649C69.8894 24.6961 70.5831 24.7972 70.9132 25.2216C70.8323 25.188 70.9401 25.0936 70.9334 25.1138C71.1691 25.2823 71.095 25.3834 71.2769 25.444C71.2499 25.5181 71.4924 25.5518 71.6675 25.6394C71.782 25.6461 71.6877 25.7 71.5463 25.6124C71.809 25.7068 72.7923 26.1919 73.2638 26.6231C73.2772 26.5759 73.6881 26.677 73.8093 26.7579L73.7016 26.8252C73.7756 26.9533 74.1191 27.0745 74.0855 27.1756C74.4222 27.2228 73.0146 26.6366 73.4254 26.7713C73.4658 26.9128 74.0181 26.9263 73.8565 27.0139C74.1057 27.1689 74.4088 27.2093 74.5906 27.4451C74.53 27.3845 74.3077 27.4518 74.5098 27.5731C74.8668 27.7753 74.6378 27.5866 74.9408 27.7348L75.1429 27.809C75.217 27.7214 75.446 28.0178 75.3854 27.8292C75.3786 27.937 75.9242 28.1054 75.7895 28.2402L75.6615 28.3345C75.8164 28.4221 75.9915 28.3615 76.1465 28.3817C76.1599 28.4086 76.1801 28.4558 76.1599 28.4693C76.3014 28.2941 76.5102 28.7118 76.7796 28.6781C77.0557 28.9476 77.5811 29.1902 77.6552 29.3991C77.938 29.4934 78.2007 29.5608 78.4566 29.7764C78.3893 29.7629 78.3085 29.7157 78.2681 29.7494C78.4095 29.9111 78.4836 29.8909 78.6587 29.9583C78.6048 29.965 78.9416 30.2884 79.0898 30.4771C79.3659 30.5714 79.3457 30.4165 79.4131 30.3693C79.5208 30.6927 80.1741 30.6725 80.3493 31.0161C80.2482 30.9892 79.9384 30.8881 80.1135 31.0633C80.2213 31.3867 80.6456 31.198 80.9487 31.5147L80.9554 31.3059C81.0565 31.5012 81.5414 31.5417 81.4067 31.6764C81.5616 31.6966 81.7973 31.9864 81.8512 31.8112C82.3564 32.3098 83.333 32.6197 83.5283 33.1116C83.6293 33.1385 83.8247 33.2935 83.8314 33.1857C83.7438 33.0172 83.5956 33.125 83.5822 33.0375C83.663 33.0779 83.7034 33.0442 83.7236 33.0307C83.8853 33.179 84.0267 33.2733 83.7708 33.3002C84.121 33.6439 84.35 33.2935 84.8349 33.6708C84.7743 33.718 84.7945 33.7651 84.9562 33.8527L85.3131 33.9201C85.6364 34.1492 85.4142 34.1829 85.3603 34.2907C85.5489 34.3783 85.7711 34.5198 85.8991 34.4861L86.0338 34.7556C85.9328 34.5602 86.2224 34.7825 86.3234 34.8028L86.2224 34.7758C86.2291 34.8432 86.4514 34.9375 86.5659 34.9914C86.5794 34.9106 86.384 34.7556 86.283 34.6613C86.4043 34.668 86.539 34.7691 86.6939 34.7825C86.5928 34.8634 86.9431 35.0386 87.0778 35.1329C87.226 35.2542 87.3203 35.1464 87.3674 35.1801C87.3405 35.2407 87.6301 35.3485 87.455 35.3485C87.3876 35.335 87.3607 35.2205 87.2394 35.207C87.3202 35.3148 87.2529 35.4024 87.5223 35.4698C87.7244 35.517 87.6031 35.234 87.886 35.4967C87.785 35.4698 87.7446 35.5035 87.657 35.5035L87.9264 35.7393L87.9938 35.6517C88.0207 35.6989 87.987 35.6921 88.0005 35.7191C88.1487 35.6719 88.4787 35.9684 88.6134 35.8943C88.7751 35.9751 88.8963 36.1503 89.031 36.2446L88.9973 36.2379C89.1388 36.3996 89.4014 36.5007 89.59 36.5276L89.5698 36.5411C89.6641 36.6085 89.8999 36.7298 90.0548 36.7432C90.2568 36.9588 89.9201 37.1542 90.2636 37.1947C90.5128 37.3362 90.762 37.2486 90.6946 37.1273C91.1055 37.4574 91.7049 37.5989 92.0349 37.9965C92.1225 37.9965 92.0956 37.9493 92.2437 38.0032C92.8768 38.4277 93.6985 38.7039 94.1161 39.2093C93.9006 39.1351 94.0488 39.2968 94.0151 39.3575C94.2239 39.3642 94.1498 39.5596 94.298 39.4451C94.3316 39.3507 94.3721 39.3171 94.2104 39.1688C94.628 39.3507 95.2342 39.6944 95.4026 39.9032C95.315 39.8022 95.416 39.8224 95.5171 39.8426C95.4093 39.9639 95.6854 40.1525 95.9346 40.2334L96.0155 40.166L96.1098 40.3345C96.2108 40.3547 96.3051 40.2064 96.4802 40.4153C96.4735 40.4557 96.4667 40.4962 96.4937 40.5433C96.7631 40.604 97.1537 40.6714 97.3558 40.887L97.4837 41.1295C97.5983 41.1767 97.8205 41.2036 97.6521 41.0621C98.0293 41.3788 98.2987 41.5473 98.3728 41.7292C99.2484 41.8841 100.313 42.4838 101.154 42.9757L101.087 43.043C101.282 43.2317 101.269 42.9959 101.404 43.1306C101.296 43.1508 101.505 43.3597 101.282 43.3395C101.572 43.5888 101.767 43.4608 101.996 43.5551C102.077 43.4877 101.794 43.5147 101.895 43.4271C101.949 43.4204 102.313 43.7438 102.434 43.6494C102.488 43.7438 102.374 43.8044 102.299 43.8314L102.535 43.8785C102.697 44.1683 101.828 43.8314 101.983 44.1615L102.178 44.2424C102.279 44.4782 101.606 44.1211 102.044 44.4243C102.279 44.4715 102.555 44.3839 102.407 44.2289C102.845 44.4243 102.771 44.0335 103.215 44.2963C103.296 44.4378 102.845 44.1143 102.872 44.2693C103.027 44.4917 103.33 44.4512 103.498 44.5927C103.316 44.4243 103.566 44.3973 103.714 44.4512C103.909 44.6399 103.498 44.4917 103.815 44.6871C103.909 44.6399 104.239 44.7544 104.01 44.559C104.219 44.458 104.32 44.7949 104.569 44.7612C104.61 44.9364 104.084 44.8488 104.408 45.1048C104.414 44.9566 104.933 45.1924 104.839 44.9229C104.96 45.0307 104.926 45.1318 104.785 45.1452C104.946 45.3271 105.384 45.2059 105.324 45.4686L105.458 45.3878C105.499 45.4619 105.573 45.536 105.64 45.6573C105.815 45.7584 106.293 45.8123 106.179 45.9807C106.246 45.9942 106.644 46.2233 106.556 46.0144C106.347 45.8055 106.219 45.947 106.172 45.7045C106.273 45.9335 106.543 45.8864 106.711 45.9201L106.698 46.0009C106.799 46.0211 106.987 46.1424 107.081 46.102C106.994 46.102 107.001 46.1694 107.061 46.2233L107.209 46.1694C107.587 46.3109 107.189 46.3985 107.546 46.5534L107.243 46.4928C107.31 46.5063 107.371 46.668 107.553 46.7219C107.667 46.6612 107.849 46.6141 107.944 46.5669C108.159 46.6275 107.971 46.7219 108.213 46.7286L107.903 46.7084C107.849 46.7219 107.984 46.9577 108.24 47.0924C108.422 47.1463 108.752 47.1531 108.523 46.9577C108.651 47.0251 108.799 47.18 108.664 47.1935C108.974 47.3215 108.684 47.0722 108.967 47.1463C109.035 47.2676 109.304 47.5304 109.452 47.7258L109.102 47.7393L109.277 47.8336C108.981 47.8403 109.338 47.9953 109.136 48.0559C109.243 48.1435 109.412 48.1772 109.547 48.2042C109.318 47.7999 110.099 48.1233 110.106 47.874C110.611 48.0829 110.146 48.5141 110.813 48.4804C110.759 48.3861 111.075 48.3659 110.745 48.2581C111.028 48.44 111.055 48.1705 111.358 48.4467C111.055 48.3861 111.527 48.7971 111.089 48.7095C111.15 48.6556 110.907 48.5478 110.84 48.5343C110.921 48.6758 110.705 48.7162 111.015 48.8847C111.21 48.9655 111.466 49.1003 111.486 48.979C111.54 48.8645 111.197 48.8375 111.379 48.7904C111.769 48.9521 111.742 49.1542 111.998 49.0397C111.756 48.9319 111.756 48.7836 111.803 48.7095L112.099 48.8106L112.005 48.8577C112.416 49.1475 112.207 48.7904 112.618 49.0397L112.739 49.2957C112.571 49.3698 112.153 48.9116 112.119 49.1609C112.389 49.3159 112.537 49.262 112.773 49.4507C112.705 49.4372 112.625 49.4035 112.557 49.39C112.652 49.4507 112.604 49.7741 113.083 49.828C113.318 49.8751 113.177 49.7808 113.224 49.7067C113.682 49.9156 113.857 49.9088 114.147 50.0503C114.005 50.1716 114.645 50.3333 114.248 50.3198C114.147 50.1514 113.507 49.8212 113.271 49.8819C113.339 50.1447 112.934 49.673 112.746 49.801C113.096 49.9964 112.988 50.1649 112.982 50.3064C113.076 50.367 113.197 50.367 113.264 50.3805C113.365 50.2929 113.238 50.2255 113.285 50.111C113.669 50.3535 114.079 50.495 114.356 50.5018C114.457 50.623 114.362 50.7106 114.194 50.6365C114.686 50.8589 115.177 51.1418 115.608 51.4114C115.413 51.0812 116.134 51.6337 116.012 51.3844C115.797 51.216 115.655 50.9801 115.831 50.9734C115.972 51.0677 115.783 51.0475 115.824 51.1216C116.066 51.1284 116.039 51.4383 116.309 51.3844C115.851 51.216 116.113 51.5596 115.959 51.6539C116.309 51.7415 115.891 51.7482 116.201 51.91C116.551 51.9975 116.962 52.139 117.326 52.294C117.69 52.6578 118.424 52.8667 118.814 53.0621C118.983 53.2373 118.76 53.3249 118.969 53.4664C119.232 53.5944 118.868 53.1969 119.212 53.4664L119.158 53.4798C119.293 53.5001 119.804 53.9515 120.033 53.783L119.825 53.8909C119.885 53.9448 119.973 53.938 120.04 53.9515C120.013 54.0121 120.074 54.0997 119.932 54.0795C120.107 54.3221 120.438 54.3153 120.7 54.4433L120.586 54.2547C121.071 54.4029 121.313 54.659 121.751 54.8409L121.69 54.9352L121.973 55.0093C121.859 55.0767 122.061 55.2586 122.236 55.2451L121.455 55.1508C121.3 54.9958 121.717 55.1373 121.65 54.9756C121.596 54.8409 121.185 54.659 121.077 54.7263C121.226 54.8139 121.239 54.8005 121.374 54.8207C121.353 54.9824 121.125 54.8611 120.963 54.8948C121.044 54.9285 121.138 55.0295 121.172 54.9958C120.983 54.9824 120.821 54.915 120.559 54.7802C120.761 54.8139 120.505 54.6455 120.592 54.6387C120.512 54.7533 120.242 54.659 119.939 54.4568C119.784 54.2008 119.293 54.2345 118.942 54.0054C119.158 53.9582 119.4 53.9582 119.649 54.0256C119.447 53.8437 119.387 53.8976 119.191 53.7089C119.03 53.7426 118.875 53.8437 118.545 53.7426L118.579 53.6416C118.282 53.5472 118.208 53.682 117.871 53.4731C117.292 53.1227 116.679 52.7926 116.228 52.5366L116.262 52.4355C115.905 52.4961 115.379 52.0582 114.995 51.9638C114.463 51.5663 113.689 51.3777 113.473 51.0677C112.416 50.5893 111.48 50.1918 110.442 49.5787L110.692 49.545C110.449 49.5383 110.611 49.4035 110.415 49.3226C110.57 49.545 110.085 49.3159 109.91 49.3294C109.499 48.9723 108.833 48.7499 108.368 48.6152L108.402 48.5141C107.89 48.4535 107.465 48.029 106.96 47.7191C106.92 47.6517 106.873 47.5102 106.711 47.4361C106.347 47.4226 106.206 47.335 105.734 47.2002C105.431 47.0385 104.96 46.7219 104.684 46.4928C103.431 46.0548 102.34 45.2732 101.087 44.7342L101.06 44.5793C99.7805 44.1683 98.494 43.1576 97.4568 42.7062L97.6521 42.5781C97.376 42.3491 96.9315 42.2278 96.9315 42.3962C96.6553 42.1671 96.1165 42.0459 96.0087 41.7831C95.7124 41.5675 95.5777 41.6483 95.3015 41.5203C94.7156 41.0958 94.4731 40.9746 93.8602 40.6646L94.0016 40.7589C94.0892 40.7589 94.1363 40.6848 94.0016 40.5905C93.7524 40.5164 93.2203 40.0717 93.3146 40.4153C92.7623 39.9235 91.7925 39.6539 91.2806 39.1284C91.3008 39.216 91.1391 39.1351 91.0516 39.1351C90.4993 38.8117 89.9941 38.3536 89.4957 38.1918C89.4284 38.111 89.6911 38.1784 89.4755 38.0369C89.3274 37.983 89.4284 38.111 89.2465 38.0436C88.2901 37.6259 87.5088 36.8712 86.6871 36.4063C85.1919 35.6517 83.7304 34.6949 82.3496 33.8864L82.39 33.8527C81.831 33.7382 81.4202 33.024 80.9083 33.0442C80.8275 32.9364 80.5109 32.7679 80.6389 32.741C80.2078 32.6265 79.6892 32.0066 79.0763 31.8247C79.1234 31.8583 79.1571 31.8651 79.2245 31.8853C78.753 31.4676 78.2074 31.2991 77.6956 30.8746C77.7629 30.8948 77.8774 30.942 77.9178 30.9083C77.7495 30.6927 77.2982 30.7668 77.3049 30.4906C77.1769 30.4165 77.1567 30.5377 77.2308 30.5782C76.0522 29.7427 74.6782 29.0352 73.385 28.2806C72.5566 27.5866 73.5466 27.91 72.7317 27.6001C72.698 27.526 72.6374 27.6472 72.6576 27.6001C72.3478 27.4788 72.368 27.1015 72.112 27.088C72.112 27.2632 71.9369 27.0745 71.8898 27.1487C71.3846 26.7174 71.3442 26.5355 70.8525 26.3469L70.9266 26.3064C70.3003 26.1582 69.7749 25.6798 69.2091 25.6057C67.7813 24.7231 66.3871 23.8606 64.9996 22.9982C63.6189 22.129 62.2449 21.2666 60.8776 20.3772C58.2172 18.5378 55.5366 16.8533 52.9166 14.8724C52.3979 14.266 52.3508 14.2391 51.6099 13.8213C51.6571 13.8146 51.7042 13.8416 51.6773 13.7809C51.5493 13.8955 51.1789 13.4508 51.024 13.5384C50.0473 12.8174 49.0977 12.2245 48.0874 11.4968C48.2558 11.5979 48.4174 11.544 48.2221 11.416L47.9325 11.3755L47.9257 11.3149C47.7843 11.2408 47.589 11.2071 47.6967 11.3486C45.0565 9.65067 42.7396 7.58891 40.2408 5.79666C39.6885 5.31154 38.8129 4.75231 38.1529 4.31435C36.4017 2.73772 34.8122 1.32279 32.8051 0.022397C32.8118 0.022397 33.317 -0.132572 34.1656 0.372761Z" fill="#1D1D1D"/>
<path d="M0.0179972 96.3725C-0.103237 95.1193 0.603965 93.6572 0.644376 92.3231C0.664582 92.1681 0.839698 92.4107 0.866639 92.0603C0.859904 90.7532 1.47281 88.8397 2.04531 87.3843L2.07899 87.4921C2.18675 87.2159 2.07899 86.8183 2.18001 86.5219C2.22043 86.5286 2.21369 86.6297 2.28104 86.5758C2.18001 86.4747 2.35513 86.0165 2.30125 85.8616C2.37534 85.7538 2.46289 85.7875 2.55045 85.6392L2.46289 85.4304C2.26084 84.8711 2.76598 84.258 2.75925 83.564C2.77945 83.6044 2.79292 83.6718 2.83333 83.6314C2.88722 82.5264 3.26439 81.2125 3.48665 80.0132C3.52033 80.0738 3.59442 80.1345 3.66851 80.0806C3.54727 79.9862 3.60115 79.6157 3.65504 79.2922C3.83015 79.1844 3.66177 78.7128 3.83015 78.3624L3.85709 78.4029C3.76953 78.0795 4.03894 78.0121 3.91097 77.7426L4.06589 77.5943C3.8975 77.4191 4.27468 77.2238 4.22753 76.9745L4.18712 76.9677C4.19386 76.7386 4.32183 76.6578 4.34203 76.4489L4.36897 76.4354C4.43632 75.957 4.61818 75.7145 4.45653 75.6875C4.62491 75.5595 4.39591 76.1524 4.64512 75.9436C4.88085 74.3737 5.31191 72.8105 5.73623 71.281C5.84399 71.1261 5.89788 71.0183 5.96523 70.9981C5.97196 70.8363 6.0932 70.4119 6.05279 70.2502C6.03932 70.3041 6.16055 70.176 6.18749 70.0952C6.3222 69.8324 6.09993 69.7448 6.25484 69.4551C6.26158 69.5899 6.30199 69.6438 6.36934 69.6168C6.31546 69.3203 6.42996 68.9767 6.47711 68.66C6.49058 68.714 6.48384 68.7948 6.53772 68.7948C6.49058 68.4175 6.73305 68.1884 6.72631 67.865L6.78693 67.9997C7.0294 67.5551 6.63875 67.8044 6.82061 67.4136C6.82061 67.5214 6.86775 67.4944 6.89469 67.5214C6.84081 67.0901 7.06981 66.4905 7.12369 66.093C7.13043 66.1199 7.15737 66.1199 7.15737 66.1199C7.25166 65.6954 7.42678 65.2777 7.4874 64.7993C7.57495 64.6443 7.68945 64.9139 7.78375 64.4692C7.6019 64.4355 7.91845 63.701 7.64231 63.9032C7.77701 63.5326 8.01275 62.9599 8.02622 62.6904C8.04642 62.879 8.30236 62.5691 8.22154 62.8858L8.39666 62.6837C8.45727 62.7376 8.30236 62.9195 8.41686 62.8723C8.45727 62.7106 8.51789 62.239 8.59198 62.1042C8.56504 61.7808 8.43707 61.4574 8.55157 60.979C8.5583 61.2216 8.7873 60.9116 8.77383 61.0733L8.61892 60.3187C8.65933 60.157 8.77383 60.3254 8.7873 60.0896C8.73342 60.0896 8.73342 59.9818 8.71995 59.9009C8.76036 59.847 8.86812 59.2406 9.06345 59.2272C9.151 59.18 9.02303 59.4899 9.13753 59.3417C9.21836 59.052 9.16447 59.025 9.2453 58.7353H9.27224C9.35306 58.5534 9.3598 58.1491 9.20489 58.3311C9.15774 58.4591 9.32612 58.3108 9.21836 58.4928C9.15774 58.3311 9.22509 57.9807 9.31265 57.6977C9.31265 57.8055 9.3598 57.8055 9.40021 57.8594C9.38 57.4282 9.46082 57.0104 9.53491 56.559C9.45409 56.5253 9.63594 56.7679 9.57533 56.8151C9.85821 56.2962 9.75718 55.6225 10.0737 55.2182C10.067 55.2991 9.93903 55.2249 9.96597 55.2249C10.0603 54.9622 10.1748 55.0093 10.1815 54.8274C10.2556 54.8341 10.2286 54.6051 10.2556 54.4164C10.2286 54.3086 10.3027 54.3827 10.2623 54.5377C10.2758 54.2682 10.4711 53.2373 10.754 52.6983C10.7001 52.6915 10.6934 52.294 10.7405 52.1593L10.8348 52.2468C10.9358 52.1458 10.9628 51.8022 11.0638 51.8089C11.0167 51.4855 10.8348 52.9274 10.8483 52.5164C10.9695 52.449 10.8416 51.9302 10.9628 52.0582C11.0436 51.7954 11.0032 51.499 11.1851 51.2766C11.1446 51.344 11.2659 51.5394 11.3265 51.3238C11.4275 50.9397 11.3063 51.2025 11.3669 50.8858L11.3804 50.6769C11.2793 50.6298 11.5016 50.3468 11.34 50.4479C11.441 50.4277 11.4612 49.8819 11.6228 49.9762L11.7441 50.0705C11.7845 49.9021 11.6835 49.7606 11.6633 49.6124C11.6835 49.5922 11.7239 49.5585 11.7441 49.5787C11.5353 49.4844 11.8855 49.1946 11.7845 48.9521C11.9663 48.6354 12.0674 48.0896 12.256 47.9684C12.2762 47.6854 12.2762 47.4226 12.4243 47.1396C12.4243 47.207 12.4041 47.2878 12.4445 47.3215C12.5658 47.1531 12.5254 47.0925 12.5523 46.9105C12.5725 46.9577 12.8015 46.5804 12.943 46.3917C12.9632 46.1087 12.8217 46.1626 12.7611 46.1155C13.0507 45.947 12.8689 45.3406 13.1585 45.1048C13.1585 45.2059 13.1383 45.5158 13.2595 45.3204C13.5491 45.152 13.2595 44.7881 13.4885 44.4445L13.2797 44.4782C13.4414 44.3434 13.3673 43.8785 13.5289 43.9796C13.5087 43.8314 13.7377 43.5484 13.5491 43.5349C13.8994 42.9555 13.9802 41.9785 14.418 41.7022C14.418 41.6012 14.5257 41.3856 14.4247 41.4058C14.2765 41.5203 14.4247 41.6349 14.3372 41.6685C14.3574 41.5877 14.3169 41.554 14.2967 41.5338C14.4045 41.3519 14.4651 41.2036 14.5459 41.4327C14.8019 41.0352 14.4112 40.887 14.6672 40.3614C14.7278 40.4086 14.7682 40.3749 14.8154 40.2132V39.8561C14.9635 39.5125 15.0444 39.7079 15.1656 39.7415C15.2127 39.5462 15.2936 39.3103 15.2329 39.1958L15.4619 39.0139C15.2936 39.1419 15.4417 38.8319 15.4485 38.7309V38.8319C15.5091 38.8117 15.5562 38.5826 15.5764 38.4681C15.4956 38.4681 15.3879 38.6837 15.3205 38.7983C15.3003 38.6837 15.3676 38.5355 15.3474 38.3873C15.4485 38.4681 15.5428 38.1043 15.6034 37.9628C15.6909 37.8011 15.5697 37.7337 15.5899 37.6798C15.6505 37.6933 15.6977 37.4035 15.7381 37.5652C15.7381 37.6326 15.6303 37.6798 15.6505 37.7943C15.7381 37.6933 15.8391 37.7472 15.8458 37.4844C15.8526 37.289 15.5966 37.4507 15.792 37.134C15.792 37.2351 15.8324 37.2688 15.8458 37.3496L16.021 37.0532L15.9199 36.9993C15.9603 36.9656 15.9603 36.9993 15.9806 36.9858C15.8997 36.851 16.1153 36.4872 16.0142 36.3727C16.0614 36.211 16.2096 36.0627 16.2702 35.9145V35.9482C16.3981 35.7865 16.4453 35.5237 16.4318 35.3418L16.452 35.3553C16.4992 35.2542 16.5665 35.0116 16.5463 34.8567C16.7147 34.6276 16.9774 34.9106 16.9437 34.5804C17.0313 34.3176 16.8965 34.102 16.7888 34.1829C17.0245 33.7382 17.0447 33.1453 17.368 32.768C17.3478 32.6871 17.3074 32.7208 17.3343 32.5726C17.624 31.8988 17.7385 31.0768 18.1493 30.6051C18.1224 30.8207 18.2503 30.659 18.311 30.6725C18.2773 30.4704 18.4793 30.5108 18.3379 30.3895C18.2369 30.3693 18.1965 30.3356 18.0887 30.5175C18.1897 30.0863 18.412 29.4665 18.5871 29.2711C18.4995 29.3654 18.5063 29.2711 18.5063 29.17C18.6477 29.2576 18.7824 28.9611 18.8094 28.7118L18.7285 28.6444L18.8767 28.5299C18.8834 28.4288 18.7218 28.3615 18.8969 28.1661C18.9373 28.1661 18.9777 28.1661 19.0182 28.1391C19.0316 27.8763 19.0316 27.4923 19.2067 27.2699L19.4223 27.1082C19.4492 26.9937 19.4357 26.7781 19.328 26.96C19.5772 26.5557 19.6917 26.2795 19.8601 26.1852C19.8601 25.3295 20.2574 24.2312 20.6144 23.3688L20.675 23.4227C20.8299 23.2138 20.6009 23.2542 20.7154 23.1127C20.7491 23.2138 20.931 22.9915 20.9377 23.2071C21.1398 22.9039 20.9848 22.7287 21.0387 22.4996C20.9579 22.4322 21.0253 22.695 20.931 22.6074C20.9108 22.5602 21.1802 22.1695 21.0657 22.0684C21.1532 22.0077 21.2273 22.1088 21.2677 22.1762L21.2812 21.9471C21.5371 21.7584 21.3418 22.6276 21.6449 22.439L21.6988 22.2436C21.9143 22.1223 21.6651 22.8028 21.9008 22.3514C21.9143 22.1223 21.7796 21.8663 21.6516 22.028C21.7796 21.59 21.4024 21.7045 21.591 21.2464C21.719 21.1521 21.4698 21.6237 21.6112 21.5765C21.8065 21.4013 21.719 21.1184 21.8335 20.9432C21.6988 21.1386 21.6314 20.9028 21.6584 20.7545C21.8133 20.5457 21.7257 20.9567 21.8739 20.6332C21.8133 20.5456 21.8739 20.2222 21.719 20.4648C21.5843 20.2761 21.9008 20.1414 21.8335 19.9056C22.0019 19.8449 21.9951 20.3637 22.1972 20.0201C22.0557 20.0268 22.2039 19.508 21.9547 19.6293C22.0423 19.5013 22.1433 19.5215 22.1837 19.6563C22.3386 19.4811 22.1568 19.0768 22.4195 19.1038L22.3252 18.9825C22.3925 18.9353 22.4599 18.8545 22.5676 18.7804C22.6417 18.6052 22.6282 18.1403 22.8101 18.2279C22.8168 18.1605 22.9852 17.7562 22.7899 17.864C22.608 18.0864 22.7697 18.1942 22.5407 18.2615C22.7562 18.1403 22.6687 17.891 22.6754 17.7225L22.7562 17.7293C22.763 17.6282 22.8572 17.4395 22.8034 17.3519C22.8168 17.4328 22.8842 17.4193 22.9246 17.3587L22.8505 17.2239C22.9381 16.8466 23.0795 17.2172 23.1805 16.8601L23.1603 17.1566C23.1671 17.0892 23.3152 17.0151 23.3422 16.8399C23.2681 16.7388 23.194 16.5704 23.1401 16.4828C23.1738 16.2739 23.2883 16.4424 23.2614 16.2065L23.2816 16.503C23.3018 16.5569 23.5173 16.4019 23.6116 16.1391C23.6453 15.9572 23.5981 15.6473 23.4432 15.8831C23.4904 15.7551 23.6251 15.5934 23.6587 15.7281C23.7396 15.4182 23.5375 15.7214 23.5712 15.4452C23.6789 15.3643 23.9012 15.0813 24.0763 14.9264L24.1437 15.2565L24.211 15.0813C24.2582 15.3643 24.3592 15.0072 24.4535 15.1891C24.5209 15.0746 24.5343 14.9129 24.5411 14.7781C24.1774 15.0409 24.3794 14.2593 24.1302 14.2863C24.2582 13.7809 24.7499 14.1785 24.6219 13.5518C24.5343 13.6125 24.467 13.316 24.4131 13.6462C24.5545 13.3565 24.2851 13.3632 24.5007 13.0398C24.4872 13.3362 24.8172 12.8376 24.797 13.2621C24.7364 13.2082 24.6623 13.4575 24.6623 13.5182C24.7903 13.4238 24.8644 13.626 24.9789 13.316C25.026 13.1206 25.1203 12.8579 24.9991 12.8579C24.8778 12.8242 24.9048 13.1476 24.8307 12.9859C24.9317 12.5951 25.1338 12.6018 24.9789 12.366C24.9048 12.6086 24.7633 12.622 24.6825 12.5883L24.7364 12.2919L24.797 12.3727C25.0193 11.955 24.7027 12.1908 24.8778 11.7663L25.1068 11.6248C25.2079 11.7731 24.8239 12.2245 25.0664 12.2312C25.1742 11.955 25.1001 11.8202 25.2483 11.5777C25.2483 11.6451 25.2213 11.7259 25.2213 11.7933C25.2617 11.699 25.5918 11.699 25.5648 11.2408C25.5716 11.0117 25.5042 11.1599 25.4234 11.1263C25.5513 10.6681 25.5177 10.5064 25.6052 10.2099C25.7467 10.3245 25.8006 9.70458 25.8544 10.0819C25.7063 10.1964 25.4907 10.85 25.5918 11.0656C25.841 10.9713 25.4436 11.4092 25.5985 11.5777C25.7332 11.2206 25.9151 11.3014 26.0565 11.288C26.0969 11.1936 26.0834 11.0723 26.0834 11.005C25.9824 10.9241 25.9353 11.0521 25.814 11.0184C25.9824 10.6277 26.0565 10.2167 26.0161 9.95388C26.1171 9.83934 26.2181 9.92019 26.1777 10.0819C26.299 9.59004 26.4943 9.07797 26.6694 8.63328C26.3865 8.8691 26.7839 8.10773 26.5616 8.25596C26.4404 8.49178 26.2383 8.65349 26.1979 8.49178C26.2586 8.34355 26.2788 8.52547 26.3394 8.47157C26.2922 8.24249 26.6021 8.22227 26.4943 7.97971C26.4202 8.43788 26.7031 8.14142 26.831 8.26944C26.8445 7.92581 26.9321 8.3166 27.0331 7.99993C27.0466 7.6563 27.0937 7.23856 27.1678 6.87472C27.444 6.47045 27.4776 5.74277 27.5854 5.33851C27.7134 5.14985 27.8548 5.33177 27.9356 5.10942C27.9962 4.83991 27.6999 5.26439 27.875 4.88708L27.902 4.93424C27.8885 4.80622 28.205 4.23351 27.9693 4.05159L28.131 4.22004C28.1646 4.14592 28.1377 4.07181 28.131 4.00443C28.1916 4.01791 28.2657 3.93705 28.2791 4.07181C28.461 3.84946 28.3734 3.54626 28.4273 3.27675L28.2791 3.42498C28.2926 2.9466 28.4542 2.65688 28.5014 2.19871L28.6092 2.2324L28.5957 1.95615C28.69 2.037 28.8045 1.80792 28.7371 1.64621C28.791 1.89551 28.8382 2.14481 28.8853 2.3941C28.7843 2.57602 28.791 2.15828 28.663 2.25935C28.5485 2.34694 28.5014 2.76468 28.5957 2.85227C28.6361 2.6973 28.6159 2.68383 28.5957 2.54907C28.7573 2.52212 28.7102 2.76468 28.7843 2.90617C28.791 2.81858 28.8651 2.71078 28.8179 2.68383C28.8584 2.85901 28.8449 3.03419 28.791 3.31044C28.7708 3.11505 28.6765 3.39129 28.6428 3.31044C28.7708 3.3576 28.7573 3.62712 28.6496 3.95727C28.4475 4.16614 28.6092 4.61083 28.4677 4.99488C28.3734 4.80622 28.3128 4.57714 28.3128 4.32784C28.1848 4.55693 28.2522 4.59735 28.1242 4.82644C28.1983 4.96793 28.333 5.08921 28.3128 5.4261L28.2118 5.41936C28.1916 5.72256 28.333 5.75625 28.2118 6.12009C28.003 6.73323 27.8077 7.37331 27.6595 7.84496L27.5585 7.83148C27.6932 8.16163 27.3631 8.7276 27.3497 9.11166C27.06 9.67763 27.0129 10.4457 26.7368 10.6883C26.4539 11.7663 26.1845 12.7029 25.7467 13.7675L25.6726 13.5316C25.6995 13.7607 25.5446 13.626 25.4975 13.8214C25.6928 13.6462 25.5446 14.138 25.5783 14.3065C25.2887 14.7444 25.1674 15.398 25.1001 15.8629L24.9991 15.8427C25.0125 16.3413 24.6556 16.786 24.4131 17.3048C24.3525 17.3519 24.2245 17.4126 24.1706 17.5743C24.211 17.9247 24.1369 18.0662 24.0696 18.5311C23.9484 18.841 23.7126 19.3194 23.5308 19.6091C23.295 20.8556 22.6956 21.9808 22.3588 23.234L22.2107 23.2744C21.9884 24.5344 21.2341 25.8954 20.9781 26.9398L20.8232 26.7713C20.6481 27.0611 20.6009 27.5058 20.7693 27.4788C20.5942 27.7685 20.5673 28.3008 20.3315 28.4356C20.1766 28.7455 20.2709 28.8601 20.1968 29.1363C19.887 29.7562 19.8129 29.9987 19.6311 30.6253L19.6984 30.4771C19.6782 30.3963 19.5974 30.3558 19.53 30.5041C19.5031 30.7534 19.1731 31.3193 19.4829 31.1778C19.1124 31.7775 19.0384 32.7343 18.6275 33.3002C18.7083 33.2666 18.6612 33.435 18.6814 33.5159C18.4726 34.0886 18.1358 34.6411 18.082 35.1397C18.0213 35.2205 18.0281 34.9577 17.9338 35.1868C17.9068 35.335 18.0146 35.2205 17.9877 35.4024C17.7789 36.3727 17.1996 37.2351 16.937 38.0908C16.5261 39.6337 15.9401 41.1834 15.4687 42.632L15.4283 42.5984C15.4417 43.1441 14.8558 43.6697 14.9972 44.148C14.9164 44.2491 14.8288 44.5793 14.7682 44.4647C14.7682 44.8959 14.29 45.5091 14.2698 46.1155C14.29 46.0683 14.29 46.0346 14.29 45.9672C14.0004 46.4995 13.9802 47.0385 13.6906 47.6045C13.6906 47.5371 13.7108 47.4226 13.6704 47.3889C13.502 47.591 13.6906 47.9953 13.4212 48.0492C13.3807 48.184 13.502 48.1772 13.5222 48.0964C13.0103 49.3698 12.714 50.8184 12.3368 52.1929C11.8923 53.1228 11.9394 52.1323 11.8586 52.9543C11.798 53.0015 11.9327 53.0284 11.8788 53.0217C11.8451 53.3384 11.4814 53.4057 11.5353 53.6483C11.7037 53.6079 11.569 53.81 11.6565 53.8437C11.3804 54.4164 11.2187 54.4973 11.1783 55.0026L11.1177 54.942C11.1581 55.5618 10.8483 56.1682 10.9426 56.7072C10.0603 59.7729 9.32612 62.7443 8.51116 65.7426C7.6221 68.687 6.94858 71.6179 6.02585 74.6028C5.64867 75.2563 5.6352 75.317 5.51397 76.112C5.48702 76.0716 5.49376 76.0244 5.45335 76.0649C5.60152 76.1457 5.32538 76.6173 5.46008 76.7319C5.13679 77.8369 4.928 78.8812 4.63838 80.0334C4.66532 79.8447 4.55756 79.7235 4.51715 79.9391L4.56429 80.1884L4.51041 80.2153C4.49694 80.3703 4.53735 80.5522 4.62491 80.4107C4.03221 83.3349 3.04213 86.1109 2.42248 88.9677C2.20022 89.628 2.04531 90.605 1.9106 91.3461C1.19667 93.4752 0.617435 95.4157 0.280672 97.6594C0.273937 97.6863 -0.0830316 97.309 0.0179972 96.3725Z" fill="#1D1D1D"/>
<path d="M83.2053 157.046C82.0671 156.548 81.1578 155.22 80.033 154.547C79.9118 154.459 80.2014 154.412 79.9118 154.223C78.7803 153.61 77.3928 152.195 76.3893 151.016L76.497 151.03C76.3084 150.807 75.9043 150.72 75.6955 150.497C75.7225 150.464 75.81 150.517 75.7898 150.43C75.6551 150.47 75.3318 150.106 75.1769 150.086C75.1163 149.972 75.1836 149.904 75.1028 149.763L74.8806 149.749C74.3013 149.675 73.9848 148.961 73.3651 148.658C73.4123 148.658 73.4796 148.678 73.4527 148.624C72.503 148.078 71.4995 147.182 70.5363 146.461C70.6037 146.455 70.6912 146.414 70.6778 146.333C70.5431 146.407 70.2332 146.192 69.9706 146.003C69.9571 145.794 69.4587 145.754 69.2229 145.451L69.2701 145.444C68.9535 145.383 69.0074 145.114 68.7178 145.107L68.6572 144.905C68.4282 144.986 68.4147 144.568 68.1722 144.501L68.152 144.541C67.95 144.44 67.9298 144.292 67.7547 144.191V144.157C67.3573 143.901 67.2158 143.631 67.1216 143.766C67.0744 143.564 67.5122 144.016 67.4314 143.699C66.1247 142.836 64.9124 141.785 63.6866 140.815C63.5855 140.653 63.5114 140.566 63.5182 140.492C63.3767 140.418 63.04 140.148 62.8783 140.121C62.9187 140.155 62.8514 139.993 62.7908 139.932C62.6089 139.703 62.4338 139.879 62.2385 139.623C62.3597 139.67 62.4271 139.649 62.4338 139.582C62.1442 139.515 61.8815 139.272 61.6121 139.11C61.666 139.117 61.7401 139.158 61.7603 139.11C61.4033 139.009 61.2888 138.693 60.9992 138.571H61.1474C60.8376 138.181 60.9116 138.632 60.6288 138.315C60.723 138.356 60.723 138.302 60.7567 138.288C60.3459 138.174 59.8879 137.736 59.5376 137.541C59.5646 137.547 59.5781 137.52 59.5781 137.52C59.2278 137.271 58.9113 136.954 58.4937 136.725C58.3859 136.584 58.6755 136.584 58.3051 136.328C58.2041 136.483 57.6518 135.917 57.7326 136.247C57.4497 135.984 57.0119 135.553 56.7695 135.445C56.9513 135.499 56.7627 135.149 57.0254 135.331L56.9042 135.095C56.9782 135.054 57.086 135.27 57.086 135.149C56.958 135.054 56.5405 134.825 56.4462 134.711C56.1431 134.616 55.7928 134.616 55.4022 134.34C55.6245 134.421 55.4291 134.098 55.5706 134.165L54.823 134.037C54.6883 133.949 54.8836 133.895 54.6748 133.794C54.6546 133.842 54.5536 133.801 54.4727 133.794C54.4391 133.74 53.9137 133.424 53.9743 133.235C53.9609 133.134 54.2033 133.363 54.1023 133.201C53.8666 133.026 53.8194 133.067 53.5769 132.885L53.5904 132.865C53.449 132.723 53.0853 132.575 53.193 132.784C53.3008 132.871 53.22 132.662 53.3479 132.831C53.1728 132.831 52.8832 132.649 52.6475 132.467C52.7485 132.507 52.7687 132.46 52.8293 132.44C52.4252 132.312 52.0615 132.096 51.6709 131.874C51.6102 131.941 51.8999 131.847 51.9201 131.921C51.5429 131.477 50.8828 131.342 50.6134 130.917C50.6875 130.951 50.573 131.045 50.5798 131.018C50.371 130.843 50.4518 130.749 50.2834 130.682C50.3171 130.614 50.0881 130.56 49.9332 130.473C49.8254 130.459 49.9197 130.412 50.0477 130.506C49.8052 130.405 48.9161 129.88 48.5053 129.442C48.4851 129.489 48.1079 129.368 48.0001 129.287L48.1147 129.226C48.054 129.098 47.7442 128.963 47.7846 128.869C47.4681 128.808 48.7545 129.442 48.3706 129.294C48.3504 129.159 47.8183 129.112 47.9867 129.037C47.7644 128.876 47.4748 128.822 47.3334 128.579C47.3805 128.64 47.6095 128.586 47.4277 128.458C47.1044 128.242 47.3064 128.438 47.0303 128.276L46.8417 128.195C46.7609 128.276 46.5723 127.973 46.6127 128.162C46.6329 128.061 46.1278 127.872 46.2692 127.744L46.3972 127.656C46.2557 127.562 46.0873 127.616 45.9392 127.589C45.9324 127.562 45.9122 127.515 45.9324 127.501C45.7775 127.663 45.6226 127.245 45.3599 127.265C45.1242 126.989 44.646 126.726 44.5921 126.518C44.3294 126.416 44.087 126.336 43.8647 126.113C43.9253 126.134 43.9994 126.174 44.0398 126.147C43.9253 125.979 43.8512 125.999 43.6828 125.925C43.7367 125.918 43.4471 125.588 43.3191 125.399C43.0632 125.298 43.0632 125.446 43.0026 125.493C42.9352 125.17 42.3021 125.163 42.1742 124.82C42.2684 124.847 42.5581 124.961 42.4099 124.786C42.3425 124.463 41.9115 124.624 41.6555 124.308L41.6286 124.516C41.5545 124.321 41.0965 124.26 41.238 124.132C41.0898 124.105 40.8945 123.809 40.8271 123.977C40.3893 123.472 39.4935 123.122 39.3521 122.63C39.2578 122.603 39.0827 122.441 39.0692 122.542C39.1366 122.711 39.2847 122.61 39.2982 122.697C39.2241 122.65 39.1837 122.684 39.1635 122.697C39.0221 122.549 38.9008 122.441 39.1433 122.434C38.8402 122.084 38.5843 122.414 38.1599 122.023C38.2273 121.976 38.2071 121.929 38.0589 121.842L37.7222 121.761C37.4393 121.525 37.6481 121.498 37.7154 121.39C37.5403 121.296 37.345 121.148 37.217 121.175L37.1092 120.905C37.1833 121.1 36.9341 120.871 36.8398 120.844L36.9341 120.871C36.9341 120.804 36.7321 120.703 36.6243 120.649C36.6041 120.73 36.7725 120.892 36.8668 120.979C36.7523 120.966 36.631 120.865 36.4829 120.838C36.5906 120.764 36.2673 120.582 36.1461 120.481C36.0114 120.353 35.9171 120.454 35.8767 120.42C35.9104 120.366 35.641 120.238 35.8093 120.251C35.87 120.272 35.8902 120.386 36.0047 120.4C35.9373 120.292 36.0114 120.211 35.7622 120.13C35.5736 120.07 35.6612 120.359 35.4187 120.09C35.513 120.117 35.5534 120.09 35.641 120.09L35.4052 119.847L35.3311 119.928C35.3109 119.881 35.3446 119.888 35.3311 119.867C35.183 119.908 34.9001 119.605 34.7586 119.672C34.6172 119.584 34.5162 119.409 34.3882 119.308L34.4219 119.315C34.3006 119.153 34.0582 119.039 33.8831 119.005L33.9033 118.991C33.8224 118.924 33.6069 118.796 33.4587 118.776C33.2836 118.554 33.6271 118.378 33.3038 118.324C33.0748 118.169 32.8324 118.25 32.8862 118.372C32.5225 118.028 31.9635 117.866 31.6874 117.462C31.6065 117.462 31.6267 117.509 31.492 117.449C30.9263 117.004 30.1652 116.694 29.8217 116.189C30.017 116.269 29.8958 116.101 29.9295 116.047C29.7341 116.034 29.815 115.845 29.6668 115.953C29.6264 116.047 29.5792 116.074 29.7274 116.229C29.3435 116.034 28.7979 115.67 28.6565 115.461C28.7306 115.569 28.6363 115.542 28.542 115.515C28.6565 115.4 28.4073 115.198 28.1783 115.117L28.0975 115.178L28.0234 115.009C27.9291 114.982 27.8213 115.124 27.6799 114.915C27.6934 114.875 27.7001 114.834 27.6799 114.787C27.4307 114.713 27.0602 114.632 26.8851 114.417L26.7841 114.174C26.6831 114.12 26.4743 114.086 26.6157 114.235C26.2857 113.904 26.0432 113.736 25.9893 113.547C25.1676 113.359 24.2112 112.725 23.4501 112.213L23.5108 112.166C23.3424 111.971 23.3356 112.207 23.2144 112.065C23.3222 112.052 23.1403 111.836 23.3491 111.87C23.0932 111.614 22.8979 111.728 22.6891 111.627C22.6082 111.688 22.8776 111.674 22.7699 111.755C22.716 111.762 22.4062 111.425 22.2782 111.519C22.2378 111.425 22.3523 111.371 22.4264 111.344L22.2041 111.283C22.0762 110.994 22.8776 111.358 22.7564 111.027L22.5746 110.94C22.5005 110.704 23.1134 111.081 22.7227 110.765C22.5005 110.704 22.2311 110.785 22.3523 110.947C21.9549 110.731 21.9886 111.129 21.5845 110.852C21.5239 110.704 21.9212 111.048 21.9078 110.893C21.7798 110.67 21.4902 110.697 21.342 110.549C21.5037 110.717 21.2612 110.738 21.1197 110.684C20.9514 110.488 21.3285 110.657 21.0457 110.448C20.9514 110.488 20.6483 110.367 20.8503 110.569C20.6415 110.664 20.5742 110.327 20.3385 110.347C20.3182 110.172 20.8099 110.28 20.527 110.017C20.5068 110.158 20.0354 109.909 20.096 110.178C19.9882 110.064 20.0354 109.97 20.1701 109.963C20.0354 109.781 19.6043 109.875 19.6851 109.619L19.5504 109.693C19.5168 109.619 19.4561 109.538 19.4023 109.417C19.2473 109.309 18.7893 109.235 18.9173 109.08C18.8567 109.067 18.493 108.824 18.5603 109.033C18.7422 109.249 18.8769 109.114 18.8971 109.35C18.823 109.121 18.5603 109.161 18.3987 109.121L18.4189 109.04C18.3246 109.013 18.1562 108.885 18.0619 108.925C18.1428 108.925 18.1428 108.865 18.0889 108.804L17.9407 108.851C17.5905 108.696 17.9811 108.629 17.6511 108.46L17.934 108.534C17.8734 108.521 17.8262 108.359 17.6578 108.299C17.5433 108.353 17.3615 108.393 17.2672 108.433C17.0651 108.366 17.2537 108.278 17.0247 108.265L17.3211 108.299C17.3749 108.292 17.2672 108.049 17.0314 107.908C16.8631 107.847 16.5465 107.827 16.7486 108.029C16.6341 107.955 16.5061 107.8 16.6408 107.787C16.3579 107.652 16.6139 107.908 16.3512 107.82C16.2973 107.699 16.0616 107.429 15.9403 107.227H16.2771L16.1222 107.126C16.4051 107.133 16.075 106.965 16.2771 106.911C16.1828 106.823 16.0212 106.783 15.8999 106.749C16.0818 107.16 15.3678 106.81 15.3409 107.052C14.8762 106.83 15.3611 106.419 14.7213 106.432C14.7617 106.527 14.4586 106.54 14.7684 106.655C14.5125 106.466 14.4653 106.729 14.1959 106.446C14.4788 106.52 14.0612 106.095 14.472 106.196C14.4114 106.244 14.6337 106.365 14.6943 106.378C14.627 106.237 14.8358 106.203 14.5596 106.028C14.3778 105.94 14.1488 105.799 14.1218 105.913C14.0612 106.028 14.3845 106.068 14.2094 106.109C13.8524 105.934 13.8996 105.732 13.6369 105.839C13.8591 105.954 13.8389 106.102 13.7918 106.176L13.5156 106.068L13.6099 106.028C13.2462 105.732 13.4079 106.089 13.0374 105.826L12.9431 105.57C13.1115 105.502 13.4685 105.974 13.5224 105.732C13.2799 105.57 13.1317 105.617 12.9297 105.422C12.9903 105.435 13.0644 105.476 13.1317 105.489C13.0442 105.428 13.125 105.105 12.667 105.038C12.4447 104.984 12.5727 105.078 12.5256 105.152C12.108 104.923 11.9396 104.93 11.6769 104.782C11.8184 104.667 11.2257 104.485 11.6096 104.512C11.6904 104.68 12.2764 105.031 12.5054 104.977C12.4649 104.714 12.8084 105.199 13.0038 105.078C12.6805 104.876 12.8084 104.714 12.8219 104.573C12.7344 104.512 12.6199 104.505 12.5592 104.485C12.4582 104.566 12.5727 104.64 12.5121 104.748C12.1686 104.499 11.7847 104.344 11.5287 104.323C11.4412 104.195 11.5422 104.114 11.6904 104.195C11.2459 103.96 10.7946 103.663 10.4107 103.38C10.5656 103.717 9.93249 103.138 10.0268 103.394C10.2221 103.569 10.3299 103.805 10.1682 103.811C10.0402 103.717 10.2221 103.737 10.1817 103.67C9.95269 103.656 10.0066 103.353 9.7439 103.394C10.1682 103.582 9.94596 103.232 10.1009 103.144C9.77084 103.043 10.1682 103.057 9.89207 102.881C9.56205 102.78 9.18487 102.625 8.85484 102.464C8.53829 102.093 7.85803 101.857 7.50106 101.648C7.35962 101.467 7.57514 101.392 7.39329 101.244C7.15756 101.103 7.46738 101.514 7.16429 101.237L7.21818 101.224C7.09021 101.197 6.64568 100.732 6.40995 100.894L6.61874 100.793C6.56486 100.739 6.4773 100.739 6.41668 100.725C6.44362 100.671 6.40321 100.577 6.52444 100.604C6.37627 100.362 6.05971 100.348 5.82398 100.213L5.91827 100.402C5.47374 100.24 5.26495 99.9775 4.8541 99.7821L4.92145 99.6945L4.65878 99.6137C4.77328 99.553 4.59816 99.3644 4.42978 99.3711L5.17066 99.4991C5.30536 99.6541 4.92145 99.5059 4.9686 99.6608C5.00901 99.7956 5.37945 99.9842 5.49395 99.9303C5.36598 99.836 5.34578 99.8562 5.21781 99.8225C5.25148 99.6608 5.46027 99.7888 5.61519 99.7619C5.5411 99.7215 5.46027 99.6204 5.41986 99.6541C5.60171 99.6743 5.74989 99.7484 5.98562 99.8899C5.79704 99.8427 6.0193 100.025 5.93848 100.025C6.02604 99.9169 6.27524 100.018 6.54465 100.227C6.67262 100.49 7.14409 100.469 7.45391 100.712C7.24512 100.746 7.01612 100.739 6.78038 100.665C6.9555 100.853 7.01612 100.806 7.19124 100.988C7.34615 100.961 7.50106 100.867 7.81088 100.981L7.77047 101.076C8.04661 101.184 8.12744 101.049 8.43052 101.271C8.94914 101.642 9.50816 101.985 9.91228 102.255L9.87187 102.349C10.2154 102.302 10.6801 102.753 11.0371 102.861C11.5085 103.272 12.2292 103.488 12.4111 103.805C13.3809 104.317 14.2363 104.741 15.1725 105.388L14.93 105.415C15.159 105.428 14.9974 105.556 15.1725 105.644C15.0445 105.422 15.4891 105.664 15.6575 105.657C16.0212 106.028 16.6341 106.264 17.0651 106.419L17.0247 106.513C17.5096 106.594 17.8734 107.025 18.3313 107.355C18.365 107.423 18.3987 107.564 18.5469 107.645C18.8904 107.672 19.0251 107.766 19.4561 107.921C19.7323 108.096 20.1566 108.42 20.3991 108.656C21.5575 109.134 22.5274 109.949 23.6724 110.529L23.6859 110.677C24.8713 111.135 26.0095 112.18 26.9592 112.658L26.7572 112.773C26.9996 113.008 27.4172 113.15 27.4239 112.981C27.6664 113.217 28.1716 113.359 28.2524 113.621C28.5151 113.844 28.6498 113.776 28.899 113.911C29.4176 114.356 29.6398 114.484 30.1921 114.807L30.0642 114.706C29.9833 114.706 29.9227 114.774 30.0507 114.875C30.2797 114.956 30.7444 115.414 30.6905 115.077C31.1755 115.582 32.0713 115.892 32.5091 116.424C32.5023 116.337 32.6438 116.424 32.7313 116.424C33.2297 116.761 33.6675 117.233 34.1323 117.415C34.1929 117.496 33.9437 117.422 34.139 117.57C34.2737 117.63 34.1929 117.502 34.3613 117.57C35.2368 118.014 35.9104 118.796 36.6512 119.288C38.0118 120.09 39.3117 121.094 40.5577 121.949L40.5173 121.976C41.0359 122.118 41.3659 122.825 41.8576 122.832C41.9249 122.94 42.2146 123.115 42.0866 123.142C42.4907 123.27 42.9218 123.903 43.4943 124.112C43.4539 124.078 43.4202 124.065 43.3596 124.045C43.7704 124.476 44.2756 124.665 44.7201 125.103C44.6595 125.082 44.5584 125.029 44.5113 125.055C44.646 125.271 45.0905 125.224 45.0568 125.493C45.1713 125.574 45.205 125.453 45.1309 125.413C46.1749 126.282 47.4209 127.036 48.5861 127.838C49.3135 128.559 48.3975 128.195 49.1451 128.532C49.1721 128.606 49.2394 128.485 49.2192 128.532C49.5089 128.667 49.4482 129.031 49.6907 129.058C49.7042 128.889 49.8523 129.078 49.913 129.011C50.3508 129.455 50.371 129.63 50.829 129.839L50.7549 129.88C51.3408 130.055 51.7988 130.547 52.3309 130.641C53.6106 131.571 54.8566 132.48 56.1027 133.383C57.342 134.3 58.5678 135.209 59.7868 136.146C62.1442 138.073 64.5419 139.852 66.8454 141.913C67.2765 142.533 67.3236 142.56 67.9837 143.005C67.9365 143.012 67.8961 142.985 67.9163 143.039C68.051 142.937 68.3608 143.382 68.5157 143.308C69.3779 144.063 70.2265 144.689 71.1223 145.451C70.9674 145.343 70.8125 145.39 70.9876 145.525L71.23 145.592V145.653C71.358 145.734 71.5399 145.774 71.4523 145.633C73.8029 147.425 75.81 149.561 78.0125 151.434C78.4839 151.939 79.2652 152.525 79.8512 152.99C81.3599 154.621 82.7271 156.083 84.512 157.457C84.4648 157.464 83.9597 157.592 83.2053 157.046Z" fill="#1D1D1D"/>
<path d="M130.932 158.609C130.406 157.626 130.608 156.211 130.211 155.112C130.177 154.984 130.426 155.119 130.332 154.823C129.888 153.765 129.827 152.006 129.874 150.639L129.941 150.713C129.948 150.45 129.712 150.167 129.699 149.891C129.739 149.884 129.766 149.972 129.813 149.897C129.686 149.844 129.692 149.419 129.591 149.311C129.625 149.197 129.719 149.197 129.753 149.049L129.598 148.914C129.221 148.53 129.477 147.869 129.234 147.303C129.268 147.33 129.302 147.384 129.329 147.33C129.005 146.414 128.877 145.235 128.662 144.191C128.716 144.224 128.81 144.251 128.85 144.184C128.702 144.15 128.621 143.833 128.554 143.55C128.682 143.402 128.352 143.086 128.392 142.742L128.426 142.769C128.237 142.547 128.466 142.392 128.258 142.223L128.352 142.055C128.13 141.974 128.413 141.684 128.278 141.495L128.237 141.509C128.163 141.327 128.251 141.212 128.19 141.037L128.21 141.017C128.103 140.613 128.184 140.357 128.022 140.384C128.13 140.222 128.136 140.775 128.291 140.525C127.941 139.184 127.779 137.776 127.591 136.408C127.631 136.247 127.638 136.139 127.699 136.098C127.645 135.964 127.598 135.586 127.497 135.472C127.503 135.519 127.564 135.371 127.564 135.297C127.591 135.041 127.348 135.047 127.382 134.764C127.443 134.865 127.497 134.899 127.55 134.852C127.396 134.636 127.369 134.32 127.295 134.05C127.328 134.091 127.355 134.151 127.402 134.138C127.22 133.855 127.355 133.585 127.234 133.329L127.342 133.417C127.396 132.972 127.133 133.316 127.146 132.938C127.187 133.026 127.22 132.986 127.261 132.999C127.045 132.676 127.025 132.116 126.924 131.78C126.938 131.8 126.964 131.786 126.964 131.786C126.89 131.416 126.89 131.018 126.762 130.621C126.783 130.466 126.998 130.641 126.904 130.25C126.722 130.291 126.735 129.59 126.56 129.853C126.547 129.509 126.54 128.97 126.446 128.748C126.54 128.889 126.648 128.552 126.702 128.828L126.783 128.599C126.863 128.62 126.789 128.822 126.87 128.741C126.843 128.599 126.715 128.202 126.729 128.074C126.581 127.831 126.331 127.616 126.251 127.198C126.352 127.387 126.439 127.056 126.493 127.184L126.055 126.645C126.028 126.504 126.197 126.592 126.123 126.396C126.075 126.416 126.035 126.329 125.981 126.275C125.995 126.221 125.853 125.695 126.028 125.615C126.089 125.54 126.096 125.837 126.143 125.675C126.102 125.419 126.042 125.412 126.001 125.156L126.028 125.15C126.035 124.974 125.88 124.658 125.806 124.853C125.819 124.974 125.907 124.793 125.88 124.974C125.759 124.867 125.685 124.57 125.651 124.314C125.692 124.402 125.739 124.382 125.799 124.408C125.611 124.078 125.51 123.714 125.402 123.337C125.314 123.344 125.577 123.458 125.543 123.526C125.597 123.014 125.234 122.522 125.348 122.077C125.375 122.145 125.227 122.131 125.254 122.124C125.234 121.882 125.361 121.875 125.294 121.727C125.368 121.7 125.247 121.531 125.2 121.376C125.132 121.302 125.227 121.329 125.26 121.471C125.166 121.255 124.93 120.373 124.964 119.84C124.917 119.854 124.742 119.544 124.728 119.429L124.85 119.463C124.903 119.342 124.782 119.065 124.883 119.032C124.708 118.796 125.139 119.995 124.984 119.665C125.065 119.564 124.735 119.207 124.903 119.261C124.87 119.018 124.708 118.809 124.782 118.567C124.776 118.634 124.964 118.742 124.93 118.547C124.863 118.21 124.863 118.459 124.789 118.19L124.722 118.021C124.607 118.028 124.695 117.718 124.587 117.859C124.674 117.805 124.466 117.374 124.654 117.381L124.809 117.408C124.776 117.26 124.621 117.186 124.54 117.078C124.553 117.058 124.573 117.017 124.6 117.017C124.371 117.024 124.573 116.66 124.378 116.512C124.412 116.195 124.277 115.723 124.398 115.562C124.297 115.333 124.19 115.131 124.196 114.848C124.223 114.901 124.243 114.969 124.291 114.982C124.331 114.8 124.27 114.767 124.21 114.618C124.25 114.645 124.291 114.261 124.344 114.059C124.243 113.83 124.136 113.931 124.062 113.918C124.25 113.675 123.826 113.271 123.994 112.974C124.035 113.049 124.149 113.305 124.176 113.102C124.365 112.86 123.954 112.691 124.014 112.328L123.846 112.435C123.94 112.267 123.671 111.937 123.86 111.95C123.779 111.843 123.866 111.533 123.691 111.593C123.765 111 123.408 110.219 123.684 109.821C123.644 109.74 123.644 109.538 123.563 109.592C123.482 109.74 123.657 109.774 123.597 109.835C123.583 109.761 123.529 109.754 123.503 109.747C123.516 109.565 123.516 109.424 123.684 109.572C123.738 109.161 123.327 109.208 123.327 108.696C123.402 108.709 123.428 108.669 123.395 108.521L123.233 108.258C123.22 107.928 123.375 108.049 123.496 108.022C123.449 107.854 123.428 107.638 123.321 107.571L123.449 107.342C123.354 107.51 123.354 107.207 123.314 107.133L123.354 107.214C123.402 107.173 123.341 106.978 123.314 106.877C123.24 106.91 123.24 107.119 123.226 107.234C123.159 107.153 123.152 107.012 123.071 106.904C123.199 106.924 123.119 106.607 123.112 106.466C123.119 106.304 122.977 106.304 122.977 106.257C123.038 106.243 122.95 105.994 123.058 106.109C123.085 106.163 123.011 106.243 123.078 106.324C123.112 106.216 123.226 106.21 123.112 106.008C123.031 105.853 122.876 106.082 122.91 105.765C122.95 105.839 123.004 105.853 123.058 105.907L123.085 105.61H122.97C122.991 105.57 123.004 105.59 123.018 105.57C122.89 105.502 122.923 105.132 122.782 105.085C122.748 104.936 122.816 104.768 122.809 104.626L122.822 104.653C122.863 104.471 122.789 104.256 122.694 104.121L122.721 104.128C122.715 104.033 122.667 103.818 122.587 103.71C122.64 103.461 122.997 103.575 122.822 103.333C122.789 103.097 122.566 102.989 122.506 103.09C122.519 102.652 122.277 102.187 122.391 101.763C122.337 101.709 122.317 101.749 122.27 101.628C122.23 100.988 121.953 100.314 122.108 99.7819C122.182 99.9571 122.223 99.7819 122.283 99.7685C122.162 99.6337 122.364 99.5731 122.182 99.5394C122.081 99.5663 122.034 99.5596 122.014 99.7415C121.906 99.3709 121.832 98.7982 121.893 98.5759C121.859 98.6837 121.819 98.6096 121.778 98.5287C121.94 98.5354 121.926 98.2524 121.846 98.0503L121.745 98.0368L121.825 97.8886C121.785 97.8145 121.61 97.828 121.671 97.6056C121.704 97.5922 121.745 97.5719 121.765 97.5315C121.657 97.3226 121.475 97.0397 121.529 96.7904L121.644 96.5747C121.617 96.4737 121.502 96.3187 121.489 96.5006C121.522 96.0896 121.495 95.8269 121.603 95.6786C121.206 95.0251 121.058 94.0211 120.97 93.2126L121.044 93.2261C121.085 93.0037 120.903 93.1318 120.93 92.97C121.011 93.0307 121.058 92.7814 121.165 92.9431C121.199 92.6264 120.984 92.559 120.923 92.3636C120.822 92.3434 121.004 92.5186 120.883 92.4917C120.842 92.4647 120.896 92.0537 120.748 92.0268C120.795 91.9392 120.909 91.9863 120.977 92.02L120.883 91.8381C121.024 91.5821 121.26 92.3232 121.435 92.0537L121.388 91.8853C121.516 91.6966 121.623 92.3232 121.617 91.8785C121.516 91.6966 121.287 91.5619 121.246 91.7438C121.152 91.353 120.876 91.609 120.829 91.1845C120.896 91.0565 120.896 91.5214 121.004 91.4204C121.091 91.2048 120.883 91.0296 120.903 90.8409C120.876 91.043 120.707 90.9016 120.66 90.7735C120.701 90.5512 120.815 90.8948 120.788 90.5849C120.694 90.5444 120.593 90.2749 120.573 90.5242C120.371 90.4366 120.579 90.2008 120.411 90.0526C120.532 89.9313 120.761 90.3221 120.788 89.9785C120.667 90.0526 120.552 89.5877 120.391 89.7898C120.411 89.6551 120.512 89.6281 120.6 89.709C120.654 89.5068 120.303 89.2845 120.553 89.1902L120.411 89.143C120.445 89.0756 120.465 88.988 120.526 88.8802C120.505 88.7118 120.276 88.3681 120.478 88.3547C120.451 88.3075 120.411 87.9235 120.29 88.0919C120.236 88.3412 120.425 88.3479 120.256 88.5029C120.384 88.3142 120.189 88.166 120.121 88.038L120.196 88.0043C120.155 87.9302 120.148 87.7415 120.054 87.7011C120.108 87.755 120.155 87.7146 120.162 87.6472L120.034 87.5798C119.933 87.2564 120.229 87.472 120.148 87.1553L120.27 87.3844C120.243 87.3305 120.337 87.2093 120.283 87.061C120.169 87.0139 120.027 86.9195 119.933 86.8791C119.859 86.7039 120.041 86.7848 119.906 86.6163L120.068 86.8319C120.108 86.8589 120.222 86.65 120.189 86.4075C120.128 86.2592 119.946 86.0369 119.919 86.2929C119.899 86.1716 119.946 85.9965 120.034 86.0773C119.96 85.8078 119.926 86.1312 119.825 85.9021C119.886 85.7943 119.946 85.4776 120.02 85.2822L120.236 85.5046L120.216 85.3429C120.391 85.5383 120.31 85.2216 120.478 85.3159C120.485 85.2014 120.418 85.0734 120.364 84.9723C120.169 85.3362 119.98 84.6489 119.771 84.7769C119.65 84.339 120.27 84.4198 119.859 84.0021C119.812 84.0897 119.616 83.8875 119.717 84.1638C119.704 83.8808 119.468 84.0021 119.515 83.6652C119.637 83.8943 119.704 83.3755 119.886 83.7056C119.812 83.6921 119.859 83.9078 119.886 83.9617C119.953 83.8336 120.108 83.9549 120.074 83.6719C120.027 83.5035 119.993 83.2609 119.879 83.3148C119.751 83.3418 119.926 83.5776 119.785 83.4833C119.69 83.1396 119.879 83.0588 119.637 82.9442C119.684 83.1599 119.562 83.234 119.475 83.2407L119.387 82.9914L119.475 83.0318C119.482 82.6141 119.306 82.9308 119.273 82.5332L119.414 82.3244C119.569 82.3985 119.428 82.9106 119.65 82.8095C119.623 82.5535 119.495 82.4793 119.522 82.23C119.549 82.284 119.562 82.3513 119.596 82.4052C119.589 82.3109 119.886 82.1761 119.657 81.8325C119.562 81.6506 119.569 81.7921 119.482 81.7988C119.401 81.3878 119.293 81.28 119.246 81.0105C119.421 81.0442 119.199 80.5389 119.414 80.8084C119.333 80.9566 119.428 81.5563 119.61 81.6775C119.791 81.5024 119.623 82.0077 119.845 82.0683C119.805 81.7382 120.007 81.7247 120.128 81.6506C120.121 81.5563 120.061 81.4754 120.027 81.4215C119.899 81.4013 119.919 81.5226 119.791 81.5428C119.771 81.1655 119.657 80.8218 119.509 80.6332C119.549 80.4984 119.677 80.5254 119.711 80.6669C119.616 80.2289 119.569 79.7573 119.549 79.3328C119.387 79.6293 119.441 78.8746 119.3 79.0768C119.286 79.3059 119.172 79.5215 119.064 79.4069C119.057 79.2654 119.152 79.4002 119.185 79.3328C119.051 79.1711 119.32 79.0296 119.125 78.8814C119.246 79.2722 119.381 78.9285 119.549 78.9824C119.421 78.7062 119.663 78.9824 119.623 78.6927C119.495 78.4165 119.381 78.0661 119.3 77.7494C119.394 77.325 119.165 76.7253 119.104 76.3682C119.158 76.166 119.354 76.2739 119.354 76.065C119.32 75.8224 119.185 76.2671 119.219 75.9033L119.259 75.9302C119.205 75.8292 119.293 75.2632 119.024 75.1891L119.232 75.2699C119.239 75.2026 119.185 75.1486 119.158 75.0947C119.219 75.0813 119.266 75.0004 119.32 75.1015C119.421 74.8657 119.239 74.6433 119.199 74.4075L119.104 74.5759C118.956 74.1784 119.037 73.8887 118.943 73.4979L119.057 73.4912L118.956 73.2621C119.071 73.3025 119.111 73.0802 119.003 72.9656L119.36 73.5383C119.32 73.7202 119.199 73.3699 119.104 73.4912C119.024 73.5922 119.104 73.9561 119.219 74.0032C119.212 73.8617 119.185 73.855 119.131 73.7539C119.28 73.6866 119.3 73.9022 119.421 73.9897C119.408 73.9156 119.434 73.8078 119.387 73.7944C119.482 73.9291 119.515 74.0706 119.549 74.3132C119.468 74.1582 119.468 74.4142 119.414 74.3603C119.556 74.3603 119.623 74.5827 119.63 74.8859C119.502 75.1217 119.805 75.4316 119.812 75.782C119.657 75.6607 119.522 75.499 119.434 75.2969C119.394 75.5192 119.468 75.5394 119.428 75.7618C119.542 75.8494 119.711 75.9033 119.812 76.1795L119.711 76.2065C119.798 76.4558 119.946 76.4356 119.967 76.7657C119.993 77.3317 120.074 77.9044 120.115 78.3289L120.014 78.3558C120.263 78.5647 120.202 79.1307 120.344 79.4406C120.317 79.9931 120.6 80.6062 120.465 80.9027C120.674 81.846 120.862 82.6747 120.963 83.6652L120.795 83.517C120.93 83.6787 120.728 83.645 120.768 83.8134C120.862 83.5978 120.957 84.0358 121.064 84.1436C121.01 84.6017 121.213 85.1475 121.367 85.5248L121.266 85.5518C121.509 85.9223 121.408 86.4142 121.442 86.9128C121.408 86.9734 121.327 87.0745 121.354 87.2227C121.556 87.4653 121.563 87.6068 121.718 87.9841C121.758 88.2671 121.778 88.7387 121.758 89.0419C122.135 90.0863 122.135 91.2048 122.432 92.303L122.324 92.3973C122.728 93.4484 122.681 94.8095 122.937 95.719L122.721 95.6584C122.701 95.9549 122.863 96.312 122.997 96.2177C122.977 96.5141 123.193 96.9319 123.051 97.134C123.051 97.4372 123.193 97.4844 123.253 97.7269C123.26 98.3333 123.307 98.5489 123.422 99.1082L123.415 98.9667C123.361 98.9128 123.274 98.9195 123.28 99.061C123.368 99.2631 123.327 99.8358 123.543 99.5933C123.482 100.213 123.846 100.975 123.738 101.581C123.799 101.52 123.833 101.669 123.886 101.722C123.961 102.248 123.9 102.821 124.068 103.225C124.048 103.313 123.94 103.11 123.961 103.319C124.001 103.441 124.048 103.313 124.109 103.461C124.351 104.296 124.216 105.199 124.351 105.974C124.668 107.335 124.802 108.777 125.005 110.091L124.951 110.084C125.2 110.502 124.903 111.149 125.234 111.458C125.2 111.566 125.267 111.863 125.159 111.795C125.341 112.132 125.173 112.799 125.409 113.284C125.409 113.237 125.395 113.21 125.361 113.163C125.321 113.689 125.537 114.127 125.51 114.679C125.483 114.625 125.449 114.531 125.402 114.517C125.335 114.74 125.678 114.982 125.456 115.131C125.476 115.252 125.584 115.198 125.57 115.124C125.638 116.323 125.968 117.57 126.19 118.796C126.17 119.699 125.799 118.904 126.069 119.577C126.028 119.638 126.163 119.604 126.116 119.625C126.217 119.887 125.907 120.083 126.062 120.251C126.197 120.157 126.163 120.366 126.251 120.359C126.23 120.912 126.116 121.04 126.284 121.451L126.203 121.43C126.486 121.902 126.453 122.495 126.756 122.886C127.18 125.641 127.678 128.269 128.076 130.951C128.392 133.619 128.857 136.206 129.1 138.928C128.985 139.589 128.999 139.636 129.174 140.316C129.14 140.296 129.126 140.249 129.1 140.303C129.268 140.316 129.18 140.788 129.349 140.835C129.457 141.839 129.625 142.749 129.766 143.78C129.726 143.618 129.584 143.557 129.618 143.746L129.753 143.935L129.712 143.975C129.753 144.103 129.854 144.238 129.888 144.096C130.379 146.657 130.399 149.244 130.783 151.764C130.797 152.377 130.979 153.219 131.1 153.866C131.147 155.827 131.208 157.599 131.632 159.539C131.605 159.607 131.14 159.411 130.932 158.609Z" fill="#1D1D1D"/>
<path d="M152.74 135.694C152.06 136.294 150.908 136.226 150.107 136.691C150.013 136.738 150.08 136.482 149.858 136.59C149.097 137.116 147.716 137.304 146.632 137.345L146.679 137.271C146.47 137.277 146.281 137.533 146.066 137.56C146.052 137.52 146.12 137.486 146.059 137.446C146.039 137.574 145.695 137.601 145.635 137.708C145.54 137.682 145.527 137.587 145.406 137.567L145.318 137.729C145.069 138.126 144.51 137.911 144.099 138.18C144.113 138.146 144.153 138.106 144.106 138.086C143.426 138.463 142.51 138.645 141.708 138.908C141.728 138.854 141.742 138.76 141.681 138.719C141.674 138.867 141.432 138.962 141.216 139.043C141.082 138.921 140.873 139.265 140.597 139.245L140.61 139.204C140.455 139.4 140.307 139.184 140.199 139.4L140.051 139.312C140.011 139.534 139.755 139.272 139.62 139.406L139.634 139.447C139.499 139.528 139.398 139.447 139.27 139.507L139.25 139.487C138.94 139.615 138.731 139.541 138.772 139.696C138.63 139.595 139.068 139.568 138.852 139.427C137.835 139.831 136.731 140.026 135.667 140.255C135.532 140.215 135.451 140.215 135.411 140.161C135.31 140.215 135.013 140.276 134.932 140.377C134.966 140.363 134.845 140.309 134.791 140.316C134.582 140.296 134.616 140.532 134.387 140.505C134.461 140.444 134.481 140.39 134.441 140.336C134.286 140.498 134.037 140.525 133.828 140.606C133.855 140.572 133.902 140.545 133.888 140.498C133.68 140.687 133.451 140.552 133.262 140.687L133.323 140.579C132.966 140.532 133.262 140.788 132.959 140.781C133.02 140.74 132.993 140.707 132.999 140.666C132.764 140.889 132.319 140.922 132.063 141.023C132.077 141.01 132.07 140.983 132.07 140.983C131.78 141.057 131.464 141.064 131.161 141.199C131.033 141.178 131.154 140.97 130.851 141.057C130.898 141.239 130.339 141.232 130.561 141.408C130.292 141.428 129.861 141.434 129.699 141.529C129.807 141.434 129.531 141.327 129.746 141.273L129.558 141.192C129.571 141.111 129.733 141.185 129.665 141.098C129.558 141.125 129.248 141.259 129.147 141.246C128.965 141.394 128.81 141.637 128.487 141.717C128.628 141.616 128.366 141.529 128.46 141.482L128.062 141.913C127.955 141.94 128.015 141.771 127.86 141.845C127.874 141.893 127.813 141.933 127.773 141.98C127.726 141.967 127.322 142.108 127.248 141.933C127.187 141.872 127.423 141.866 127.288 141.819C127.086 141.859 127.086 141.92 126.884 141.96L126.877 141.933C126.736 141.933 126.493 142.075 126.655 142.155C126.749 142.149 126.601 142.054 126.749 142.081C126.675 142.203 126.439 142.27 126.237 142.304C126.305 142.263 126.284 142.216 126.305 142.162C126.055 142.351 125.772 142.445 125.476 142.553C125.483 142.641 125.564 142.378 125.618 142.418C125.207 142.364 124.836 142.721 124.479 142.593C124.533 142.566 124.526 142.715 124.52 142.688C124.331 142.708 124.318 142.58 124.203 142.647C124.183 142.573 124.055 142.694 123.927 142.735C123.873 142.795 123.887 142.701 123.994 142.681C123.826 142.769 123.139 142.991 122.715 142.944C122.728 142.991 122.492 143.159 122.398 143.166L122.418 143.045C122.324 142.991 122.102 143.099 122.075 143.004C121.893 143.173 122.829 142.769 122.573 142.917C122.492 142.829 122.223 143.153 122.257 142.991C122.068 143.025 121.906 143.18 121.711 143.099C121.765 143.112 121.839 142.917 121.691 142.95C121.428 143.011 121.624 143.018 121.408 143.085L121.28 143.153C121.287 143.267 121.038 143.173 121.152 143.281C121.105 143.193 120.768 143.388 120.768 143.2L120.782 143.052C120.667 143.078 120.613 143.233 120.532 143.308C120.512 143.294 120.479 143.274 120.485 143.247C120.499 143.469 120.202 143.267 120.088 143.456C119.832 143.409 119.468 143.537 119.334 143.409C119.158 143.503 118.997 143.604 118.775 143.584C118.815 143.557 118.869 143.543 118.876 143.496C118.734 143.449 118.707 143.51 118.593 143.564C118.613 143.53 118.31 143.469 118.148 143.409C117.973 143.496 118.047 143.611 118.04 143.685C117.845 143.483 117.529 143.894 117.293 143.719C117.353 143.678 117.549 143.577 117.387 143.543C117.192 143.348 117.064 143.752 116.774 143.678L116.862 143.853C116.727 143.752 116.471 144.008 116.478 143.82C116.397 143.9 116.148 143.799 116.195 143.975C115.723 143.88 115.104 144.19 114.794 143.907C114.733 143.941 114.565 143.934 114.612 144.022C114.733 144.109 114.754 143.934 114.801 143.995C114.74 144.008 114.733 144.055 114.733 144.082C114.585 144.055 114.477 144.055 114.592 143.894C114.269 143.82 114.302 144.231 113.898 144.21C113.905 144.136 113.878 144.109 113.757 144.136L113.548 144.285C113.285 144.285 113.386 144.136 113.366 144.008C113.231 144.049 113.063 144.055 113.009 144.157L112.827 144.015C112.962 144.116 112.72 144.103 112.659 144.136L112.72 144.096C112.686 144.049 112.531 144.096 112.457 144.116C112.484 144.19 112.652 144.204 112.74 144.217C112.672 144.278 112.565 144.278 112.477 144.352C112.497 144.224 112.241 144.285 112.134 144.285C112.006 144.271 112.006 144.406 111.965 144.406C111.958 144.345 111.756 144.413 111.851 144.318C111.891 144.291 111.952 144.372 112.019 144.305C111.932 144.264 111.932 144.157 111.763 144.251C111.642 144.325 111.824 144.493 111.568 144.439C111.628 144.406 111.635 144.352 111.682 144.305L111.447 144.264V144.379C111.413 144.352 111.433 144.345 111.42 144.325C111.366 144.453 111.069 144.399 111.036 144.534C110.921 144.554 110.787 144.48 110.672 144.48L110.692 144.466C110.551 144.413 110.376 144.473 110.268 144.561L110.275 144.534C110.201 144.534 110.025 144.568 109.938 144.642C109.743 144.574 109.837 144.224 109.642 144.386C109.453 144.406 109.365 144.621 109.446 144.682C109.096 144.635 108.726 144.857 108.396 144.709C108.348 144.756 108.382 144.783 108.288 144.817C107.783 144.817 107.244 145.046 106.826 144.857C106.968 144.797 106.826 144.743 106.819 144.682C106.712 144.79 106.665 144.588 106.638 144.77C106.658 144.871 106.651 144.918 106.793 144.952C106.503 145.032 106.045 145.073 105.877 144.992C105.964 145.032 105.903 145.066 105.843 145.107C105.85 144.945 105.627 144.938 105.466 145.012L105.452 145.113L105.338 145.019C105.277 145.059 105.284 145.235 105.115 145.154C105.102 145.113 105.089 145.08 105.055 145.053C104.893 145.147 104.664 145.309 104.469 145.241L104.3 145.113C104.22 145.133 104.098 145.235 104.24 145.262C103.917 145.201 103.708 145.214 103.593 145.1C103.075 145.457 102.287 145.551 101.654 145.605L101.667 145.531C101.492 145.484 101.593 145.673 101.472 145.632C101.519 145.558 101.324 145.497 101.445 145.396C101.196 145.349 101.148 145.558 100.993 145.612C100.98 145.713 101.115 145.538 101.095 145.659C101.074 145.699 100.751 145.625 100.731 145.774C100.663 145.726 100.697 145.612 100.724 145.544L100.583 145.632C100.381 145.484 100.96 145.275 100.744 145.086L100.61 145.127C100.461 144.992 100.953 144.904 100.603 144.898C100.461 144.992 100.36 145.214 100.502 145.262C100.199 145.342 100.401 145.625 100.071 145.659C99.9697 145.585 100.333 145.605 100.253 145.491C100.077 145.396 99.9495 145.598 99.8013 145.571C99.963 145.605 99.8552 145.774 99.7542 145.807C99.5791 145.76 99.8485 145.652 99.606 145.673C99.5791 145.76 99.3636 145.854 99.5656 145.888C99.505 146.09 99.3097 145.868 99.2019 146.036C99.1076 145.915 99.404 145.693 99.1346 145.659C99.1952 145.78 98.8382 145.881 98.9999 146.057C98.8921 146.036 98.8651 145.935 98.9325 145.841C98.7709 145.787 98.6092 146.131 98.5284 145.881L98.4947 146.023C98.4408 145.989 98.3735 145.962 98.2859 145.902C98.1579 145.922 97.8953 146.144 97.8751 145.942C97.8347 145.969 97.5383 146.009 97.6797 146.124C97.8751 146.178 97.8751 145.989 98.003 146.164C97.8481 146.03 97.7404 146.225 97.6461 146.292L97.6191 146.218C97.5585 146.259 97.4171 146.265 97.3901 146.36C97.4305 146.306 97.3969 146.259 97.343 146.252L97.2958 146.38C97.0534 146.481 97.2015 146.185 96.9591 146.259L97.1342 146.137C97.0938 146.164 96.9928 146.07 96.8783 146.124C96.8513 146.238 96.784 146.38 96.7637 146.468C96.6358 146.535 96.6829 146.36 96.5617 146.495L96.7166 146.333C96.7368 146.292 96.5617 146.178 96.3798 146.212C96.2654 146.272 96.1104 146.454 96.3125 146.481C96.2182 146.495 96.0768 146.461 96.1374 146.367C95.9353 146.447 96.1845 146.474 96.0161 146.575C95.9286 146.521 95.6794 146.468 95.5177 146.393L95.6726 146.178L95.5447 146.205C95.6794 146.03 95.4369 146.11 95.5043 145.942C95.41 145.935 95.3157 146.009 95.2416 146.063C95.5447 146.252 95.026 146.447 95.1405 146.649C94.8105 146.778 94.8105 146.158 94.5276 146.582C94.6017 146.623 94.467 146.831 94.6691 146.717C94.4536 146.744 94.5748 146.966 94.3054 146.939C94.4738 146.804 94.0562 146.764 94.2986 146.575C94.2986 146.649 94.4603 146.596 94.5007 146.562C94.3929 146.501 94.4738 146.34 94.2515 146.387C94.1235 146.441 93.9417 146.488 93.9956 146.596C94.0292 146.717 94.1976 146.535 94.137 146.683C93.8811 146.791 93.7935 146.609 93.7329 146.858C93.8945 146.804 93.9686 146.919 93.9821 147.007L93.8002 147.101L93.8204 147.007C93.4972 147.02 93.7666 147.175 93.4567 147.229L93.2749 147.101C93.3153 146.946 93.7262 147.06 93.6184 146.845C93.4163 146.879 93.3827 147.013 93.1806 147C93.2143 146.973 93.2749 146.953 93.3086 146.919C93.2345 146.926 93.0863 146.636 92.8573 146.892C92.7293 147 92.8371 146.986 92.8573 147.067C92.5542 147.175 92.4801 147.29 92.2848 147.357C92.2781 147.182 91.9278 147.438 92.103 147.209C92.2309 147.276 92.6822 147.148 92.7495 146.959C92.5812 146.791 93.0055 146.919 93.019 146.703C92.763 146.764 92.7293 146.569 92.6552 146.454C92.5812 146.468 92.5273 146.535 92.4936 146.569C92.4936 146.697 92.5879 146.67 92.6216 146.791C92.332 146.831 92.076 146.973 91.9548 147.135C91.847 147.101 91.8403 146.973 91.948 146.932C91.618 147.054 91.261 147.148 90.9378 147.209C91.2004 147.337 90.601 147.364 90.7896 147.478C90.9714 147.471 91.1533 147.559 91.0927 147.674C90.9849 147.694 91.0725 147.586 91.0118 147.559C90.9108 147.707 90.7492 147.458 90.6751 147.66C90.958 147.505 90.6616 147.404 90.6683 147.242C90.4798 147.397 90.6414 147.135 90.4259 147.202C90.2373 147.357 89.9881 147.498 89.7658 147.62C89.4156 147.586 89.0047 147.889 88.7421 147.99C88.5737 147.963 88.6074 147.761 88.439 147.795C88.2639 147.869 88.641 147.923 88.3514 147.95L88.3649 147.909C88.3043 147.984 87.8395 147.997 87.8597 148.267L87.8665 148.051C87.8126 148.058 87.7857 148.112 87.752 148.152C87.725 148.091 87.6442 148.064 87.7116 147.997C87.496 147.943 87.3815 148.159 87.2064 148.233L87.3613 148.294C87.0987 148.496 86.8562 148.482 86.5935 148.657L86.5531 148.55L86.4117 148.691C86.4049 148.576 86.2231 148.583 86.1692 148.705L86.4925 148.246C86.6407 148.246 86.4184 148.435 86.5396 148.496C86.6474 148.55 86.8966 148.401 86.8899 148.28C86.7821 148.314 86.7888 148.341 86.7282 148.415C86.6272 148.287 86.7888 148.219 86.8225 148.091C86.7754 148.125 86.6743 148.112 86.6878 148.165C86.7619 148.044 86.8629 147.984 87.038 147.909C86.9437 148.017 87.1391 147.97 87.1121 148.031C87.0717 147.896 87.2266 147.788 87.4624 147.734C87.6779 147.815 87.8395 147.471 88.1089 147.404C88.0551 147.579 87.9675 147.734 87.8328 147.849C88.0147 147.849 88.0079 147.775 88.1965 147.775C88.2369 147.647 88.2302 147.471 88.4188 147.337L88.4659 147.431C88.641 147.317 88.5872 147.168 88.8431 147.108C89.2809 147.007 89.7119 146.838 90.042 146.757L90.0891 146.852C90.2036 146.589 90.6683 146.589 90.8839 146.42C91.3217 146.38 91.7662 146.063 92.0289 146.178C92.7428 145.895 93.3827 145.673 94.1639 145.524L94.0696 145.699C94.1841 145.558 94.1774 145.76 94.3054 145.706C94.1235 145.625 94.4603 145.511 94.5411 145.403C94.9116 145.443 95.3291 145.235 95.6188 145.066L95.6524 145.167C95.9286 144.911 96.3327 145.019 96.7233 144.979C96.7772 145.012 96.8648 145.093 96.9725 145.066C97.1544 144.864 97.2689 144.857 97.5585 144.702C97.7875 144.669 98.158 144.655 98.4004 144.682C99.2154 144.318 100.111 144.359 100.98 144.109L101.061 144.224C101.889 143.867 102.98 143.988 103.701 143.779L103.654 143.995C103.89 144.035 104.173 143.887 104.098 143.752C104.334 143.793 104.664 143.597 104.826 143.752C105.068 143.766 105.109 143.631 105.297 143.584C105.776 143.617 105.951 143.584 106.388 143.51H106.274C106.227 143.557 106.234 143.644 106.341 143.651C106.503 143.577 106.954 143.651 106.772 143.422C107.257 143.523 107.87 143.206 108.348 143.361C108.301 143.301 108.416 143.274 108.463 143.227C108.88 143.186 109.325 143.281 109.648 143.139C109.716 143.166 109.554 143.26 109.722 143.254C109.823 143.22 109.716 143.166 109.837 143.119C110.497 142.937 111.211 143.112 111.817 143.025C112.888 142.795 114.026 142.728 115.063 142.587L115.057 142.634C115.38 142.411 115.892 142.735 116.141 142.418C116.229 142.452 116.458 142.398 116.41 142.506C116.673 142.337 117.199 142.533 117.576 142.317C117.535 142.317 117.522 142.331 117.481 142.358C117.899 142.411 118.236 142.223 118.674 142.263C118.633 142.29 118.559 142.317 118.552 142.364C118.727 142.438 118.916 142.102 119.037 142.331C119.132 142.317 119.091 142.203 119.031 142.216C119.973 142.176 120.95 141.899 121.906 141.697C122.62 141.738 122.007 142.088 122.526 141.832C122.58 141.872 122.546 141.738 122.56 141.785C122.762 141.69 122.93 142 123.058 141.852C122.977 141.717 123.146 141.758 123.132 141.67C123.57 141.697 123.678 141.819 123.994 141.657L123.981 141.738C124.338 141.461 124.809 141.502 125.099 141.199C127.254 140.815 129.288 140.303 131.376 139.885C133.457 139.541 135.451 139.016 137.566 138.692C138.098 138.78 138.132 138.766 138.65 138.564C138.637 138.598 138.603 138.618 138.644 138.638C138.637 138.47 139.021 138.537 139.034 138.376C139.815 138.234 140.509 138.025 141.304 137.836C141.183 137.884 141.149 138.032 141.297 137.985L141.432 137.843L141.466 137.884C141.56 137.836 141.654 137.729 141.533 137.702C143.486 137.095 145.514 136.92 147.44 136.368C147.918 136.314 148.551 136.078 149.043 135.903C150.578 135.714 151.952 135.498 153.407 134.919C153.407 134.959 153.333 135.424 152.74 135.694Z" fill="#1D1D1D"/>
</svg>
